<svg width="179" height="39" viewBox="0 0 179 39" fill="none" xmlns="http://www.w3.org/2000/svg">
<path d="M55.0006 11.6296C55.314 11.6296 55.5752 11.7378 55.7319 11.9001C55.8886 12.0624 56.0453 12.3328 56.1497 12.7115L63.7757 33.1581C63.7757 33.2122 63.8279 33.3203 63.8279 33.3744C63.8279 33.5908 63.7234 33.8072 63.5667 33.9694C63.41 34.1317 63.2011 34.2399 62.9922 34.2399H60.7462C60.3283 34.2399 60.0149 34.1317 59.8582 33.9694C59.7015 33.8072 59.5971 33.5908 59.4926 33.4285L58.1346 29.8585H48.3671L47.0091 33.4285C46.9569 33.5908 46.8524 33.7531 46.6435 33.9694C46.4868 34.1317 46.1734 34.2399 45.7555 34.2399H43.5095C43.3006 34.2399 43.0917 34.1317 42.935 33.9694C42.7783 33.8072 42.6738 33.5908 42.6738 33.3744C42.6738 33.2662 42.6738 33.2122 42.7261 33.1581L50.352 12.7115C50.4564 12.3328 50.6131 12.0624 50.7698 11.9001C50.9265 11.7378 51.1877 11.6296 51.5011 11.6296H55.0006ZM56.7243 25.8016L53.277 16.6061L49.8296 25.8016H56.7243Z" fill="white"/>
<path d="M79.6544 30.2371C79.8633 30.2371 80.0722 30.3453 80.2289 30.5076C80.3856 30.6699 80.4901 30.8862 80.4901 31.1026V33.3744C80.4901 33.5908 80.3856 33.8072 80.2289 33.9694C80.0722 34.1317 79.8633 34.2399 79.6544 34.2399H65.9695C65.7606 34.2399 65.5516 34.1317 65.395 33.9694C65.2383 33.8072 65.1338 33.5908 65.1338 33.3744V12.4951C65.1338 12.2787 65.2383 12.0624 65.395 11.9001C65.5516 11.7378 65.7606 11.6296 65.9695 11.6296H68.4767C68.6856 11.6296 68.8945 11.7378 69.0512 11.9001C69.2079 12.0624 69.3124 12.2787 69.3124 12.4951V30.2371H79.6544Z" fill="white"/>
<path d="M80.8032 20.0138C80.8554 18.7156 81.0644 17.5256 81.4822 16.4978C81.9001 15.416 82.5269 14.4965 83.3103 13.7392C84.0938 12.9819 85.0862 12.3869 86.2354 11.9542C87.3845 11.5214 88.7425 11.3051 90.2572 11.3051C92.0854 11.3051 93.5478 11.5214 94.7492 12.0082C95.9505 12.4951 96.8385 13.0901 97.5697 13.7392C98.2487 14.4424 98.7711 15.1456 99.0322 15.8487C99.2934 16.5519 99.4501 17.201 99.5023 17.6879C99.5023 17.9583 99.4501 18.1747 99.2934 18.337C99.1367 18.4992 98.9278 18.5533 98.6666 18.5533H96.1595C95.9505 18.5533 95.7416 18.4992 95.6371 18.391C95.4804 18.2829 95.4282 18.1747 95.3237 18.0124C95.2715 17.9042 95.167 17.7419 95.0103 17.4715C94.8537 17.201 94.5403 16.8765 94.1746 16.5519C93.809 16.2274 93.2867 15.9569 92.6599 15.6865C92.0331 15.416 91.2496 15.3078 90.3095 15.3078C88.7425 15.3078 87.4889 15.7406 86.5487 16.606C85.6086 17.4715 85.0862 18.6615 85.034 20.122C84.9818 20.9333 84.9818 21.7988 84.9818 22.7725C84.9818 23.692 84.9818 24.6116 85.034 25.4229C85.0862 27.208 85.6086 28.5062 86.5487 29.3175C87.4889 30.1289 88.7425 30.5075 90.3095 30.5075C91.0929 30.5075 91.772 30.3994 92.451 30.2371C93.0778 30.0748 93.6523 29.8044 94.1224 29.3716C94.5925 28.993 94.9581 28.4521 95.2193 27.8571C95.4804 27.208 95.5849 26.4507 95.5849 25.5311V25.2607H91.772C91.563 25.2607 91.3541 25.1525 91.1974 24.9902C91.0407 24.8279 90.9362 24.6116 90.9362 24.3952V22.1234C90.9362 21.907 91.0407 21.6906 91.1974 21.5284C91.3541 21.3661 91.563 21.2579 91.772 21.2579H98.98C99.1889 21.2579 99.3979 21.3661 99.5546 21.5284C99.7112 21.6906 99.8157 21.907 99.8157 22.1234V25.6934C99.8157 26.9916 99.6068 28.1816 99.2412 29.2634C98.8233 30.3453 98.2487 31.2648 97.4653 32.0762C96.6818 32.8876 95.6894 33.4826 94.488 33.9153C93.2867 34.3481 91.9287 34.5644 90.3095 34.5644C88.7425 34.5644 87.3322 34.3481 86.1831 33.9153C85.034 33.4826 84.0416 32.8876 83.2581 32.1303C82.4746 31.373 81.9001 30.3994 81.4822 29.3175C81.0644 28.2357 80.8554 27.0457 80.8032 25.7475C80.8032 25.3148 80.751 24.882 80.751 24.3952C80.751 23.9084 80.751 23.3675 80.751 22.8806C80.751 22.3397 80.751 21.8529 80.751 21.3661C80.8032 20.8793 80.8032 20.3924 80.8032 20.0138Z" fill="white"/>
<path d="M116.687 30.2371C116.896 30.2371 117.104 30.3453 117.261 30.5076C117.418 30.6699 117.522 30.8862 117.522 31.1026V33.3744C117.522 33.5908 117.418 33.8072 117.261 33.9694C117.104 34.1317 116.896 34.2399 116.687 34.2399H103.002C102.793 34.2399 102.584 34.1317 102.427 33.9694C102.27 33.8072 102.166 33.5908 102.166 33.3744V12.4951C102.166 12.2787 102.27 12.0624 102.427 11.9001C102.584 11.7378 102.793 11.6296 103.002 11.6296H116.478C116.687 11.6296 116.896 11.7378 117.052 11.9001C117.209 12.0624 117.313 12.2787 117.313 12.4951V14.7669C117.313 14.9833 117.209 15.1997 117.052 15.362C116.896 15.5242 116.687 15.6324 116.478 15.6324H106.397V20.7711H115.799C116.008 20.7711 116.216 20.8793 116.373 21.0416C116.53 21.2038 116.634 21.4202 116.634 21.6366V23.9084C116.634 24.1248 116.53 24.3411 116.373 24.5034C116.216 24.6657 116.008 24.7739 115.799 24.7739H106.397V30.1289H116.687V30.2371Z" fill="white"/>
<path d="M120.709 34.2399C120.5 34.2399 120.291 34.1317 120.134 33.9694C119.978 33.8072 119.873 33.5908 119.873 33.3744V12.4951C119.873 12.2787 119.978 12.0624 120.134 11.9001C120.291 11.7378 120.5 11.6296 120.709 11.6296H129.902C131.26 11.6296 132.357 11.846 133.244 12.2787C134.132 12.7115 134.864 13.2524 135.386 13.8474C135.908 14.4965 136.326 15.1997 136.535 15.9029C136.796 16.6601 136.901 17.3633 136.901 18.0124C136.901 18.6615 136.796 19.2565 136.64 19.7434C136.483 20.2302 136.274 20.6629 136.013 21.0416C135.752 21.4202 135.543 21.6907 135.282 21.907C135.02 22.1234 134.864 22.2857 134.707 22.3939C135.334 22.8266 135.961 23.4757 136.483 24.3411C137.005 25.1525 137.319 26.2343 137.319 27.4785C137.319 28.2898 137.162 29.1012 136.901 29.9126C136.587 30.7239 136.169 31.4271 135.595 32.0762C135.02 32.7253 134.341 33.2662 133.506 33.6449C132.67 34.0235 131.678 34.2399 130.581 34.2399H120.709ZM132.722 18.1747C132.722 17.3633 132.461 16.7142 131.991 16.3356C131.469 15.9029 130.685 15.6865 129.64 15.6865H124.104V20.6629H129.64C130.737 20.6629 131.521 20.4466 131.991 20.0138C132.461 19.5811 132.722 18.9861 132.722 18.1747ZM124.104 30.2371H129.902C131.051 30.2371 131.886 29.9667 132.409 29.4798C132.931 28.993 133.192 28.2898 133.192 27.4785C133.192 26.6671 132.931 25.9639 132.357 25.4771C131.782 24.9362 130.998 24.7198 129.849 24.7198H124.052V30.2371H124.104Z" fill="white"/>
<path d="M148.601 11.6296C151.212 11.6296 153.197 12.2787 154.555 13.5228C155.913 14.7669 156.592 16.4979 156.592 18.7156C156.592 20.2843 156.227 21.6366 155.548 22.7184C154.869 23.8543 153.824 24.6657 152.466 25.2066L156.801 33.2121C156.853 33.3203 156.906 33.4826 156.906 33.5908C156.906 33.8072 156.853 33.9694 156.697 34.0776C156.54 34.2399 156.383 34.294 156.227 34.294H153.563C153.145 34.294 152.831 34.1858 152.623 33.9694C152.414 33.7531 152.309 33.5908 152.205 33.4285L148.131 25.9098H143.952V33.4285C143.952 33.6449 143.848 33.8612 143.691 34.0235C143.534 34.1858 143.325 34.294 143.116 34.294H140.609C140.4 34.294 140.191 34.1858 140.035 34.0235C139.878 33.8612 139.773 33.6449 139.773 33.4285V12.4951C139.773 12.2787 139.878 12.0624 140.035 11.9001C140.191 11.7378 140.4 11.6296 140.609 11.6296H148.601ZM143.952 21.7988H148.496C149.698 21.7988 150.638 21.5825 151.317 21.1497C152.048 20.717 152.361 19.9056 152.361 18.7156C152.361 17.5256 151.996 16.7142 151.317 16.2815C150.585 15.8488 149.645 15.6865 148.496 15.6865H143.952V21.7988Z" fill="white"/>
<path d="M170.121 11.6296C170.434 11.6296 170.695 11.7378 170.852 11.9001C171.009 12.0624 171.165 12.3328 171.27 12.7115L178.896 33.1581C178.896 33.2122 178.948 33.3203 178.948 33.3744C178.948 33.5908 178.844 33.8072 178.687 33.9694C178.53 34.1317 178.321 34.2399 178.112 34.2399H175.866C175.448 34.2399 175.135 34.1317 174.978 33.9694C174.822 33.8072 174.717 33.5908 174.613 33.4285L173.255 29.8585H163.487L162.129 33.4285C162.077 33.5908 161.973 33.7531 161.764 33.9694C161.607 34.1317 161.294 34.2399 160.876 34.2399H158.63C158.421 34.2399 158.212 34.1317 158.055 33.9694C157.898 33.8072 157.794 33.5908 157.794 33.3744C157.794 33.2662 157.794 33.2122 157.846 33.1581L165.472 12.7115C165.577 12.3328 165.733 12.0624 165.89 11.9001C166.047 11.7378 166.308 11.6296 166.621 11.6296H170.121ZM171.844 25.8016L168.397 16.6061L164.95 25.8016H171.844Z" fill="white"/>
<path d="M17.6545 3.7865V27.5327L0 38.0805L17.6545 3.7865Z" fill="#B41870"/>
<path d="M18.6992 3.7865V27.5327L36.3537 38.0805L18.6992 3.7865Z" fill="#00CAB2"/>
<path d="M18.1253 28.5603L0.679688 39H35.6231L18.1253 28.5603Z" fill="#5D32ED"/>
</svg>
