<svg width="34" height="34" viewBox="0 0 34 34" fill="none" xmlns="http://www.w3.org/2000/svg">
<g clip-path="url(#clip0_1542_16942)">
<path d="M16.9997 33.9994C26.3884 33.9994 33.9994 26.3884 33.9994 16.9997C33.9994 7.61103 26.3884 0 16.9997 0C7.61103 0 0 7.61103 0 16.9997C0 26.3884 7.61103 33.9994 16.9997 33.9994Z" fill="black"/>
<path d="M20.5818 0.383749C11.4194 -1.59135 2.35872 4.25595 0.383627 13.4184C-1.59147 22.5808 4.25583 31.6414 13.4182 33.6165C22.5806 35.5916 31.6413 29.7443 33.6164 20.5819C35.5915 11.4195 29.7442 2.35885 20.5818 0.383749Z" fill="url(#paint0_linear_1542_16942)"/>
<path d="M19.7524 4.22869C12.7103 2.71066 5.74647 7.20479 4.22844 14.2469C2.71042 21.2889 7.20455 28.2528 14.2466 29.7708C21.2887 31.2888 28.2525 26.7947 29.7705 19.7526C31.2886 12.7106 26.7944 5.74671 19.7524 4.22869Z" fill="black"/>
<g clip-path="url(#clip1_1542_16942)">
<path d="M16.9911 16.2435H15.5332V16.3639C15.5332 16.4154 15.5654 16.4609 15.6132 16.4773L15.7121 16.511C15.7722 16.5314 15.813 16.5881 15.8139 16.6529C15.8278 17.6221 15.9645 24.8609 16.9911 27.2002C18.0176 24.8612 18.1546 17.6221 18.1683 16.6529C18.1692 16.5881 18.21 16.5314 18.27 16.511L18.369 16.4773C18.4168 16.4609 18.449 16.4154 18.449 16.3639V16.2435H16.9913H16.9911Z" fill="url(#paint1_linear_1542_16942)"/>
<path d="M16.99 14.1157H14.1055C14.1055 16.0689 16.1991 16.0053 16.1991 16.0053H17.781C17.781 16.0053 19.8747 16.0689 19.8747 14.1157H16.9902H16.99Z" fill="url(#paint2_linear_1542_16942)"/>
<path d="M17.3574 13.8842C17.3574 13.8842 17.5892 13.0296 18.8566 12.7922C20.1239 12.5549 20.4633 11.7006 20.4633 11.7006C20.4633 11.7006 19.8467 12.062 18.6007 12.2279C17.6557 12.3537 17.3266 13.4252 17.3574 13.8839V13.8842Z" fill="url(#paint3_linear_1542_16942)"/>
<path d="M16.6935 13.7417C16.6935 13.7417 16.8634 12.1593 18.9498 11.7162C21.0363 11.2731 21.8862 10.53 22.2881 9.65955C22.2881 9.65955 21.009 10.6463 19.0425 10.7667C17.3693 10.8689 16.1217 12.444 16.6935 13.7417Z" fill="url(#paint4_linear_1542_16942)"/>
<path d="M16.0895 13.7417C16.0895 13.7417 15.0022 10.6046 18.6395 10.1337C21.1513 9.80859 21.8849 9.30832 22.4015 8.5C22.4015 8.5 21.4955 9.02685 18.8451 9.08808C15.3531 9.16877 14.7755 9.67688 14.5901 11.1307C14.407 12.5665 16.0892 13.7417 16.0892 13.7417H16.0895Z" fill="url(#paint5_linear_1542_16942)"/>
<path fill-rule="evenodd" clip-rule="evenodd" d="M18.8691 21.5282C19.3568 18.4129 20.83 18.1331 22.4765 17.4472C24.1259 16.7974 25.9488 15.7413 27.2009 11.9053C26.2506 16.6947 24.1087 18.1112 21.2822 18.8498C21.9448 18.7632 22.9577 18.5702 23.9024 18.0854C24.852 17.6145 25.7335 16.8513 26.2501 15.9509C25.6756 17.4543 24.8393 18.3436 23.9182 18.8313C23.0006 19.3275 21.9982 19.4224 21.1691 19.5359C21.7724 19.5511 22.608 19.5957 23.4115 19.4203C24.2177 19.2525 24.9918 18.8647 25.5293 18.1938C24.878 19.4305 24.0846 19.9457 23.2773 20.1221C22.4714 20.3031 21.6519 20.1453 20.9781 20.1413C21.8927 20.3919 23.5291 20.6726 24.5106 19.795C23.1478 21.7055 21.6897 20.9843 20.5238 20.6041C21.1093 21.045 22.3213 21.4003 23.1102 21.0778C21.717 22.2302 20.9774 21.5149 20.1092 20.8362C20.3933 21.2747 20.7447 21.6454 21.2201 21.8493C19.9444 21.883 19.7358 20.6026 18.8694 21.5282H18.8691Z" fill="url(#paint6_linear_1542_16942)"/>
<path fill-rule="evenodd" clip-rule="evenodd" d="M15.1325 21.5282C14.6449 18.4129 13.1717 18.1331 11.5251 17.4472C9.87579 16.7972 8.05285 15.7413 6.80078 11.9053C7.75107 16.6944 9.89294 18.1112 12.7195 18.8498C12.0568 18.7632 11.044 18.5702 10.0995 18.0854C9.14986 17.6145 8.2684 16.8513 7.75177 15.9509C8.32635 17.4543 9.16261 18.3436 10.0837 18.8313C11.0013 19.3275 12.0037 19.4224 12.8328 19.5359C12.2295 19.5511 11.3939 19.5957 10.5904 19.4203C9.78424 19.2525 9.0101 18.8647 8.4726 18.1938C9.1239 19.4305 9.91728 19.9455 10.7246 20.1221C11.5305 20.3031 12.35 20.1453 13.0238 20.1413C12.1092 20.3919 10.4729 20.6729 9.49127 19.795C10.8541 21.7055 12.3122 20.9843 13.4783 20.6041C12.8926 21.045 11.6809 21.4003 10.8919 21.0778C12.2851 22.2302 13.0247 21.5149 13.893 20.8362C13.6088 21.2747 13.2574 21.6454 12.7821 21.8493C14.0578 21.883 14.2664 20.6026 15.1328 21.5282H15.1325Z" fill="url(#paint7_linear_1542_16942)"/>
</g>
</g>
<defs>
<linearGradient id="paint0_linear_1542_16942" x1="34" y1="17.3779" x2="-1.21778e-07" y2="17.3779" gradientUnits="userSpaceOnUse">
<stop stop-color="#E6814A"/>
<stop offset="1" stop-color="#F1D286"/>
</linearGradient>
<linearGradient id="paint1_linear_1542_16942" x1="18.449" y1="21.8436" x2="15.5332" y2="21.8436" gradientUnits="userSpaceOnUse">
<stop stop-color="#E6814A"/>
<stop offset="1" stop-color="#F1D286"/>
</linearGradient>
<linearGradient id="paint2_linear_1542_16942" x1="19.8747" y1="15.0816" x2="14.1055" y2="15.0816" gradientUnits="userSpaceOnUse">
<stop stop-color="#E6814A"/>
<stop offset="1" stop-color="#F1D286"/>
</linearGradient>
<linearGradient id="paint3_linear_1542_16942" x1="20.4633" y1="12.8166" x2="17.3555" y2="12.8166" gradientUnits="userSpaceOnUse">
<stop stop-color="#E6814A"/>
<stop offset="1" stop-color="#F1D286"/>
</linearGradient>
<linearGradient id="paint4_linear_1542_16942" x1="22.2881" y1="11.746" x2="16.5527" y2="11.746" gradientUnits="userSpaceOnUse">
<stop stop-color="#E6814A"/>
<stop offset="1" stop-color="#F1D286"/>
</linearGradient>
<linearGradient id="paint5_linear_1542_16942" x1="22.4015" y1="11.1791" x2="14.5762" y2="11.1791" gradientUnits="userSpaceOnUse">
<stop stop-color="#E6814A"/>
<stop offset="1" stop-color="#F1D286"/>
</linearGradient>
<linearGradient id="paint6_linear_1542_16942" x1="27.2009" y1="16.9881" x2="18.8691" y2="16.9881" gradientUnits="userSpaceOnUse">
<stop stop-color="#E6814A"/>
<stop offset="1" stop-color="#F1D286"/>
</linearGradient>
<linearGradient id="paint7_linear_1542_16942" x1="15.1328" y1="16.9881" x2="6.80078" y2="16.9881" gradientUnits="userSpaceOnUse">
<stop stop-color="#E6814A"/>
<stop offset="1" stop-color="#F1D286"/>
</linearGradient>
<clipPath id="clip0_1542_16942">
<rect width="34" height="34" fill="white"/>
</clipPath>
<clipPath id="clip1_1542_16942">
<rect width="20.4" height="18.7" fill="white" transform="translate(6.80078 8.5)"/>
</clipPath>
</defs>
</svg>
