<svg width="200" height="42" viewBox="0 0 200 42" fill="none" xmlns="http://www.w3.org/2000/svg">
<path d="M20.8611 41.7224C32.3824 41.7224 41.7222 32.3826 41.7222 20.8613C41.7222 9.34008 32.3824 0.000244141 20.8611 0.000244141C9.33983 0.000244141 0 9.34008 0 20.8613C0 32.3826 9.33983 41.7224 20.8611 41.7224Z" fill="black"/>
<path d="M20.2032 13.748C20.7637 13.2556 21.3116 13.3331 21.3116 13.3331C21.3116 13.3331 20.7099 12.7124 18.7068 13.0988C17.4811 13.3347 17.2436 13.0164 17.1074 12.6396C19.3196 11.9048 22.5183 11.5739 27.1041 12.372C27.1405 12.3783 27.1769 12.383 27.2149 12.3878C27.2688 12.6792 27.3527 13.1463 27.4556 13.7243C26.4121 13.6182 23.1232 13.3442 20.2032 13.7464V13.748Z" fill="url(#paint0_linear_740_11389)"/>
<path d="M28.4507 21.5343C28.2686 21.6547 27.9836 21.8859 27.5054 21.7623C26.9369 21.6151 26.4761 21.4061 26.4761 21.4061C26.1293 21.5407 25.8728 21.7418 25.5418 21.5628C25.2821 21.4235 25.2441 21.0799 25.2536 20.8059C25.3645 20.665 25.4452 20.562 25.4706 20.5272C25.5893 20.3641 26.2085 20.5161 26.2085 20.5161C25.8886 19.9397 25.2473 20.0933 25.1523 20.2438C25.0573 20.3942 24.0676 22.2928 24.0676 22.2928C24.0676 22.2928 24.4951 21.7592 24.8799 21.2762C24.9892 21.4852 25.2077 21.8542 25.5006 22.0727C25.1111 22.1867 24.7216 22.4084 24.4793 22.8328C23.8396 23.9492 22.6678 23.9508 22.6583 23.9508C22.6583 23.9508 22.7042 22.9896 22.1009 22.3324C21.496 21.6768 21.336 20.6301 21.336 20.6301C21.0146 21.0735 21.2062 22.0347 21.2062 22.0347C21.2062 22.0347 20.2624 20.874 19.9235 18.9754C19.8317 18.4576 19.8887 18.0664 20.0201 17.7703C20.0898 17.8938 20.131 18.0158 20.1167 18.1203C20.0724 18.4386 20.055 18.8835 20.2482 19.2414C20.4683 19.6484 20.9243 19.9413 21.3123 19.7513C21.8966 19.4663 21.534 18.7331 21.534 18.7331C21.534 18.7331 21.4659 19.585 20.9132 19.2082C20.4002 18.8582 22.2782 17.452 21.2426 16.8772H21.2458C19.838 16.1377 19.6401 15.1227 19.6211 14.7094C19.7573 14.6841 19.8935 14.6619 20.0328 14.6397C20.112 14.7522 20.1642 14.8646 20.1516 14.9612C20.1215 15.1781 20.1104 15.479 20.2418 15.7229C20.3907 16 20.701 16.1979 20.9655 16.0696C21.3629 15.8765 21.1159 15.3777 21.1159 15.3777C21.1159 15.3777 21.07 15.9556 20.6947 15.7007C20.4097 15.5059 21.0067 14.9517 20.9829 14.521C21.1634 14.5036 21.3439 14.4877 21.5245 14.4735C21.5482 14.5305 21.5625 14.5859 21.5546 14.635C21.526 14.8393 21.515 15.1243 21.6385 15.3523C21.7794 15.6136 22.0724 15.8004 22.321 15.6785C22.6947 15.4964 22.4635 15.0261 22.4635 15.0261C22.4635 15.0261 22.4191 15.5724 22.066 15.3301C21.8412 15.1765 22.1975 14.7854 22.3083 14.426C22.5379 14.4165 22.7659 14.4085 22.9908 14.4038C23.0114 14.4513 23.0209 14.4988 23.0145 14.54C22.9892 14.7205 22.9797 14.9707 23.089 15.1718C23.2125 15.4014 23.4706 15.5661 23.6891 15.46C24.0185 15.3001 23.8142 14.8868 23.8142 14.8868C23.8142 14.8868 23.7762 15.3666 23.4643 15.1544C23.2742 15.0245 23.5545 14.7047 23.6638 14.3975C23.8728 14.3975 24.0787 14.399 24.2798 14.4022C24.2798 14.4038 24.2798 14.4054 24.2798 14.407C24.2544 14.5875 24.2449 14.8377 24.3542 15.0388C24.4777 15.2684 24.7358 15.4331 24.9543 15.327C25.2837 15.167 25.0794 14.7537 25.0794 14.7537C25.0794 14.7537 25.0414 15.2336 24.7295 15.0214C24.5711 14.9137 24.739 14.673 24.8641 14.418C25.1127 14.426 25.3518 14.437 25.5782 14.4481C25.5529 14.6287 25.5434 14.8788 25.6527 15.08C25.7762 15.3096 26.0343 15.4742 26.2528 15.3682C26.5822 15.2082 26.3779 14.7949 26.3779 14.7949C26.3779 14.7949 26.3399 15.2747 26.028 15.0625C25.8744 14.958 26.028 14.7284 26.1499 14.483C26.3367 14.4956 26.5109 14.5083 26.6693 14.5194C26.6693 14.5273 26.6693 14.5352 26.6693 14.5431C26.6439 14.7237 26.6344 14.9739 26.7437 15.175C26.8672 15.4046 27.1253 15.5693 27.3438 15.4632C27.6732 15.3032 27.4689 14.8899 27.4689 14.8899C27.4689 14.8899 27.4309 15.3697 27.119 15.1575C26.9638 15.0514 27.1222 14.8187 27.2441 14.5716C27.4119 14.5875 27.537 14.6001 27.6099 14.6081C27.6859 15.0483 27.7666 15.5218 27.8474 16.0063C27.6162 16.3958 26.4698 16.4212 26.4698 16.4212C26.4698 16.4212 25.2346 15.4917 24.606 15.9271C23.9789 16.3626 22.0787 16.6935 22.0787 16.6935C23.6004 16.9817 24.5268 16.3468 24.8261 16.2818C25.1254 16.2169 25.868 17.2858 25.868 17.2858C25.868 17.2858 25.1919 16.9564 24.8292 16.8281C24.4666 16.7015 23.1634 17.3681 23.1634 17.3681C24.9243 17.6658 25.6352 18.7854 25.6352 18.7854C25.6352 18.7854 25.5086 17.7054 25.8633 17.6326C26.218 17.5581 26.6139 18.57 26.6139 18.57C26.8007 17.5328 26.6186 17.1227 27.4832 16.7775C27.6463 16.7125 27.8015 16.5811 27.9123 16.3943C28.3098 18.8218 28.6724 21.3966 28.4523 21.5407L28.4507 21.5343Z" fill="url(#paint1_linear_740_11389)"/>
<path d="M26.9724 11.2445C27.0342 11.4519 27.0817 11.6388 27.1181 11.7971C26.2583 11.596 23.6439 11.2445 20.7667 11.4282C16.7161 11.6863 15.1057 12.8311 15.1057 12.8311C15.1057 12.8311 17.6757 13.8778 18.4041 16.5255C16.3075 13.2999 12.5546 12.5556 10.2031 12.3529L10.2285 12.3418C10.2285 12.3418 11.9355 11.938 14.7905 12.5192C14.7905 12.5192 17.3051 11.2524 21.1451 11.0054C23.2734 10.8676 25.9558 11.018 26.9724 11.2461V11.2445Z" fill="url(#paint2_linear_740_11389)"/>
<path d="M28.5169 12.1662C28.1321 12.353 27.4243 11.9461 27.4829 11.49C27.7458 9.45522 26.0356 10.9073 25.8281 10.5273C25.9437 10.4623 25.7996 9.60723 25.9627 9.54864C29.3198 8.07123 27.6112 11.2778 28.121 11.6278C28.6689 12.0031 28.737 11.1575 28.737 11.1575C28.737 11.1575 29.0965 11.8827 28.5169 12.1678V12.1662Z" fill="url(#paint3_linear_740_11389)"/>
<path d="M28.5169 33.0764C27.8281 29.7019 26.6104 26.7788 27.1741 24.6284C27.2248 24.4336 27.3911 24.3022 27.5352 23.9095C27.6793 23.5152 27.3262 23.1605 27.1298 22.9498C26.935 22.7392 27.1425 22.3212 27.144 22.3164C24.8654 22.3069 25.4354 24.185 22.3444 25.1715C25.3436 24.6616 25.5811 23.7812 26.403 23.1478C26.6437 22.9625 26.7988 23.105 27.0902 23.5722C27.3816 24.0393 26.7007 24.3877 26.5692 24.66C25.863 26.1359 26.7371 31.2015 26.7371 31.2015C25.2913 30.7708 24.3191 30.8705 23.2708 30.6314C20.8259 30.0756 21.1742 27.8856 21.1742 27.8856C20.7419 28.5903 20.4157 31.0891 20.4157 31.0891C18.7657 30.2688 17.206 28.4668 17.1094 28.3543C18.5551 30.2894 20.8021 31.8935 21.217 32.0423C20.848 31.3868 21.0871 30.6378 21.0871 30.6378C21.7775 31.9505 23.0792 32.8167 24.9905 32.8895C26.7323 32.956 28.5138 33.0764 28.5138 33.0764H28.5169Z" fill="url(#paint4_linear_740_11389)"/>
<path d="M13.9082 23.7145C13.9082 23.7145 16.2977 24.2988 17.9556 25.5292C17.9556 25.5292 17.517 24.4572 17.2985 24.226C17.2985 24.226 19.2304 24.9037 20.8329 26.5585C20.8329 26.5585 18.8598 23.8887 16.2423 23.2173C16.2423 23.2173 16.5178 23.9029 16.7411 24.3242C16.7411 24.3242 16.1837 23.7193 13.9098 23.7145H13.9082Z" fill="url(#paint5_linear_740_11389)"/>
<path d="M13.8284 13.748C13.7001 13.8763 12.1325 14.0933 12.6439 16.2246C13.1554 18.3576 13.5592 21.0068 12.541 22.0187C12.541 22.0187 14.4048 20.9182 13.4278 16.7567C12.8229 14.1756 13.8268 13.748 13.8268 13.748H13.8284Z" fill="url(#paint6_linear_740_11389)"/>
<path d="M14.8059 11.8716C22.1122 9.01972 26.8469 10.8756 26.8469 10.8756C26.8469 10.8756 25.949 7.94294 23.2286 6.88674C22.0362 6.42435 19.8842 6.76006 19.938 6.76006C19.9919 6.76006 21.7987 7.11793 20.5287 7.38713C19.2587 7.65632 17.4504 7.47738 16.5383 7.97777C15.6262 8.47816 17.254 8.15671 15.9476 8.76477C14.6412 9.37284 13.5359 9.49794 13.4805 10.0173C13.4251 10.5367 13.764 10.4655 13.5676 10.912C13.3712 11.3586 13.0672 11.6341 12.9595 11.6848C12.8519 11.7354 13.802 12.2643 14.8059 11.8732V11.8716Z" fill="url(#paint7_linear_740_11389)"/>
<path d="M16.4655 41.2505C5.22256 38.8277 -1.9523 27.7083 0.470463 16.4655C2.89481 5.22256 14.0126 -1.9523 25.2555 0.470463C36.4984 2.89323 43.6732 14.0126 41.2505 25.2555C38.8277 36.4984 27.7083 43.6732 16.4655 41.2505ZM25.113 1.13395C14.2359 -1.21122 3.47912 5.73087 1.13395 16.6096C-1.21122 27.4867 5.73087 38.2434 16.608 40.5886C27.4851 42.9338 38.2418 35.9917 40.587 25.1146C42.9322 14.2375 35.9901 3.48071 25.113 1.13554V1.13395Z" fill="url(#paint8_linear_740_11389)"/>
<path d="M17.3392 37.195C8.33223 35.2536 2.5841 26.3464 4.52548 17.3395C6.46686 8.33247 15.3741 2.58435 24.3811 4.52573C33.388 6.4671 39.1362 15.3743 37.1948 24.3813C35.2534 33.3883 26.3462 39.1364 17.3392 37.195ZM24.2385 5.18921C15.5974 3.32701 7.05117 8.84078 5.18897 17.4836C3.32677 26.1247 8.84053 34.6709 17.4833 36.5331C26.1245 38.3953 34.6707 32.8816 36.5329 24.2388C38.3951 15.596 32.8813 7.05142 24.2385 5.18921Z" fill="url(#paint9_linear_740_11389)"/>
<path d="M14.5957 39.0538L15.6107 37.3024C16.3819 37.5637 17.1752 37.7648 17.9686 37.9025L17.7706 39.1234C17.4413 39.0648 17.0755 39.0458 16.3534 38.7861L16.5244 38.3586C16.8047 38.4694 17.1626 38.5502 17.3906 38.5945L17.4428 38.2715C16.8997 38.1622 16.3566 38.0229 15.8229 37.855L15.275 38.8004C16.3407 39.1503 17.4824 39.3958 18.6732 39.5288C18.6542 38.973 18.6669 37.6824 18.6653 37.144H19.1261C19.1261 37.494 19.0929 39.372 19.077 40.0276C17.5363 39.893 15.9607 39.5446 14.5957 39.0553V39.0538Z" fill="url(#paint10_linear_740_11389)"/>
<path d="M27.13 2.66795L26.115 4.4193C25.3438 4.15803 24.5505 3.95692 23.7572 3.81916L23.9551 2.59827C24.2845 2.65686 24.6503 2.67587 25.3723 2.93556L25.2013 3.36311C24.921 3.25226 24.5632 3.1715 24.3351 3.12716L24.2829 3.4502C24.826 3.55946 25.3692 3.69881 25.9028 3.86666L26.4507 2.92131C25.385 2.57135 24.2433 2.32591 23.0525 2.1929C23.0715 2.74871 23.0588 4.03926 23.0604 4.57766H22.5996C22.5996 4.2277 22.6329 2.34966 22.6487 1.69409C24.1894 1.82869 25.765 2.17706 27.13 2.66636V2.66795Z" fill="url(#paint11_linear_740_11389)"/>
<path d="M2.66917 14.5933L4.42053 15.6083C4.15925 16.3795 3.95814 17.1728 3.82038 17.9661L2.59949 17.7682C2.65808 17.4388 2.67709 17.073 2.93678 16.351L3.36433 16.522C3.25348 16.8023 3.17272 17.1601 3.12838 17.3881L3.45142 17.4404C3.56068 16.8973 3.70003 16.3541 3.86788 15.8205L2.92253 15.2726C2.57257 16.3383 2.32713 17.48 2.19412 18.6708C2.74993 18.6518 4.04048 18.6645 4.57888 18.6629V19.1237C4.22892 19.1237 2.35088 19.0904 1.69531 19.0746C1.82991 17.5338 2.17828 15.9582 2.66758 14.5933H2.66917Z" fill="url(#paint12_linear_740_11389)"/>
<path d="M39.0542 27.1266L37.3029 26.1116C37.5642 25.3404 37.7653 24.5471 37.903 23.7537L39.1239 23.9517C39.0653 24.281 39.0463 24.6468 38.7866 25.3689L38.3591 25.1979C38.4699 24.9176 38.5507 24.5597 38.595 24.3317L38.272 24.2795C38.1627 24.8226 38.0234 25.3657 37.8555 25.8994L38.8009 26.4473C39.1508 25.3816 39.3963 24.2399 39.5293 23.0491C38.9735 23.0681 37.6829 23.0554 37.1445 23.057V22.5962C37.4945 22.5962 39.3725 22.6294 40.0281 22.6453C39.8935 24.186 39.5451 25.7616 39.0558 27.1266H39.0542Z" fill="url(#paint13_linear_740_11389)"/>
<path d="M3.56604 29.2934L5.52325 28.7725C5.88429 29.5025 6.30233 30.2055 6.7663 30.8643L5.76236 31.5879C5.57075 31.314 5.32531 31.0432 4.99911 30.348L5.4219 30.1659C5.54067 30.4431 5.73861 30.7534 5.86845 30.945L6.13448 30.7534C5.82728 30.2926 5.54225 29.8097 5.28256 29.3124L4.22636 29.5927C4.73308 30.5951 5.36648 31.5737 6.1139 32.5111C6.49394 32.1042 7.41554 31.2016 7.794 30.8199L8.1202 31.1446C7.87317 31.3932 6.52086 32.698 6.04581 33.1493C5.05136 31.9648 4.1836 30.603 3.56445 29.2919L3.56604 29.2934Z" fill="url(#paint14_linear_740_11389)"/>
<path d="M38.1577 12.4274L36.2005 12.9483C35.8394 12.2183 35.4214 11.5153 34.9574 10.8565L35.9614 10.1329C36.153 10.4068 36.3984 10.6776 36.7246 11.3728L36.3018 11.5549C36.183 11.2777 35.9851 10.9674 35.8553 10.7758L35.5892 10.9674C35.8964 11.4282 36.1815 11.9111 36.4412 12.4084L37.4974 12.1281C36.9906 11.1257 36.3572 10.1471 35.6098 9.20969C35.2298 9.61665 34.3082 10.5192 33.9297 10.9009L33.6035 10.5763C33.8505 10.3276 35.2029 9.02283 35.6779 8.57153C36.6724 9.756 37.5401 11.1178 38.1593 12.429L38.1577 12.4274Z" fill="url(#paint15_linear_740_11389)"/>
<path d="M12.4281 3.56433L12.9491 5.52154C12.2191 5.88258 11.516 6.30063 10.8573 6.76459L10.1336 5.76065C10.4075 5.56905 10.6783 5.3236 11.3735 4.9974L11.5556 5.4202C11.2785 5.53896 10.9681 5.7369 10.7765 5.86674L10.9681 6.13277C11.4289 5.82557 11.9119 5.54054 12.4091 5.28085L12.1288 4.22465C11.1265 4.73137 10.1479 5.36477 9.21042 6.11219C9.61738 6.49223 10.52 7.41383 10.9016 7.79229L10.577 8.11849C10.3284 7.87146 9.02356 6.51915 8.57227 6.0441C9.75673 5.04966 11.1185 4.18189 12.4297 3.56274L12.4281 3.56433Z" fill="url(#paint16_linear_740_11389)"/>
<path d="M29.2944 38.156L28.7734 36.1988C29.5034 35.8377 30.2065 35.4197 30.8652 34.9557L31.5889 35.9596C31.315 36.1513 31.0442 36.3967 30.349 36.7229L30.1669 36.3001C30.444 36.1813 30.7544 35.9834 30.946 35.8536L30.7544 35.5875C30.2936 35.8947 29.8106 36.1798 29.3134 36.4394L29.5937 37.4956C30.5961 36.9889 31.5747 36.3555 32.5121 35.6081C32.1051 35.2281 31.2025 34.3065 30.8209 33.928L31.1455 33.6018C31.3941 33.8488 32.6989 35.2011 33.1502 35.6762C31.9658 36.6706 30.604 37.5384 29.2928 38.1576L29.2944 38.156Z" fill="url(#paint17_linear_740_11389)"/>
<path d="M8.09143 35.2516L9.70185 34.0244C10.3131 34.5628 10.9687 35.0521 11.6496 35.4844L10.9972 36.5359C10.7153 36.3553 10.3859 36.1986 9.81745 35.6808L10.1389 35.3514C10.3543 35.562 10.6551 35.7742 10.8483 35.9025L11.0209 35.6253C10.5617 35.3166 10.1136 34.9793 9.68443 34.6182L8.81509 35.2801C9.66543 36.0133 10.6235 36.6768 11.6733 37.2579C11.8681 36.737 12.3764 35.5509 12.5807 35.0537L13.0066 35.2295C12.8736 35.5541 12.1199 37.2754 11.8538 37.8739C10.4825 37.1582 9.16188 36.2302 8.08984 35.2548L8.09143 35.2516Z" fill="url(#paint18_linear_740_11389)"/>
<path d="M33.6379 6.46823L32.0274 7.69545C31.4162 7.15706 30.7606 6.66775 30.0797 6.23546L30.7321 5.18401C31.014 5.36453 31.3434 5.5213 31.9118 6.0391L31.5904 6.36847C31.375 6.15787 31.0742 5.94568 30.881 5.81741L30.7084 6.09453C31.1676 6.40331 31.6157 6.74059 32.0449 7.10163L32.9142 6.43973C32.0639 5.70657 31.1058 5.04308 30.056 4.46193C29.8612 4.9829 29.3529 6.16895 29.1486 6.66617L28.7227 6.4904C28.8557 6.16578 29.6094 4.44451 29.8754 3.84595C31.2468 4.56169 32.5674 5.48963 33.6394 6.46507L33.6379 6.46823Z" fill="url(#paint19_linear_740_11389)"/>
<path d="M6.47189 8.08874L7.69911 9.69917C7.16072 10.3104 6.67142 10.966 6.23912 11.6469L5.18767 10.9945C5.36819 10.7126 5.52496 10.3832 6.04276 9.81476L6.37213 10.1362C6.16153 10.3516 5.94934 10.6524 5.82107 10.8456L6.09819 11.0182C6.40697 10.559 6.74426 10.1109 7.1053 9.68175L6.44339 8.8124C5.71023 9.66275 5.04674 10.6208 4.46559 11.6706C4.98657 11.8654 6.17261 12.3737 6.66983 12.578L6.49406 13.0039C6.16945 12.8709 4.44817 12.1172 3.84961 11.8512C4.56535 10.4798 5.49329 9.15919 6.46873 8.08716L6.47189 8.08874Z" fill="url(#paint20_linear_740_11389)"/>
<path d="M35.2546 33.6337L34.0273 32.0233C34.5657 31.412 35.055 30.7565 35.4873 30.0756L36.5388 30.728C36.3583 31.0098 36.2015 31.3392 35.6837 31.9077L35.3543 31.5862C35.5649 31.3709 35.7771 31.07 35.9054 30.8768L35.6283 30.7042C35.3195 31.1634 34.9822 31.6116 34.6212 32.0407L35.2831 32.91C36.0162 32.0597 36.6797 31.1017 37.2609 30.0518C36.7399 29.857 35.5538 29.3487 35.0566 29.1445L35.2324 28.7185C35.557 28.8515 37.2783 29.6053 37.8768 29.8713C37.1611 31.2426 36.2332 32.5633 35.2577 33.6353L35.2546 33.6337Z" fill="url(#paint21_linear_740_11389)"/>
<path d="M1.65625 22.0061L3.66255 22.2769C3.71481 23.0892 3.83199 23.9 4.00776 24.6854L2.80429 24.9673C2.73303 24.6411 2.6111 24.2959 2.57468 23.5279L3.03548 23.5215C3.03865 23.8224 3.10199 24.185 3.14791 24.413L3.4662 24.3386C3.3601 23.7955 3.28093 23.2397 3.23342 22.6823L2.1503 22.5366C2.23265 23.6561 2.44167 24.8026 2.77262 25.9569C3.27934 25.7273 4.47647 25.2475 4.97369 25.0401L5.15105 25.4645C4.82643 25.5991 3.07665 26.2847 2.46542 26.5191C2.00304 25.0433 1.72434 23.4534 1.65625 22.0061Z" fill="url(#paint22_linear_740_11389)"/>
<path d="M40.0729 19.7164L38.0666 19.4456C38.0144 18.6332 37.8972 17.8225 37.7214 17.0371L38.9249 16.7552C38.9961 17.0814 39.1181 17.4266 39.1545 18.1946L38.6937 18.2009C38.6905 17.9001 38.6272 17.5375 38.5813 17.3094L38.263 17.3839C38.3691 17.927 38.4482 18.4828 38.4958 19.0402L39.5789 19.1859C39.4965 18.0663 39.2875 16.9199 38.9566 15.7655C38.4498 15.9951 37.2527 16.4749 36.7555 16.6824L36.5781 16.258C36.9027 16.1234 38.6525 15.4377 39.2637 15.2034C39.7261 16.6792 40.0048 18.269 40.0729 19.7164Z" fill="url(#paint23_linear_740_11389)"/>
<path d="M19.72 1.65283L19.4492 3.65913C18.6369 3.71139 17.8261 3.82857 17.0407 4.00434L16.7589 2.80087C17.0851 2.72962 17.4303 2.60769 18.1983 2.57127L18.2046 3.03207C17.9037 3.03523 17.5411 3.09857 17.3131 3.14449L17.3875 3.46278C17.9307 3.35668 18.4865 3.27751 19.0439 3.23L19.1895 2.14689C18.07 2.22923 16.9236 2.43825 15.7692 2.7692C15.9988 3.27593 16.4786 4.47306 16.686 4.97028L16.2616 5.14763C16.127 4.82301 15.4414 3.07324 15.207 2.462C16.6829 1.99962 18.2727 1.72092 19.72 1.65283Z" fill="url(#paint24_linear_740_11389)"/>
<path d="M22.0098 40.0688L22.2805 38.0625C23.0929 38.0102 23.9036 37.893 24.6891 37.7173L24.9709 38.9207C24.6447 38.992 24.2995 39.1139 23.5315 39.1503L23.5252 38.6895C23.826 38.6864 24.1887 38.623 24.4167 38.5771L24.3423 38.2588C23.7991 38.3649 23.2433 38.4441 22.6859 38.4916L22.5402 39.5747C23.6598 39.4924 24.8062 39.2834 25.9606 38.9524C25.731 38.4457 25.2512 37.2485 25.0438 36.7513L25.4681 36.574C25.6027 36.8986 26.2884 38.6484 26.5228 39.2596C25.0469 39.722 23.4571 40.0007 22.0098 40.0688Z" fill="url(#paint25_linear_740_11389)"/>
<path d="M65.6051 8.12036V18.5937H56.4493V8.12036H52.4668V33.599H56.4493V22.421H65.6051V33.599H69.5861V8.12036H65.6051Z" fill="url(#paint26_linear_740_11389)"/>
<mask id="mask0_740_11389" style="mask-type:luminance" maskUnits="userSpaceOnUse" x="52" y="8" width="18" height="26">
<path d="M65.6051 8.12012V18.5934H56.4493V8.12012H52.4668V33.5987H56.4493V22.4208H65.6051V33.5987H69.5861V8.12012H65.6051Z" fill="white"/>
</mask>
<g mask="url(#mask0_740_11389)">
<path d="M68.1657 3.3974L45.4395 10.2329L53.8877 38.3212L76.614 31.4857L68.1657 3.3974Z" fill="url(#paint27_linear_740_11389)"/>
</g>
<path d="M99.647 14.3978L106.047 19.0834L99.647 24.0445V14.3978ZM95.6961 7.50793L95.666 33.6294H99.647V28.3928L102.801 26.0349L110.09 34.2723L113.061 31.7308L106.017 23.7689L112.54 19.1134L96.6145 7.50635H95.6961V7.50793Z" fill="url(#paint28_linear_740_11389)"/>
<mask id="mask1_740_11389" style="mask-type:luminance" maskUnits="userSpaceOnUse" x="95" y="7" width="19" height="28">
<path d="M99.647 14.3983L106.047 19.0838L99.647 24.045V14.3983ZM95.6961 7.50842L95.666 33.6299H99.647V28.3933L102.801 26.0354L110.09 34.2728L113.061 31.7313L106.017 23.7694L112.54 19.1139L96.6145 7.50684H95.6961V7.50842Z" fill="white"/>
</mask>
<g mask="url(#mask1_740_11389)">
<path d="M111.616 2.70841L88.2812 9.72681L97.1067 39.0691L120.441 32.0507L111.616 2.70841Z" fill="url(#paint29_linear_740_11389)"/>
</g>
<path d="M185.893 14.6827L194.551 26.4735L187.6 31.1924L189.896 34.2739L200 26.8187L191.341 15.0596L198.105 10.4674L195.777 7.41602L185.893 14.6827Z" fill="url(#paint30_linear_740_11389)"/>
<mask id="mask2_740_11389" style="mask-type:luminance" maskUnits="userSpaceOnUse" x="185" y="7" width="15" height="28">
<path d="M185.891 14.6832L194.549 26.474L187.598 31.1928L189.894 34.2743L199.998 26.8192L191.339 15.0601L198.103 10.4679L195.775 7.4165L185.891 14.6832Z" fill="white"/>
</mask>
<g mask="url(#mask2_740_11389)">
<path d="M198.828 3.52216L178.482 9.6416L187.061 38.162L207.406 32.0426L198.828 3.52216Z" fill="url(#paint31_linear_740_11389)"/>
</g>
<path d="M86.1759 7.41602L72.1191 20.708L86.4245 34.22L86.4515 34.2739L86.4673 34.2596L86.4815 34.2739L86.5575 34.1757L92.4355 28.692L89.6612 26.1837L86.7222 28.8456L79.3162 22.4831H88.1363V18.8078H79.3463L86.5005 12.7904L89.468 15.4761L92.16 12.9979L86.1759 7.41602Z" fill="url(#paint32_linear_740_11389)"/>
<mask id="mask3_740_11389" style="mask-type:luminance" maskUnits="userSpaceOnUse" x="72" y="7" width="21" height="28">
<path d="M86.1759 7.4165L72.1191 20.7085L86.4245 34.2205L86.4515 34.2743L86.4673 34.2601L86.4815 34.2743L86.5575 34.1762L92.4355 28.6925L89.6612 26.1842L86.7222 28.8461L79.3162 22.4836H88.1363V18.8082H79.3463L86.5005 12.7909L89.468 15.4765L92.16 12.9984L86.1759 7.4165Z" fill="white"/>
</mask>
<g mask="url(#mask3_740_11389)">
<path d="M90.7505 1.81172L64.7109 9.6438L73.8046 39.8778L99.8442 32.0457L90.7505 1.81172Z" fill="url(#paint33_linear_740_11389)"/>
</g>
<path d="M156.653 29.8033H166.789V33.6005H152.672V8.12036H156.653V29.8033Z" fill="url(#paint34_linear_740_11389)"/>
<mask id="mask4_740_11389" style="mask-type:luminance" maskUnits="userSpaceOnUse" x="152" y="8" width="15" height="26">
<path d="M156.653 29.8031H166.789V33.6003H152.672V8.12012H156.653V29.8031Z" fill="white"/>
</mask>
<g mask="url(#mask4_740_11389)">
<path d="M165.617 4.224L145.643 10.2317L153.842 37.492L173.816 31.4843L165.617 4.224Z" fill="url(#paint35_linear_740_11389)"/>
</g>
<path d="M144.975 8.12012H148.956V33.6003H132.879V8.12012H136.86V29.8031H144.975V8.12012Z" fill="url(#paint36_linear_740_11389)"/>
<mask id="mask5_740_11389" style="mask-type:luminance" maskUnits="userSpaceOnUse" x="132" y="8" width="17" height="26">
<path d="M144.975 8.11987H148.956V33.6001H132.879V8.11987H136.86V29.8028H144.975V8.11987Z" fill="white"/>
</mask>
<g mask="url(#mask5_740_11389)">
<path d="M147.624 3.68185L125.852 10.2305L134.213 38.0306L155.986 31.482L147.624 3.68185Z" fill="url(#paint37_linear_740_11389)"/>
</g>
<path d="M163.303 20.7393L177.607 34.2498L177.635 34.3052L177.651 34.291L177.667 34.3052L177.741 34.2071L183.619 28.7234L180.829 26.2832L177.934 28.9023L170.5 22.516H179.32V18.8407H170.531L177.534 12.9485L180.538 15.6705L183.344 13.0292L177.36 7.44897L163.303 20.7393Z" fill="url(#paint38_linear_740_11389)"/>
<mask id="mask6_740_11389" style="mask-type:luminance" maskUnits="userSpaceOnUse" x="163" y="7" width="21" height="28">
<path d="M163.303 20.7398L177.607 34.2503L177.635 34.3057L177.651 34.2915L177.667 34.3057L177.741 34.2075L183.619 28.7239L180.829 26.2837L177.934 28.9028L170.5 22.5165H179.32V18.8412H170.531L177.534 12.949L180.538 15.671L183.344 13.0297L177.36 7.44946L163.303 20.7398Z" fill="white"/>
</mask>
<g mask="url(#mask6_740_11389)">
<path d="M181.931 1.84196L155.893 9.67358L164.986 39.906L191.024 32.0744L181.931 1.84196Z" fill="url(#paint39_linear_740_11389)"/>
</g>
<path d="M113.26 20.7077L127.469 34.2736L130.379 31.0892L118.865 20.6761L130.257 10.6303L127.317 7.47754L113.26 20.7077Z" fill="url(#paint40_linear_740_11389)"/>
<mask id="mask7_740_11389" style="mask-type:luminance" maskUnits="userSpaceOnUse" x="113" y="7" width="18" height="28">
<path d="M113.26 20.7082L127.469 34.2741L130.379 31.0897L118.865 20.6765L130.257 10.6308L127.317 7.47803L113.26 20.7082Z" fill="white"/>
</mask>
<g mask="url(#mask7_740_11389)">
<path d="M128.958 2.75275L105.869 9.69727L114.68 38.9926L137.769 32.0481L128.958 2.75275Z" fill="url(#paint41_linear_740_11389)"/>
</g>
<defs>
<linearGradient id="paint0_linear_740_11389" x1="22.2807" y1="-3.46627" x2="22.2807" y2="46.5519" gradientUnits="userSpaceOnUse">
<stop stop-color="#E9D094"/>
<stop offset="0.34" stop-color="#FFD670"/>
<stop offset="0.66" stop-color="#BC5C2C"/>
<stop offset="1" stop-color="#DFAA4C"/>
</linearGradient>
<linearGradient id="paint1_linear_740_11389" x1="24.0676" y1="-3.46607" x2="24.0676" y2="46.5521" gradientUnits="userSpaceOnUse">
<stop stop-color="#E9D094"/>
<stop offset="0.34" stop-color="#FFD670"/>
<stop offset="0.66" stop-color="#BC5C2C"/>
<stop offset="1" stop-color="#DFAA4C"/>
</linearGradient>
<linearGradient id="paint2_linear_740_11389" x1="18.6606" y1="-3.46629" x2="18.6606" y2="46.5519" gradientUnits="userSpaceOnUse">
<stop stop-color="#E9D094"/>
<stop offset="0.34" stop-color="#FFD670"/>
<stop offset="0.66" stop-color="#BC5C2C"/>
<stop offset="1" stop-color="#DFAA4C"/>
</linearGradient>
<linearGradient id="paint3_linear_740_11389" x1="27.3372" y1="-3.46619" x2="27.3372" y2="46.552" gradientUnits="userSpaceOnUse">
<stop stop-color="#E9D094"/>
<stop offset="0.34" stop-color="#FFD670"/>
<stop offset="0.66" stop-color="#BC5C2C"/>
<stop offset="1" stop-color="#DFAA4C"/>
</linearGradient>
<linearGradient id="paint4_linear_740_11389" x1="22.8132" y1="-2.5921" x2="22.8132" y2="45.7317" gradientUnits="userSpaceOnUse">
<stop stop-color="#E9D094"/>
<stop offset="0.34" stop-color="#FFD670"/>
<stop offset="0.66" stop-color="#BC5C2C"/>
<stop offset="1" stop-color="#DFAA4C"/>
</linearGradient>
<linearGradient id="paint5_linear_740_11389" x1="17.3697" y1="-3.46637" x2="17.3697" y2="46.5518" gradientUnits="userSpaceOnUse">
<stop stop-color="#E9D094"/>
<stop offset="0.34" stop-color="#FFD670"/>
<stop offset="0.66" stop-color="#BC5C2C"/>
<stop offset="1" stop-color="#DFAA4C"/>
</linearGradient>
<linearGradient id="paint6_linear_740_11389" x1="13.1839" y1="-3.46624" x2="13.1839" y2="46.5519" gradientUnits="userSpaceOnUse">
<stop stop-color="#E9D094"/>
<stop offset="0.34" stop-color="#FFD670"/>
<stop offset="0.66" stop-color="#BC5C2C"/>
<stop offset="1" stop-color="#DFAA4C"/>
</linearGradient>
<linearGradient id="paint7_linear_740_11389" x1="19.8984" y1="-3.46622" x2="19.8984" y2="46.552" gradientUnits="userSpaceOnUse">
<stop stop-color="#E9D094"/>
<stop offset="0.34" stop-color="#FFD670"/>
<stop offset="0.66" stop-color="#BC5C2C"/>
<stop offset="1" stop-color="#DFAA4C"/>
</linearGradient>
<linearGradient id="paint8_linear_740_11389" x1="25.4771" y1="-0.536697" x2="15.7997" y2="44.3747" gradientUnits="userSpaceOnUse">
<stop stop-color="#E9D094"/>
<stop offset="0.34" stop-color="#FFD670"/>
<stop offset="0.66" stop-color="#BC5C2C"/>
<stop offset="1" stop-color="#DFAA4C"/>
</linearGradient>
<linearGradient id="paint9_linear_740_11389" x1="25.4768" y1="-0.536791" x2="15.7994" y2="44.3747" gradientUnits="userSpaceOnUse">
<stop stop-color="#E9D094"/>
<stop offset="0.34" stop-color="#FFD670"/>
<stop offset="0.66" stop-color="#BC5C2C"/>
<stop offset="1" stop-color="#DFAA4C"/>
</linearGradient>
<linearGradient id="paint10_linear_740_11389" x1="25.4791" y1="-0.537083" x2="15.8017" y2="44.3743" gradientUnits="userSpaceOnUse">
<stop stop-color="#E9D094"/>
<stop offset="0.34" stop-color="#FFD670"/>
<stop offset="0.66" stop-color="#BC5C2C"/>
<stop offset="1" stop-color="#DFAA4C"/>
</linearGradient>
<linearGradient id="paint11_linear_740_11389" x1="25.4799" y1="-0.537117" x2="15.8026" y2="44.3743" gradientUnits="userSpaceOnUse">
<stop stop-color="#E9D094"/>
<stop offset="0.34" stop-color="#FFD670"/>
<stop offset="0.66" stop-color="#BC5C2C"/>
<stop offset="1" stop-color="#DFAA4C"/>
</linearGradient>
<linearGradient id="paint12_linear_740_11389" x1="8.10807" y1="-4.27998" x2="-1.56931" y2="40.6315" gradientUnits="userSpaceOnUse">
<stop stop-color="#E9D094"/>
<stop offset="0.34" stop-color="#FFD670"/>
<stop offset="0.66" stop-color="#BC5C2C"/>
<stop offset="1" stop-color="#DFAA4C"/>
</linearGradient>
<linearGradient id="paint13_linear_740_11389" x1="42.8455" y1="3.20518" x2="33.1681" y2="48.1166" gradientUnits="userSpaceOnUse">
<stop stop-color="#E9D094"/>
<stop offset="0.34" stop-color="#FFD670"/>
<stop offset="0.66" stop-color="#BC5C2C"/>
<stop offset="1" stop-color="#DFAA4C"/>
</linearGradient>
<linearGradient id="paint14_linear_740_11389" x1="13.0529" y1="-3.21413" x2="3.37553" y2="41.6973" gradientUnits="userSpaceOnUse">
<stop stop-color="#E9D094"/>
<stop offset="0.34" stop-color="#FFD670"/>
<stop offset="0.66" stop-color="#BC5C2C"/>
<stop offset="1" stop-color="#DFAA4C"/>
</linearGradient>
<linearGradient id="paint15_linear_740_11389" x1="37.9025" y1="2.14026" x2="28.2252" y2="47.0517" gradientUnits="userSpaceOnUse">
<stop stop-color="#E9D094"/>
<stop offset="0.34" stop-color="#FFD670"/>
<stop offset="0.66" stop-color="#BC5C2C"/>
<stop offset="1" stop-color="#DFAA4C"/>
</linearGradient>
<linearGradient id="paint16_linear_740_11389" x1="12.7193" y1="-3.28615" x2="3.0419" y2="41.6253" gradientUnits="userSpaceOnUse">
<stop stop-color="#E9D094"/>
<stop offset="0.34" stop-color="#FFD670"/>
<stop offset="0.66" stop-color="#BC5C2C"/>
<stop offset="1" stop-color="#DFAA4C"/>
</linearGradient>
<linearGradient id="paint17_linear_740_11389" x1="38.235" y1="2.21177" x2="28.5576" y2="47.1232" gradientUnits="userSpaceOnUse">
<stop stop-color="#E9D094"/>
<stop offset="0.34" stop-color="#FFD670"/>
<stop offset="0.66" stop-color="#BC5C2C"/>
<stop offset="1" stop-color="#DFAA4C"/>
</linearGradient>
<linearGradient id="paint18_linear_740_11389" x1="18.5852" y1="-2.0232" x2="8.9078" y2="42.8882" gradientUnits="userSpaceOnUse">
<stop stop-color="#E9D094"/>
<stop offset="0.34" stop-color="#FFD670"/>
<stop offset="0.66" stop-color="#BC5C2C"/>
<stop offset="1" stop-color="#DFAA4C"/>
</linearGradient>
<linearGradient id="paint19_linear_740_11389" x1="32.3758" y1="0.948401" x2="22.6985" y2="45.8598" gradientUnits="userSpaceOnUse">
<stop stop-color="#E9D094"/>
<stop offset="0.34" stop-color="#FFD670"/>
<stop offset="0.66" stop-color="#BC5C2C"/>
<stop offset="1" stop-color="#DFAA4C"/>
</linearGradient>
<linearGradient id="paint20_linear_740_11389" x1="8.98499" y1="-4.09101" x2="-0.692397" y2="40.8204" gradientUnits="userSpaceOnUse">
<stop stop-color="#E9D094"/>
<stop offset="0.34" stop-color="#FFD670"/>
<stop offset="0.66" stop-color="#BC5C2C"/>
<stop offset="1" stop-color="#DFAA4C"/>
</linearGradient>
<linearGradient id="paint21_linear_740_11389" x1="41.9748" y1="3.01753" x2="32.2974" y2="47.929" gradientUnits="userSpaceOnUse">
<stop stop-color="#E9D094"/>
<stop offset="0.34" stop-color="#FFD670"/>
<stop offset="0.66" stop-color="#BC5C2C"/>
<stop offset="1" stop-color="#DFAA4C"/>
</linearGradient>
<linearGradient id="paint22_linear_740_11389" x1="9.3873" y1="-4.00468" x2="-0.290086" y2="40.9068" gradientUnits="userSpaceOnUse">
<stop stop-color="#E9D094"/>
<stop offset="0.34" stop-color="#FFD670"/>
<stop offset="0.66" stop-color="#BC5C2C"/>
<stop offset="1" stop-color="#DFAA4C"/>
</linearGradient>
<linearGradient id="paint23_linear_740_11389" x1="41.5736" y1="2.9309" x2="31.8962" y2="47.8423" gradientUnits="userSpaceOnUse">
<stop stop-color="#E9D094"/>
<stop offset="0.34" stop-color="#FFD670"/>
<stop offset="0.66" stop-color="#BC5C2C"/>
<stop offset="1" stop-color="#DFAA4C"/>
</linearGradient>
<linearGradient id="paint24_linear_740_11389" x1="18.4344" y1="-2.05554" x2="8.75698" y2="42.8559" gradientUnits="userSpaceOnUse">
<stop stop-color="#E9D094"/>
<stop offset="0.34" stop-color="#FFD670"/>
<stop offset="0.66" stop-color="#BC5C2C"/>
<stop offset="1" stop-color="#DFAA4C"/>
</linearGradient>
<linearGradient id="paint25_linear_740_11389" x1="32.5256" y1="0.980903" x2="22.8482" y2="45.8923" gradientUnits="userSpaceOnUse">
<stop stop-color="#E9D094"/>
<stop offset="0.34" stop-color="#FFD670"/>
<stop offset="0.66" stop-color="#BC5C2C"/>
<stop offset="1" stop-color="#DFAA4C"/>
</linearGradient>
<linearGradient id="paint26_linear_740_11389" x1="61.0272" y1="1.79901" x2="61.0272" y2="41.2045" gradientUnits="userSpaceOnUse">
<stop stop-color="#E9D094"/>
<stop offset="0.34" stop-color="#FFD670"/>
<stop offset="0.66" stop-color="#BC5C2C"/>
<stop offset="1" stop-color="#DFAA4C"/>
</linearGradient>
<linearGradient id="paint27_linear_740_11389" x1="61.0267" y1="1.79846" x2="61.0267" y2="41.204" gradientUnits="userSpaceOnUse">
<stop stop-color="#E9D094"/>
<stop offset="0.34" stop-color="#FFD670"/>
<stop offset="0.66" stop-color="#BC5C2C"/>
<stop offset="1" stop-color="#DFAA4C"/>
</linearGradient>
<linearGradient id="paint28_linear_740_11389" x1="104.363" y1="1.79939" x2="104.363" y2="41.2049" gradientUnits="userSpaceOnUse">
<stop stop-color="#E9D094"/>
<stop offset="0.34" stop-color="#FFD670"/>
<stop offset="0.66" stop-color="#BC5C2C"/>
<stop offset="1" stop-color="#DFAA4C"/>
</linearGradient>
<linearGradient id="paint29_linear_740_11389" x1="104.36" y1="1.79953" x2="104.36" y2="41.2051" gradientUnits="userSpaceOnUse">
<stop stop-color="#E9D094"/>
<stop offset="0.34" stop-color="#FFD670"/>
<stop offset="0.66" stop-color="#BC5C2C"/>
<stop offset="1" stop-color="#DFAA4C"/>
</linearGradient>
<linearGradient id="paint30_linear_740_11389" x1="192.947" y1="1.26568" x2="192.947" y2="41.7417" gradientUnits="userSpaceOnUse">
<stop stop-color="#E9D094"/>
<stop offset="0.34" stop-color="#FFD670"/>
<stop offset="0.66" stop-color="#BC5C2C"/>
<stop offset="1" stop-color="#DFAA4C"/>
</linearGradient>
<linearGradient id="paint31_linear_740_11389" x1="192.944" y1="1.26684" x2="192.944" y2="41.7428" gradientUnits="userSpaceOnUse">
<stop stop-color="#E9D094"/>
<stop offset="0.34" stop-color="#FFD670"/>
<stop offset="0.66" stop-color="#BC5C2C"/>
<stop offset="1" stop-color="#DFAA4C"/>
</linearGradient>
<linearGradient id="paint32_linear_740_11389" x1="82.2773" y1="1.79932" x2="82.2773" y2="41.2049" gradientUnits="userSpaceOnUse">
<stop stop-color="#E9D094"/>
<stop offset="0.34" stop-color="#FFD670"/>
<stop offset="0.66" stop-color="#BC5C2C"/>
<stop offset="1" stop-color="#DFAA4C"/>
</linearGradient>
<linearGradient id="paint33_linear_740_11389" x1="82.2771" y1="1.81253" x2="82.2771" y2="41.2196" gradientUnits="userSpaceOnUse">
<stop stop-color="#E9D094"/>
<stop offset="0.34" stop-color="#FFD670"/>
<stop offset="0.66" stop-color="#BC5C2C"/>
<stop offset="1" stop-color="#DFAA4C"/>
</linearGradient>
<linearGradient id="paint34_linear_740_11389" x1="159.73" y1="1.79901" x2="159.73" y2="41.2045" gradientUnits="userSpaceOnUse">
<stop stop-color="#E9D094"/>
<stop offset="0.34" stop-color="#FFD670"/>
<stop offset="0.66" stop-color="#BC5C2C"/>
<stop offset="1" stop-color="#DFAA4C"/>
</linearGradient>
<linearGradient id="paint35_linear_740_11389" x1="159.727" y1="1.79981" x2="159.727" y2="41.2053" gradientUnits="userSpaceOnUse">
<stop stop-color="#E9D094"/>
<stop offset="0.34" stop-color="#FFD670"/>
<stop offset="0.66" stop-color="#BC5C2C"/>
<stop offset="1" stop-color="#DFAA4C"/>
</linearGradient>
<linearGradient id="paint36_linear_740_11389" x1="140.918" y1="1.79876" x2="140.918" y2="41.2043" gradientUnits="userSpaceOnUse">
<stop stop-color="#E9D094"/>
<stop offset="0.34" stop-color="#FFD670"/>
<stop offset="0.66" stop-color="#BC5C2C"/>
<stop offset="1" stop-color="#DFAA4C"/>
</linearGradient>
<linearGradient id="paint37_linear_740_11389" x1="140.919" y1="1.79922" x2="140.919" y2="41.2047" gradientUnits="userSpaceOnUse">
<stop stop-color="#E9D094"/>
<stop offset="0.34" stop-color="#FFD670"/>
<stop offset="0.66" stop-color="#BC5C2C"/>
<stop offset="1" stop-color="#DFAA4C"/>
</linearGradient>
<linearGradient id="paint38_linear_740_11389" x1="173.461" y1="1.8307" x2="173.461" y2="41.2362" gradientUnits="userSpaceOnUse">
<stop stop-color="#E9D094"/>
<stop offset="0.34" stop-color="#FFD670"/>
<stop offset="0.66" stop-color="#BC5C2C"/>
<stop offset="1" stop-color="#DFAA4C"/>
</linearGradient>
<linearGradient id="paint39_linear_740_11389" x1="173.459" y1="1.84457" x2="173.459" y2="41.2501" gradientUnits="userSpaceOnUse">
<stop stop-color="#E9D094"/>
<stop offset="0.34" stop-color="#FFD670"/>
<stop offset="0.66" stop-color="#BC5C2C"/>
<stop offset="1" stop-color="#DFAA4C"/>
</linearGradient>
<linearGradient id="paint40_linear_740_11389" x1="121.82" y1="1.79909" x2="121.82" y2="41.2046" gradientUnits="userSpaceOnUse">
<stop stop-color="#E9D094"/>
<stop offset="0.34" stop-color="#FFD670"/>
<stop offset="0.66" stop-color="#BC5C2C"/>
<stop offset="1" stop-color="#DFAA4C"/>
</linearGradient>
<linearGradient id="paint41_linear_740_11389" x1="121.82" y1="1.79918" x2="121.82" y2="41.2047" gradientUnits="userSpaceOnUse">
<stop stop-color="#E9D094"/>
<stop offset="0.34" stop-color="#FFD670"/>
<stop offset="0.66" stop-color="#BC5C2C"/>
<stop offset="1" stop-color="#DFAA4C"/>
</linearGradient>
</defs>
</svg>
