<svg width="695" height="274" viewBox="0 0 695 274" fill="none" xmlns="http://www.w3.org/2000/svg">
<g clip-path="url(#clip0_332_16449)">
<rect width="695" height="274" fill="#1B1B1B"/>
<line x1="16" y1="248" x2="35" y2="248" stroke="#D8DADC" stroke-width="2"/>
<path d="M49.644 246.944H49.584L48.876 248.348L46.872 251.996L44.868 248.348L44.16 246.944H44.1V254H43.116V245.624H44.46L46.86 250.136H46.92L49.332 245.624H50.628V254H49.644V246.944ZM57.2583 254C56.8983 254 56.6383 253.904 56.4783 253.712C56.3263 253.52 56.2303 253.28 56.1903 252.992H56.1303C55.9943 253.376 55.7703 253.664 55.4583 253.856C55.1463 254.048 54.7743 254.144 54.3423 254.144C53.6863 254.144 53.1743 253.976 52.8063 253.64C52.4463 253.304 52.2663 252.848 52.2663 252.272C52.2663 251.688 52.4783 251.24 52.9023 250.928C53.3343 250.616 54.0023 250.46 54.9063 250.46H56.1303V249.848C56.1303 249.408 56.0103 249.072 55.7703 248.84C55.5303 248.608 55.1623 248.492 54.6663 248.492C54.2903 248.492 53.9743 248.576 53.7183 248.744C53.4703 248.912 53.2623 249.136 53.0943 249.416L52.5183 248.876C52.6863 248.54 52.9543 248.256 53.3223 248.024C53.6903 247.784 54.1543 247.664 54.7143 247.664C55.4663 247.664 56.0503 247.848 56.4663 248.216C56.8823 248.584 57.0903 249.096 57.0903 249.752V253.16H57.7983V254H57.2583ZM54.4983 253.328C54.7383 253.328 54.9583 253.3 55.1583 253.244C55.3583 253.188 55.5303 253.108 55.6743 253.004C55.8183 252.9 55.9303 252.78 56.0103 252.644C56.0903 252.508 56.1303 252.36 56.1303 252.2V251.18H54.8583C54.3063 251.18 53.9023 251.26 53.6463 251.42C53.3983 251.58 53.2743 251.812 53.2743 252.116V252.368C53.2743 252.672 53.3823 252.908 53.5983 253.076C53.8223 253.244 54.1223 253.328 54.4983 253.328ZM59.1684 254V247.808H60.1284V248.948H60.1884C60.3004 248.652 60.5004 248.388 60.7884 248.156C61.0764 247.924 61.4724 247.808 61.9764 247.808H62.3484V248.768H61.7844C61.2644 248.768 60.8564 248.868 60.5604 249.068C60.2724 249.26 60.1284 249.504 60.1284 249.8V254H59.1684ZM63.5747 245.12H64.5347V250.748H64.5827L65.5307 249.692L67.2827 247.808H68.4467L66.1547 250.256L68.6747 254H67.5107L65.4587 250.844L64.5347 251.792V254H63.5747V245.12ZM72.0316 254.144C71.6076 254.144 71.2236 254.068 70.8796 253.916C70.5436 253.764 70.2516 253.548 70.0036 253.268C69.7636 252.98 69.5756 252.64 69.4396 252.248C69.3116 251.848 69.2476 251.4 69.2476 250.904C69.2476 250.416 69.3116 249.972 69.4396 249.572C69.5756 249.172 69.7636 248.832 70.0036 248.552C70.2516 248.264 70.5436 248.044 70.8796 247.892C71.2236 247.74 71.6076 247.664 72.0316 247.664C72.4476 247.664 72.8196 247.74 73.1476 247.892C73.4756 248.044 73.7556 248.256 73.9876 248.528C74.2196 248.792 74.3956 249.108 74.5156 249.476C74.6436 249.844 74.7076 250.248 74.7076 250.688V251.144H70.2556V251.432C70.2556 251.696 70.2956 251.944 70.3756 252.176C70.4636 252.4 70.5836 252.596 70.7356 252.764C70.8956 252.932 71.0876 253.064 71.3116 253.16C71.5436 253.256 71.8036 253.304 72.0916 253.304C72.4836 253.304 72.8236 253.212 73.1116 253.028C73.4076 252.844 73.6356 252.58 73.7956 252.236L74.4796 252.728C74.2796 253.152 73.9676 253.496 73.5436 253.76C73.1196 254.016 72.6156 254.144 72.0316 254.144ZM72.0316 248.468C71.7676 248.468 71.5276 248.516 71.3116 248.612C71.0956 248.7 70.9076 248.828 70.7476 248.996C70.5956 249.164 70.4756 249.364 70.3876 249.596C70.2996 249.82 70.2556 250.068 70.2556 250.34V250.424H73.6756V250.292C73.6756 249.74 73.5236 249.3 73.2196 248.972C72.9236 248.636 72.5276 248.468 72.0316 248.468ZM77.6575 254C77.3215 254 77.0655 253.908 76.8895 253.724C76.7215 253.532 76.6375 253.284 76.6375 252.98V248.648H75.6175V247.808H76.1935C76.4015 247.808 76.5415 247.768 76.6135 247.688C76.6935 247.6 76.7335 247.452 76.7335 247.244V246.092H77.5975V247.808H78.9535V248.648H77.5975V253.16H78.8575V254H77.6575ZM83.4285 254V245.624H86.7645C87.5165 245.624 88.0925 245.84 88.4925 246.272C88.9005 246.696 89.1045 247.28 89.1045 248.024C89.1045 248.768 88.9005 249.356 88.4925 249.788C88.0925 250.212 87.5165 250.424 86.7645 250.424H84.4365V254H83.4285ZM84.4365 249.536H86.7645C87.1645 249.536 87.4725 249.432 87.6885 249.224C87.9125 249.016 88.0245 248.72 88.0245 248.336V247.712C88.0245 247.328 87.9125 247.032 87.6885 246.824C87.4725 246.616 87.1645 246.512 86.7645 246.512H84.4365V249.536ZM90.4927 254V247.808H91.4527V248.948H91.5127C91.6247 248.652 91.8247 248.388 92.1127 248.156C92.4007 247.924 92.7967 247.808 93.3007 247.808H93.6727V248.768H93.1087C92.5887 248.768 92.1807 248.868 91.8847 249.068C91.5967 249.26 91.4527 249.504 91.4527 249.8V254H90.4927ZM95.3789 246.356C95.1709 246.356 95.0189 246.308 94.9229 246.212C94.8349 246.108 94.7909 245.976 94.7909 245.816V245.66C94.7909 245.5 94.8349 245.372 94.9229 245.276C95.0189 245.172 95.1709 245.12 95.3789 245.12C95.5869 245.12 95.7349 245.172 95.8229 245.276C95.9189 245.372 95.9669 245.5 95.9669 245.66V245.816C95.9669 245.976 95.9189 246.108 95.8229 246.212C95.7349 246.308 95.5869 246.356 95.3789 246.356ZM94.8989 247.808H95.8589V254H94.8989V247.808ZM100.203 254.144C99.7709 254.144 99.3829 254.068 99.0389 253.916C98.6949 253.764 98.4029 253.548 98.1629 253.268C97.9309 252.988 97.7509 252.648 97.6229 252.248C97.5029 251.848 97.4429 251.4 97.4429 250.904C97.4429 250.408 97.5029 249.96 97.6229 249.56C97.7509 249.16 97.9309 248.82 98.1629 248.54C98.4029 248.26 98.6949 248.044 99.0389 247.892C99.3829 247.74 99.7709 247.664 100.203 247.664C100.819 247.664 101.311 247.8 101.679 248.072C102.055 248.336 102.335 248.684 102.519 249.116L101.715 249.524C101.603 249.204 101.419 248.956 101.163 248.78C100.907 248.604 100.587 248.516 100.203 248.516C99.9149 248.516 99.6629 248.564 99.4469 248.66C99.2309 248.748 99.0509 248.876 98.9069 249.044C98.7629 249.204 98.6549 249.4 98.5829 249.632C98.5109 249.856 98.4749 250.104 98.4749 250.376V251.432C98.4749 251.976 98.6189 252.424 98.9069 252.776C99.2029 253.12 99.6349 253.292 100.203 253.292C100.979 253.292 101.539 252.932 101.883 252.212L102.579 252.68C102.379 253.128 102.079 253.484 101.679 253.748C101.287 254.012 100.795 254.144 100.203 254.144ZM106.192 254.144C105.768 254.144 105.384 254.068 105.04 253.916C104.704 253.764 104.412 253.548 104.164 253.268C103.924 252.98 103.736 252.64 103.6 252.248C103.472 251.848 103.408 251.4 103.408 250.904C103.408 250.416 103.472 249.972 103.6 249.572C103.736 249.172 103.924 248.832 104.164 248.552C104.412 248.264 104.704 248.044 105.04 247.892C105.384 247.74 105.768 247.664 106.192 247.664C106.608 247.664 106.98 247.74 107.308 247.892C107.636 248.044 107.916 248.256 108.148 248.528C108.38 248.792 108.556 249.108 108.676 249.476C108.804 249.844 108.868 250.248 108.868 250.688V251.144H104.416V251.432C104.416 251.696 104.456 251.944 104.536 252.176C104.624 252.4 104.744 252.596 104.896 252.764C105.056 252.932 105.248 253.064 105.472 253.16C105.704 253.256 105.964 253.304 106.252 253.304C106.644 253.304 106.984 253.212 107.272 253.028C107.568 252.844 107.796 252.58 107.956 252.236L108.64 252.728C108.44 253.152 108.128 253.496 107.704 253.76C107.28 254.016 106.776 254.144 106.192 254.144ZM106.192 248.468C105.928 248.468 105.688 248.516 105.472 248.612C105.256 248.7 105.068 248.828 104.908 248.996C104.756 249.164 104.636 249.364 104.548 249.596C104.46 249.82 104.416 250.068 104.416 250.34V250.424H107.836V250.292C107.836 249.74 107.684 249.3 107.38 248.972C107.084 248.636 106.688 248.468 106.192 248.468Z" fill="#D8DADC"/>
<line x1="122" y1="248" x2="141" y2="248" stroke="#A6A6A6" stroke-width="2" stroke-dasharray="2 2"/>
<path d="M151.468 254.144C150.788 254.144 150.208 254.016 149.728 253.76C149.248 253.496 148.84 253.136 148.504 252.68L149.248 252.056C149.544 252.448 149.872 252.748 150.232 252.956C150.592 253.156 151.016 253.256 151.504 253.256C152.104 253.256 152.56 253.112 152.872 252.824C153.192 252.536 153.352 252.152 153.352 251.672C153.352 251.272 153.232 250.964 152.992 250.748C152.752 250.532 152.356 250.36 151.804 250.232L151.12 250.076C150.352 249.9 149.764 249.636 149.356 249.284C148.956 248.924 148.756 248.42 148.756 247.772C148.756 247.404 148.824 247.076 148.96 246.788C149.096 246.5 149.284 246.26 149.524 246.068C149.772 245.876 150.064 245.732 150.4 245.636C150.744 245.532 151.12 245.48 151.528 245.48C152.16 245.48 152.7 245.596 153.148 245.828C153.604 246.06 153.988 246.4 154.3 246.848L153.544 247.4C153.312 247.08 153.032 246.828 152.704 246.644C152.376 246.46 151.968 246.368 151.48 246.368C150.944 246.368 150.52 246.484 150.208 246.716C149.904 246.94 149.752 247.28 149.752 247.736C149.752 248.136 149.88 248.44 150.136 248.648C150.4 248.848 150.796 249.008 151.324 249.128L152.008 249.284C152.832 249.468 153.428 249.748 153.796 250.124C154.164 250.5 154.348 251 154.348 251.624C154.348 252.008 154.28 252.356 154.144 252.668C154.016 252.98 153.828 253.244 153.58 253.46C153.332 253.676 153.028 253.844 152.668 253.964C152.316 254.084 151.916 254.144 151.468 254.144ZM157.361 254C157.025 254 156.769 253.908 156.593 253.724C156.425 253.532 156.341 253.284 156.341 252.98V248.648H155.321V247.808H155.897C156.105 247.808 156.245 247.768 156.317 247.688C156.397 247.6 156.437 247.452 156.437 247.244V246.092H157.301V247.808H158.657V248.648H157.301V253.16H158.561V254H157.361ZM160.2 254V247.808H161.16V248.948H161.22C161.332 248.652 161.532 248.388 161.82 248.156C162.108 247.924 162.504 247.808 163.008 247.808H163.38V248.768H162.816C162.296 248.768 161.888 248.868 161.592 249.068C161.304 249.26 161.16 249.504 161.16 249.8V254H160.2ZM169.059 254C168.699 254 168.439 253.904 168.279 253.712C168.127 253.52 168.031 253.28 167.991 252.992H167.931C167.795 253.376 167.571 253.664 167.259 253.856C166.947 254.048 166.575 254.144 166.143 254.144C165.487 254.144 164.975 253.976 164.607 253.64C164.247 253.304 164.067 252.848 164.067 252.272C164.067 251.688 164.279 251.24 164.703 250.928C165.135 250.616 165.803 250.46 166.707 250.46H167.931V249.848C167.931 249.408 167.811 249.072 167.571 248.84C167.331 248.608 166.963 248.492 166.467 248.492C166.091 248.492 165.775 248.576 165.519 248.744C165.271 248.912 165.063 249.136 164.895 249.416L164.319 248.876C164.487 248.54 164.755 248.256 165.123 248.024C165.491 247.784 165.955 247.664 166.515 247.664C167.267 247.664 167.851 247.848 168.267 248.216C168.683 248.584 168.891 249.096 168.891 249.752V253.16H169.599V254H169.059ZM166.299 253.328C166.539 253.328 166.759 253.3 166.959 253.244C167.159 253.188 167.331 253.108 167.475 253.004C167.619 252.9 167.731 252.78 167.811 252.644C167.891 252.508 167.931 252.36 167.931 252.2V251.18H166.659C166.107 251.18 165.703 251.26 165.447 251.42C165.199 251.58 165.075 251.812 165.075 252.116V252.368C165.075 252.672 165.183 252.908 165.399 253.076C165.623 253.244 165.923 253.328 166.299 253.328ZM172.337 254C172.001 254 171.745 253.908 171.569 253.724C171.401 253.532 171.317 253.284 171.317 252.98V248.648H170.297V247.808H170.873C171.081 247.808 171.221 247.768 171.293 247.688C171.373 247.6 171.413 247.452 171.413 247.244V246.092H172.277V247.808H173.633V248.648H172.277V253.16H173.537V254H172.337ZM177.457 254.144C177.033 254.144 176.649 254.068 176.305 253.916C175.969 253.764 175.677 253.548 175.429 253.268C175.189 252.98 175.001 252.64 174.865 252.248C174.737 251.848 174.673 251.4 174.673 250.904C174.673 250.416 174.737 249.972 174.865 249.572C175.001 249.172 175.189 248.832 175.429 248.552C175.677 248.264 175.969 248.044 176.305 247.892C176.649 247.74 177.033 247.664 177.457 247.664C177.873 247.664 178.245 247.74 178.573 247.892C178.901 248.044 179.181 248.256 179.413 248.528C179.645 248.792 179.821 249.108 179.941 249.476C180.069 249.844 180.133 250.248 180.133 250.688V251.144H175.681V251.432C175.681 251.696 175.721 251.944 175.801 252.176C175.889 252.4 176.009 252.596 176.161 252.764C176.321 252.932 176.513 253.064 176.737 253.16C176.969 253.256 177.229 253.304 177.517 253.304C177.909 253.304 178.249 253.212 178.537 253.028C178.833 252.844 179.061 252.58 179.221 252.236L179.905 252.728C179.705 253.152 179.393 253.496 178.969 253.76C178.545 254.016 178.041 254.144 177.457 254.144ZM177.457 248.468C177.193 248.468 176.953 248.516 176.737 248.612C176.521 248.7 176.333 248.828 176.173 248.996C176.021 249.164 175.901 249.364 175.813 249.596C175.725 249.82 175.681 250.068 175.681 250.34V250.424H179.101V250.292C179.101 249.74 178.949 249.3 178.645 248.972C178.349 248.636 177.953 248.468 177.457 248.468ZM186.935 254.684C186.935 255.324 186.683 255.792 186.179 256.088C185.683 256.392 184.935 256.544 183.935 256.544C182.967 256.544 182.271 256.412 181.847 256.148C181.423 255.884 181.211 255.508 181.211 255.02C181.211 254.684 181.299 254.42 181.475 254.228C181.651 254.044 181.891 253.908 182.195 253.82V253.688C181.827 253.512 181.643 253.224 181.643 252.824C181.643 252.512 181.743 252.276 181.943 252.116C182.143 251.948 182.399 251.824 182.711 251.744V251.696C182.343 251.52 182.055 251.268 181.847 250.94C181.647 250.612 181.547 250.232 181.547 249.8C181.547 249.488 181.603 249.2 181.715 248.936C181.827 248.672 181.983 248.448 182.183 248.264C182.391 248.072 182.635 247.924 182.915 247.82C183.203 247.716 183.523 247.664 183.875 247.664C184.315 247.664 184.707 247.744 185.051 247.904V247.796C185.051 247.556 185.107 247.36 185.219 247.208C185.331 247.048 185.515 246.968 185.771 246.968H186.695V247.808H185.519V248.204C185.743 248.396 185.915 248.628 186.035 248.9C186.163 249.164 186.227 249.464 186.227 249.8C186.227 250.112 186.171 250.4 186.059 250.664C185.947 250.928 185.787 251.156 185.579 251.348C185.379 251.532 185.135 251.676 184.847 251.78C184.559 251.884 184.239 251.936 183.887 251.936C183.687 251.936 183.487 251.916 183.287 251.876C183.079 251.932 182.891 252.016 182.723 252.128C182.555 252.232 182.471 252.38 182.471 252.572C182.471 252.756 182.559 252.88 182.735 252.944C182.911 253.008 183.139 253.04 183.419 253.04H184.739C185.507 253.04 186.063 253.188 186.407 253.484C186.759 253.772 186.935 254.172 186.935 254.684ZM186.035 254.756C186.035 254.508 185.939 254.308 185.747 254.156C185.563 254.012 185.231 253.94 184.751 253.94H182.687C182.303 254.116 182.111 254.396 182.111 254.78C182.111 255.052 182.211 255.284 182.411 255.476C182.619 255.668 182.967 255.764 183.455 255.764H184.343C184.879 255.764 185.295 255.68 185.591 255.512C185.887 255.344 186.035 255.092 186.035 254.756ZM183.887 251.168C184.295 251.168 184.619 251.072 184.859 250.88C185.099 250.68 185.219 250.376 185.219 249.968V249.632C185.219 249.224 185.099 248.924 184.859 248.732C184.619 248.532 184.295 248.432 183.887 248.432C183.479 248.432 183.155 248.532 182.915 248.732C182.675 248.924 182.555 249.224 182.555 249.632V249.968C182.555 250.376 182.675 250.68 182.915 250.88C183.155 251.072 183.479 251.168 183.887 251.168ZM191.93 247.808H192.878L190.106 255.44C190.034 255.624 189.962 255.776 189.89 255.896C189.818 256.024 189.73 256.124 189.626 256.196C189.522 256.268 189.39 256.32 189.23 256.352C189.078 256.384 188.89 256.4 188.666 256.4H188.174V255.56H189.146L189.614 254.24L187.298 247.808H188.258L189.746 252.02L190.034 253.028H190.094L190.43 252.02L191.93 247.808ZM198.042 254H197.034V245.624H200.37C201.106 245.624 201.678 245.828 202.086 246.236C202.502 246.644 202.71 247.232 202.71 248C202.71 248.616 202.566 249.124 202.278 249.524C201.998 249.916 201.582 250.176 201.03 250.304L202.95 254H201.81L199.998 250.4H198.042V254ZM200.37 249.536C200.77 249.536 201.078 249.432 201.294 249.224C201.518 249.016 201.63 248.72 201.63 248.336V247.712C201.63 247.328 201.518 247.032 201.294 246.824C201.078 246.616 200.77 246.512 200.37 246.512H198.042V249.536H200.37ZM206.766 254.144C206.342 254.144 205.958 254.068 205.614 253.916C205.278 253.764 204.986 253.548 204.738 253.268C204.498 252.98 204.31 252.64 204.174 252.248C204.046 251.848 203.982 251.4 203.982 250.904C203.982 250.416 204.046 249.972 204.174 249.572C204.31 249.172 204.498 248.832 204.738 248.552C204.986 248.264 205.278 248.044 205.614 247.892C205.958 247.74 206.342 247.664 206.766 247.664C207.182 247.664 207.554 247.74 207.882 247.892C208.21 248.044 208.49 248.256 208.722 248.528C208.954 248.792 209.13 249.108 209.25 249.476C209.378 249.844 209.442 250.248 209.442 250.688V251.144H204.99V251.432C204.99 251.696 205.03 251.944 205.11 252.176C205.198 252.4 205.318 252.596 205.47 252.764C205.63 252.932 205.822 253.064 206.046 253.16C206.278 253.256 206.538 253.304 206.826 253.304C207.218 253.304 207.558 253.212 207.846 253.028C208.142 252.844 208.37 252.58 208.53 252.236L209.214 252.728C209.014 253.152 208.702 253.496 208.278 253.76C207.854 254.016 207.35 254.144 206.766 254.144ZM206.766 248.468C206.502 248.468 206.262 248.516 206.046 248.612C205.83 248.7 205.642 248.828 205.482 248.996C205.33 249.164 205.21 249.364 205.122 249.596C205.034 249.82 204.99 250.068 204.99 250.34V250.424H208.41V250.292C208.41 249.74 208.258 249.3 207.954 248.972C207.658 248.636 207.262 248.468 206.766 248.468ZM212.884 254.144C212.308 254.144 211.824 254.036 211.432 253.82C211.048 253.596 210.716 253.3 210.436 252.932L211.12 252.38C211.36 252.684 211.628 252.92 211.924 253.088C212.22 253.248 212.564 253.328 212.956 253.328C213.364 253.328 213.68 253.24 213.904 253.064C214.136 252.888 214.252 252.64 214.252 252.32C214.252 252.08 214.172 251.876 214.012 251.708C213.86 251.532 213.58 251.412 213.172 251.348L212.68 251.276C212.392 251.236 212.128 251.176 211.888 251.096C211.648 251.008 211.436 250.896 211.252 250.76C211.076 250.616 210.936 250.44 210.832 250.232C210.736 250.024 210.688 249.776 210.688 249.488C210.688 249.184 210.744 248.92 210.856 248.696C210.968 248.464 211.12 248.272 211.312 248.12C211.512 247.968 211.748 247.856 212.02 247.784C212.292 247.704 212.584 247.664 212.896 247.664C213.4 247.664 213.82 247.752 214.156 247.928C214.5 248.104 214.8 248.348 215.056 248.66L214.42 249.236C214.284 249.044 214.084 248.872 213.82 248.72C213.556 248.56 213.224 248.48 212.824 248.48C212.424 248.48 212.12 248.568 211.912 248.744C211.712 248.912 211.612 249.144 211.612 249.44C211.612 249.744 211.712 249.964 211.912 250.1C212.12 250.236 212.416 250.336 212.8 250.4L213.28 250.472C213.968 250.576 214.456 250.776 214.744 251.072C215.032 251.36 215.176 251.74 215.176 252.212C215.176 252.812 214.972 253.284 214.564 253.628C214.156 253.972 213.596 254.144 212.884 254.144ZM219.2 254.144C218.776 254.144 218.392 254.068 218.048 253.916C217.712 253.764 217.42 253.548 217.172 253.268C216.932 252.98 216.744 252.64 216.608 252.248C216.48 251.848 216.416 251.4 216.416 250.904C216.416 250.416 216.48 249.972 216.608 249.572C216.744 249.172 216.932 248.832 217.172 248.552C217.42 248.264 217.712 248.044 218.048 247.892C218.392 247.74 218.776 247.664 219.2 247.664C219.616 247.664 219.988 247.74 220.316 247.892C220.644 248.044 220.924 248.256 221.156 248.528C221.388 248.792 221.564 249.108 221.684 249.476C221.812 249.844 221.876 250.248 221.876 250.688V251.144H217.424V251.432C217.424 251.696 217.464 251.944 217.544 252.176C217.632 252.4 217.752 252.596 217.904 252.764C218.064 252.932 218.256 253.064 218.48 253.16C218.712 253.256 218.972 253.304 219.26 253.304C219.652 253.304 219.992 253.212 220.28 253.028C220.576 252.844 220.804 252.58 220.964 252.236L221.648 252.728C221.448 253.152 221.136 253.496 220.712 253.76C220.288 254.016 219.784 254.144 219.2 254.144ZM219.2 248.468C218.936 248.468 218.696 248.516 218.48 248.612C218.264 248.7 218.076 248.828 217.916 248.996C217.764 249.164 217.644 249.364 217.556 249.596C217.468 249.82 217.424 250.068 217.424 250.34V250.424H220.844V250.292C220.844 249.74 220.692 249.3 220.388 248.972C220.092 248.636 219.696 248.468 219.2 248.468ZM224.826 254C224.49 254 224.234 253.908 224.058 253.724C223.89 253.532 223.806 253.284 223.806 252.98V248.648H222.786V247.808H223.362C223.57 247.808 223.71 247.768 223.782 247.688C223.862 247.6 223.902 247.452 223.902 247.244V246.092H224.766V247.808H226.122V248.648H224.766V253.16H226.026V254H224.826ZM230.596 245.624H234.04C234.736 245.624 235.28 245.82 235.672 246.212C236.072 246.604 236.272 247.128 236.272 247.784C236.272 248.096 236.228 248.36 236.14 248.576C236.052 248.792 235.94 248.972 235.804 249.116C235.668 249.252 235.52 249.356 235.36 249.428C235.2 249.492 235.052 249.536 234.916 249.56V249.632C235.068 249.64 235.236 249.68 235.42 249.752C235.612 249.824 235.792 249.94 235.96 250.1C236.128 250.252 236.268 250.452 236.38 250.7C236.5 250.94 236.56 251.232 236.56 251.576C236.56 251.92 236.504 252.24 236.392 252.536C236.288 252.832 236.14 253.088 235.948 253.304C235.756 253.52 235.528 253.692 235.264 253.82C235 253.94 234.712 254 234.4 254H230.596V245.624ZM231.604 253.112H234.088C234.52 253.112 234.86 253.004 235.108 252.788C235.356 252.564 235.48 252.24 235.48 251.816V251.408C235.48 250.984 235.356 250.664 235.108 250.448C234.86 250.224 234.52 250.112 234.088 250.112H231.604V253.112ZM231.604 249.248H233.92C234.32 249.248 234.632 249.148 234.856 248.948C235.08 248.748 235.192 248.46 235.192 248.084V247.676C235.192 247.3 235.08 247.012 234.856 246.812C234.632 246.612 234.32 246.512 233.92 246.512H231.604V249.248ZM240.68 254.144C240.264 254.144 239.884 254.068 239.54 253.916C239.196 253.764 238.9 253.548 238.652 253.268C238.412 252.98 238.224 252.64 238.088 252.248C237.952 251.848 237.884 251.4 237.884 250.904C237.884 250.416 237.952 249.972 238.088 249.572C238.224 249.172 238.412 248.832 238.652 248.552C238.9 248.264 239.196 248.044 239.54 247.892C239.884 247.74 240.264 247.664 240.68 247.664C241.096 247.664 241.472 247.74 241.808 247.892C242.152 248.044 242.448 248.264 242.696 248.552C242.944 248.832 243.136 249.172 243.272 249.572C243.408 249.972 243.476 250.416 243.476 250.904C243.476 251.4 243.408 251.848 243.272 252.248C243.136 252.64 242.944 252.98 242.696 253.268C242.448 253.548 242.152 253.764 241.808 253.916C241.472 254.068 241.096 254.144 240.68 254.144ZM240.68 253.292C241.2 253.292 241.624 253.132 241.952 252.812C242.28 252.492 242.444 252.004 242.444 251.348V250.46C242.444 249.804 242.28 249.316 241.952 248.996C241.624 248.676 241.2 248.516 240.68 248.516C240.16 248.516 239.736 248.676 239.408 248.996C239.08 249.316 238.916 249.804 238.916 250.46V251.348C238.916 252.004 239.08 252.492 239.408 252.812C239.736 253.132 240.16 253.292 240.68 253.292ZM248.871 252.992H248.823C248.759 253.136 248.679 253.28 248.583 253.424C248.495 253.56 248.383 253.684 248.247 253.796C248.111 253.9 247.947 253.984 247.755 254.048C247.563 254.112 247.339 254.144 247.083 254.144C246.443 254.144 245.935 253.94 245.559 253.532C245.183 253.116 244.995 252.532 244.995 251.78V247.808H245.955V251.612C245.955 252.724 246.427 253.28 247.371 253.28C247.563 253.28 247.747 253.256 247.923 253.208C248.107 253.16 248.267 253.088 248.403 252.992C248.547 252.896 248.659 252.776 248.739 252.632C248.827 252.48 248.871 252.3 248.871 252.092V247.808H249.831V254H248.871V252.992ZM251.875 254V247.808H252.835V248.816H252.883C253.035 248.464 253.247 248.184 253.519 247.976C253.799 247.768 254.171 247.664 254.635 247.664C255.275 247.664 255.779 247.872 256.147 248.288C256.523 248.696 256.711 249.276 256.711 250.028V254H255.751V250.196C255.751 249.084 255.283 248.528 254.347 248.528C254.155 248.528 253.967 248.552 253.783 248.6C253.607 248.648 253.447 248.72 253.303 248.816C253.159 248.912 253.043 249.036 252.955 249.188C252.875 249.332 252.835 249.504 252.835 249.704V254H251.875ZM262.656 252.992H262.608C262.232 253.76 261.628 254.144 260.796 254.144C260.412 254.144 260.064 254.068 259.752 253.916C259.44 253.764 259.172 253.548 258.948 253.268C258.732 252.988 258.564 252.648 258.444 252.248C258.332 251.848 258.276 251.4 258.276 250.904C258.276 250.408 258.332 249.96 258.444 249.56C258.564 249.16 258.732 248.82 258.948 248.54C259.172 248.26 259.44 248.044 259.752 247.892C260.064 247.74 260.412 247.664 260.796 247.664C261.228 247.664 261.596 247.76 261.9 247.952C262.212 248.136 262.448 248.424 262.608 248.816H262.656V245.12H263.616V254H262.656V252.992ZM261.06 253.28C261.276 253.28 261.48 253.252 261.672 253.196C261.872 253.14 262.044 253.06 262.188 252.956C262.332 252.844 262.444 252.712 262.524 252.56C262.612 252.4 262.656 252.22 262.656 252.02V249.716C262.656 249.548 262.612 249.392 262.524 249.248C262.444 249.096 262.332 248.968 262.188 248.864C262.044 248.76 261.872 248.68 261.672 248.624C261.48 248.56 261.276 248.528 261.06 248.528C260.516 248.528 260.088 248.7 259.776 249.044C259.464 249.38 259.308 249.824 259.308 250.376V251.432C259.308 251.984 259.464 252.432 259.776 252.776C260.088 253.112 260.516 253.28 261.06 253.28Z" fill="#D8DADC"/>
<line x1="277" y1="248" x2="296" y2="248" stroke="#434343" stroke-width="2"/>
<path d="M304.116 254V245.624H307.452C308.204 245.624 308.78 245.84 309.18 246.272C309.588 246.696 309.792 247.28 309.792 248.024C309.792 248.768 309.588 249.356 309.18 249.788C308.78 250.212 308.204 250.424 307.452 250.424H305.124V254H304.116ZM305.124 249.536H307.452C307.852 249.536 308.16 249.432 308.376 249.224C308.6 249.016 308.712 248.72 308.712 248.336V247.712C308.712 247.328 308.6 247.032 308.376 246.824C308.16 246.616 307.852 246.512 307.452 246.512H305.124V249.536ZM311.18 254V247.808H312.14V248.948H312.2C312.312 248.652 312.512 248.388 312.8 248.156C313.088 247.924 313.484 247.808 313.988 247.808H314.36V248.768H313.796C313.276 248.768 312.868 248.868 312.572 249.068C312.284 249.26 312.14 249.504 312.14 249.8V254H311.18ZM316.066 246.356C315.858 246.356 315.706 246.308 315.61 246.212C315.522 246.108 315.478 245.976 315.478 245.816V245.66C315.478 245.5 315.522 245.372 315.61 245.276C315.706 245.172 315.858 245.12 316.066 245.12C316.274 245.12 316.422 245.172 316.51 245.276C316.606 245.372 316.654 245.5 316.654 245.66V245.816C316.654 245.976 316.606 246.108 316.51 246.212C316.422 246.308 316.274 246.356 316.066 246.356ZM315.586 247.808H316.546V254H315.586V247.808ZM320.89 254.144C320.458 254.144 320.07 254.068 319.726 253.916C319.382 253.764 319.09 253.548 318.85 253.268C318.618 252.988 318.438 252.648 318.31 252.248C318.19 251.848 318.13 251.4 318.13 250.904C318.13 250.408 318.19 249.96 318.31 249.56C318.438 249.16 318.618 248.82 318.85 248.54C319.09 248.26 319.382 248.044 319.726 247.892C320.07 247.74 320.458 247.664 320.89 247.664C321.506 247.664 321.998 247.8 322.366 248.072C322.742 248.336 323.022 248.684 323.206 249.116L322.402 249.524C322.29 249.204 322.106 248.956 321.85 248.78C321.594 248.604 321.274 248.516 320.89 248.516C320.602 248.516 320.35 248.564 320.134 248.66C319.918 248.748 319.738 248.876 319.594 249.044C319.45 249.204 319.342 249.4 319.27 249.632C319.198 249.856 319.162 250.104 319.162 250.376V251.432C319.162 251.976 319.306 252.424 319.594 252.776C319.89 253.12 320.322 253.292 320.89 253.292C321.666 253.292 322.226 252.932 322.57 252.212L323.266 252.68C323.066 253.128 322.766 253.484 322.366 253.748C321.974 254.012 321.482 254.144 320.89 254.144ZM326.879 254.144C326.455 254.144 326.071 254.068 325.727 253.916C325.391 253.764 325.099 253.548 324.851 253.268C324.611 252.98 324.423 252.64 324.287 252.248C324.159 251.848 324.095 251.4 324.095 250.904C324.095 250.416 324.159 249.972 324.287 249.572C324.423 249.172 324.611 248.832 324.851 248.552C325.099 248.264 325.391 248.044 325.727 247.892C326.071 247.74 326.455 247.664 326.879 247.664C327.295 247.664 327.667 247.74 327.995 247.892C328.323 248.044 328.603 248.256 328.835 248.528C329.067 248.792 329.243 249.108 329.363 249.476C329.491 249.844 329.555 250.248 329.555 250.688V251.144H325.103V251.432C325.103 251.696 325.143 251.944 325.223 252.176C325.311 252.4 325.431 252.596 325.583 252.764C325.743 252.932 325.935 253.064 326.159 253.16C326.391 253.256 326.651 253.304 326.939 253.304C327.331 253.304 327.671 253.212 327.959 253.028C328.255 252.844 328.483 252.58 328.643 252.236L329.327 252.728C329.127 253.152 328.815 253.496 328.391 253.76C327.967 254.016 327.463 254.144 326.879 254.144ZM326.879 248.468C326.615 248.468 326.375 248.516 326.159 248.612C325.943 248.7 325.755 248.828 325.595 248.996C325.443 249.164 325.323 249.364 325.235 249.596C325.147 249.82 325.103 250.068 325.103 250.34V250.424H328.523V250.292C328.523 249.74 328.371 249.3 328.067 248.972C327.771 248.636 327.375 248.468 326.879 248.468ZM334.069 245.624H337.513C338.209 245.624 338.753 245.82 339.145 246.212C339.545 246.604 339.745 247.128 339.745 247.784C339.745 248.096 339.701 248.36 339.613 248.576C339.525 248.792 339.413 248.972 339.277 249.116C339.141 249.252 338.993 249.356 338.833 249.428C338.673 249.492 338.525 249.536 338.389 249.56V249.632C338.541 249.64 338.709 249.68 338.893 249.752C339.085 249.824 339.265 249.94 339.433 250.1C339.601 250.252 339.741 250.452 339.853 250.7C339.973 250.94 340.033 251.232 340.033 251.576C340.033 251.92 339.977 252.24 339.865 252.536C339.761 252.832 339.613 253.088 339.421 253.304C339.229 253.52 339.001 253.692 338.737 253.82C338.473 253.94 338.185 254 337.873 254H334.069V245.624ZM335.077 253.112H337.561C337.993 253.112 338.333 253.004 338.581 252.788C338.829 252.564 338.953 252.24 338.953 251.816V251.408C338.953 250.984 338.829 250.664 338.581 250.448C338.333 250.224 337.993 250.112 337.561 250.112H335.077V253.112ZM335.077 249.248H337.393C337.793 249.248 338.105 249.148 338.329 248.948C338.553 248.748 338.665 248.46 338.665 248.084V247.676C338.665 247.3 338.553 247.012 338.329 246.812C338.105 246.612 337.793 246.512 337.393 246.512H335.077V249.248ZM346.313 254C345.953 254 345.693 253.904 345.533 253.712C345.381 253.52 345.285 253.28 345.245 252.992H345.185C345.049 253.376 344.825 253.664 344.513 253.856C344.201 254.048 343.829 254.144 343.397 254.144C342.741 254.144 342.229 253.976 341.861 253.64C341.501 253.304 341.321 252.848 341.321 252.272C341.321 251.688 341.533 251.24 341.957 250.928C342.389 250.616 343.057 250.46 343.961 250.46H345.185V249.848C345.185 249.408 345.065 249.072 344.825 248.84C344.585 248.608 344.217 248.492 343.721 248.492C343.345 248.492 343.029 248.576 342.773 248.744C342.525 248.912 342.317 249.136 342.149 249.416L341.573 248.876C341.741 248.54 342.009 248.256 342.377 248.024C342.745 247.784 343.209 247.664 343.769 247.664C344.521 247.664 345.105 247.848 345.521 248.216C345.937 248.584 346.145 249.096 346.145 249.752V253.16H346.853V254H346.313ZM343.553 253.328C343.793 253.328 344.013 253.3 344.213 253.244C344.413 253.188 344.585 253.108 344.729 253.004C344.873 252.9 344.985 252.78 345.065 252.644C345.145 252.508 345.185 252.36 345.185 252.2V251.18H343.913C343.361 251.18 342.957 251.26 342.701 251.42C342.453 251.58 342.329 251.812 342.329 252.116V252.368C342.329 252.672 342.437 252.908 342.653 253.076C342.877 253.244 343.177 253.328 343.553 253.328ZM348.223 254V247.808H349.183V248.816H349.231C349.383 248.464 349.595 248.184 349.867 247.976C350.147 247.768 350.519 247.664 350.983 247.664C351.623 247.664 352.127 247.872 352.495 248.288C352.871 248.696 353.059 249.276 353.059 250.028V254H352.099V250.196C352.099 249.084 351.631 248.528 350.695 248.528C350.503 248.528 350.315 248.552 350.131 248.6C349.955 248.648 349.795 248.72 349.651 248.816C349.507 248.912 349.391 249.036 349.303 249.188C349.223 249.332 349.183 249.504 349.183 249.704V254H348.223ZM359.003 252.992H358.955C358.579 253.76 357.975 254.144 357.143 254.144C356.759 254.144 356.411 254.068 356.099 253.916C355.787 253.764 355.519 253.548 355.295 253.268C355.079 252.988 354.911 252.648 354.791 252.248C354.679 251.848 354.623 251.4 354.623 250.904C354.623 250.408 354.679 249.96 354.791 249.56C354.911 249.16 355.079 248.82 355.295 248.54C355.519 248.26 355.787 248.044 356.099 247.892C356.411 247.74 356.759 247.664 357.143 247.664C357.575 247.664 357.943 247.76 358.247 247.952C358.559 248.136 358.795 248.424 358.955 248.816H359.003V245.12H359.963V254H359.003V252.992ZM357.407 253.28C357.623 253.28 357.827 253.252 358.019 253.196C358.219 253.14 358.391 253.06 358.535 252.956C358.679 252.844 358.791 252.712 358.871 252.56C358.959 252.4 359.003 252.22 359.003 252.02V249.716C359.003 249.548 358.959 249.392 358.871 249.248C358.791 249.096 358.679 248.968 358.535 248.864C358.391 248.76 358.219 248.68 358.019 248.624C357.827 248.56 357.623 248.528 357.407 248.528C356.863 248.528 356.435 248.7 356.123 249.044C355.811 249.38 355.655 249.824 355.655 250.376V251.432C355.655 251.984 355.811 252.432 356.123 252.776C356.435 253.112 356.863 253.28 357.407 253.28ZM363.864 254.144C363.288 254.144 362.804 254.036 362.412 253.82C362.028 253.596 361.696 253.3 361.416 252.932L362.1 252.38C362.34 252.684 362.608 252.92 362.904 253.088C363.2 253.248 363.544 253.328 363.936 253.328C364.344 253.328 364.66 253.24 364.884 253.064C365.116 252.888 365.232 252.64 365.232 252.32C365.232 252.08 365.152 251.876 364.992 251.708C364.84 251.532 364.56 251.412 364.152 251.348L363.66 251.276C363.372 251.236 363.108 251.176 362.868 251.096C362.628 251.008 362.416 250.896 362.232 250.76C362.056 250.616 361.916 250.44 361.812 250.232C361.716 250.024 361.668 249.776 361.668 249.488C361.668 249.184 361.724 248.92 361.836 248.696C361.948 248.464 362.1 248.272 362.292 248.12C362.492 247.968 362.728 247.856 363 247.784C363.272 247.704 363.564 247.664 363.876 247.664C364.38 247.664 364.8 247.752 365.136 247.928C365.48 248.104 365.78 248.348 366.036 248.66L365.4 249.236C365.264 249.044 365.064 248.872 364.8 248.72C364.536 248.56 364.204 248.48 363.804 248.48C363.404 248.48 363.1 248.568 362.892 248.744C362.692 248.912 362.592 249.144 362.592 249.44C362.592 249.744 362.692 249.964 362.892 250.1C363.1 250.236 363.396 250.336 363.78 250.4L364.26 250.472C364.948 250.576 365.436 250.776 365.724 251.072C366.012 251.36 366.156 251.74 366.156 252.212C366.156 252.812 365.952 253.284 365.544 253.628C365.136 253.972 364.576 254.144 363.864 254.144Z" fill="#D8DADC"/>
<path d="M259 83.5H-18V112.175V186.5H259V163.638H484V186.5H709V83.5H484V61.5H259V83.5Z" fill="url(#paint0_linear_332_16449)" stroke="#434343" stroke-width="0.5"/>
<path d="M259 116H4H-18V149H259V132H484V154H709V116H484V94H259V116Z" stroke="#A6A6A6" stroke-width="0.5" stroke-dasharray="2 2"/>
<path d="M-1 127.966C2.62234 127.966 6.31829 126.552 8.95889 125.127C12.7572 123.078 14.4524 126.204 18.1015 126.204C21.6305 126.204 24.9049 122.807 28.3869 121.995C31.0018 121.385 33.3534 124.647 37.9376 123.12C43.3023 121.334 51.7184 122.589 57.4473 119.841C64.8231 116.303 70.0743 123.102 76.2222 124.442C83.9496 126.127 90.0489 126.204 98.2624 126.204C104.206 126.204 106.943 125.856 112.14 123.952C116.887 122.213 123.094 120.417 128.302 123.072C136.773 127.388 144.864 127.966 155.485 127.966C158.896 127.966 157.512 125.323 162.832 125.323C165.744 125.323 168.871 124.442 172.383 124.442C187.561 124.442 201.233 126.204 216.463 126.204C220.347 126.204 237.705 127.463 239.646 126.008C241.154 124.878 242.105 123.653 244.054 122.484C245.994 121.321 252.102 121.577 253.197 120.429C256.539 116.921 259.735 114.845 264.625 111.913C267.122 110.415 270.847 111.959 273.767 111.032C277.087 109.978 277.633 106.552 281.849 105.991C288.374 105.121 296.399 107.815 301.685 106.137C304.883 105.122 304.948 104.18 309.032 104.18C312.331 104.18 314.713 105.661 318.501 105.012C326.284 103.678 331.442 105.942 339.153 105.942C344.786 105.942 350.418 105.942 356.051 105.942C362.732 105.942 369.448 103.823 376.622 105.256C387.842 107.499 403.551 105.942 415.478 105.942C419.579 105.942 423.471 105.061 427.314 105.061" stroke="#A6A6A6" stroke-width="0.5" stroke-linecap="round"/>
<path d="M427 105C433.022 105 437.615 107.954 443.238 110.078C444.627 110.603 446.656 111.096 448.104 111.188C449.748 111.292 450.056 112.208 451.332 112.828C451.959 113.133 452.782 114.082 453.343 114.203C454.505 114.454 456.273 113.822 457.142 114.878C457.822 115.703 461.703 115.17 462.033 116.615C462.294 117.754 463.423 117.049 464.392 117.362C466.038 117.895 466.116 120.143 467.62 120.643C469.517 121.273 471.691 121.947 472.983 123.561C473.557 124.278 474.44 124.161 475.019 124.864C475.413 125.342 477.055 125.789 477.701 126.142C478.888 126.791 479.41 127.658 480.829 128.023C482.059 128.34 482.302 128.889 483.262 129.422C484.079 129.876 483.611 130.521 484.057 131.063C484.581 131.698 484.244 132.23 485.075 132.679C486.375 133.38 488.143 133.488 489.569 133.74C494.281 134.572 499.428 136.501 504.442 135.283C506.498 134.784 510.455 134.413 512.114 135.935C513.899 137.573 514.829 137.237 516.807 137.237C520.581 137.237 524.155 137.61 528.005 137.671C530.061 137.704 530.958 139.052 533.145 138.757C534.855 138.526 536.539 138.54 538.259 138.54C542.234 138.54 546.039 139.572 549.88 138.998C552.859 138.553 555.854 139.223 558.843 138.54C561.353 137.966 561.363 139.331 563.412 139.408C565.399 139.482 567.117 138.54 569.097 138.54C570.263 138.54 571.485 137.701 572.797 137.671C573.403 137.658 575.744 137.203 576.124 137.43C577.686 138.364 577.402 138.496 579.153 137.888C581.019 137.241 584.017 137.532 585.659 138.443C587.528 139.481 590.998 139.408 593.182 139.408C596.296 139.408 599.354 138.974 602.468 138.974C604.502 138.974 606.631 139.472 608.204 138.105C609.336 137.121 611.004 138.168 612.226 137.575C613.897 136.763 613.965 136.321 615.603 136.321C616.575 136.321 617.56 135.631 618.384 135.525C622.862 134.945 627.618 135.066 632.114 135.066C632.687 135.066 634.437 134.788 634.92 135.163C635.964 135.974 638.76 134.244 639.836 133.86C645.761 131.748 651.617 134.493 657.266 136.2C659.923 137.003 660.931 133.764 663.225 133.764C664.795 133.764 668.003 134.173 669.333 133.233C671.205 131.911 673.87 132.962 675.938 132.365C676.936 132.077 677.741 130.918 678.57 130.339C679.759 129.507 680.964 129.433 682.369 129.205C684.248 128.901 686.125 128.862 688.005 128.53C690.088 128.162 692.236 128.246 694.113 127.589C696.422 126.782 698.71 126.258 701.214 126.842C701.942 127.011 709.814 128.621 708.911 127.493C707.265 125.437 704.678 124.152 702.952 122.476" stroke="#A6A6A6" stroke-width="0.5" stroke-linecap="round"/>
<path d="M258.823 54.1768C258.921 54.2744 259.079 54.2744 259.177 54.1768L260.768 52.5858C260.865 52.4882 260.865 52.3299 260.768 52.2322C260.67 52.1346 260.512 52.1346 260.414 52.2322L259 53.6464L257.586 52.2322C257.488 52.1346 257.33 52.1346 257.232 52.2322C257.135 52.3299 257.135 52.4882 257.232 52.5858L258.823 54.1768ZM258.75 34L258.75 35L259.25 35L259.25 34L258.75 34ZM258.75 37L258.75 39L259.25 39L259.25 37L258.75 37ZM258.75 41L258.75 43L259.25 43L259.25 41L258.75 41ZM258.75 45L258.75 47L259.25 47L259.25 45L258.75 45ZM258.75 49L258.75 51L259.25 51L259.25 49L258.75 49ZM258.75 53L258.75 54L259.25 54L259.25 53L258.75 53Z" fill="#F4F4F4"/>
<path d="M482.823 54.1768C482.921 54.2744 483.079 54.2744 483.177 54.1768L484.768 52.5858C484.865 52.4882 484.865 52.3299 484.768 52.2322C484.67 52.1346 484.512 52.1346 484.414 52.2322L483 53.6464L481.586 52.2322C481.488 52.1346 481.33 52.1346 481.232 52.2322C481.135 52.3299 481.135 52.4882 481.232 52.5858L482.823 54.1768ZM482.75 34L482.75 35L483.25 35L483.25 34L482.75 34ZM482.75 37L482.75 39L483.25 39L483.25 37L482.75 37ZM482.75 41L482.75 43L483.25 43L483.25 41L482.75 41ZM482.75 45L482.75 47L483.25 47L483.25 45L482.75 45ZM482.75 49L482.75 51L483.25 51L483.25 49L482.75 49ZM482.75 53L482.75 54L483.25 54L483.25 53L482.75 53Z" fill="#F4F4F4"/>
<path d="M223.59 30H222.99V23.02H225.73C226.33 23.02 226.79 23.19 227.11 23.53C227.437 23.87 227.6 24.3467 227.6 24.96C227.6 25.5 227.467 25.9367 227.2 26.27C226.94 26.6033 226.56 26.8033 226.06 26.87L227.78 30H227.11L225.44 26.91H223.59V30ZM225.73 26.4C226.13 26.4 226.433 26.29 226.64 26.07C226.853 25.8433 226.96 25.5567 226.96 25.21V24.73C226.96 24.39 226.853 24.11 226.64 23.89C226.433 23.6633 226.13 23.55 225.73 23.55H223.59V26.4H225.73ZM230.971 30.12C230.631 30.12 230.321 30.06 230.041 29.94C229.768 29.82 229.531 29.6467 229.331 29.42C229.138 29.1867 228.988 28.9033 228.881 28.57C228.781 28.2367 228.731 27.86 228.731 27.44C228.731 27.02 228.781 26.6467 228.881 26.32C228.988 25.9867 229.138 25.7067 229.331 25.48C229.531 25.2467 229.768 25.07 230.041 24.95C230.314 24.8233 230.621 24.76 230.961 24.76C231.288 24.76 231.584 24.8233 231.851 24.95C232.118 25.07 232.344 25.24 232.531 25.46C232.718 25.68 232.861 25.9467 232.961 26.26C233.068 26.5667 233.121 26.9067 233.121 27.28V27.55H229.331V27.8C229.331 28.0667 229.368 28.3133 229.441 28.54C229.521 28.76 229.631 28.95 229.771 29.11C229.918 29.27 230.094 29.3967 230.301 29.49C230.508 29.5767 230.741 29.62 231.001 29.62C231.748 29.62 232.264 29.2767 232.551 28.59L232.971 28.87C232.811 29.25 232.558 29.5533 232.211 29.78C231.871 30.0067 231.458 30.12 230.971 30.12ZM230.961 25.24C230.714 25.24 230.491 25.2867 230.291 25.38C230.091 25.4667 229.918 25.59 229.771 25.75C229.631 25.91 229.521 26.1033 229.441 26.33C229.368 26.55 229.331 26.7933 229.331 27.06V27.11H232.501V27.03C232.501 26.7633 232.464 26.52 232.391 26.3C232.318 26.0733 232.211 25.8833 232.071 25.73C231.938 25.5767 231.774 25.4567 231.581 25.37C231.394 25.2833 231.188 25.24 230.961 25.24ZM234.571 22.6H235.141V25.7H235.171C235.297 25.4133 235.491 25.1867 235.751 25.02C236.011 24.8467 236.337 24.76 236.731 24.76C237.391 24.76 237.907 24.9933 238.281 25.46C238.654 25.9267 238.841 26.5867 238.841 27.44C238.841 28.2933 238.654 28.9533 238.281 29.42C237.907 29.8867 237.391 30.12 236.731 30.12C236.337 30.12 236.014 30.0367 235.761 29.87C235.507 29.6967 235.311 29.4667 235.171 29.18H235.141V30H234.571V22.6ZM236.601 29.61C237.114 29.61 237.514 29.4467 237.801 29.12C238.087 28.7933 238.231 28.3533 238.231 27.8V27.08C238.231 26.5267 238.087 26.0867 237.801 25.76C237.514 25.4333 237.114 25.27 236.601 25.27C236.401 25.27 236.211 25.3 236.031 25.36C235.857 25.4133 235.704 25.49 235.571 25.59C235.437 25.69 235.331 25.81 235.251 25.95C235.177 26.09 235.141 26.2433 235.141 26.41V28.44C235.141 28.62 235.177 28.7833 235.251 28.93C235.331 29.07 235.437 29.1933 235.571 29.3C235.704 29.4 235.857 29.4767 236.031 29.53C236.211 29.5833 236.401 29.61 236.601 29.61ZM243.833 30C243.613 30 243.453 29.9433 243.353 29.83C243.253 29.7167 243.196 29.5633 243.183 29.37V29.19H243.133C243.019 29.4767 242.833 29.7033 242.573 29.87C242.313 30.0367 241.983 30.12 241.583 30.12C241.043 30.12 240.626 29.99 240.333 29.73C240.039 29.4633 239.893 29.09 239.893 28.61C239.893 28.1567 240.053 27.7967 240.373 27.53C240.699 27.2633 241.233 27.13 241.973 27.13H243.153V26.53C243.153 25.6833 242.716 25.26 241.843 25.26C241.503 25.26 241.219 25.3333 240.993 25.48C240.766 25.62 240.583 25.8233 240.443 26.09L240.083 25.79C240.223 25.49 240.436 25.2433 240.723 25.05C241.016 24.8567 241.396 24.76 241.863 24.76C242.463 24.76 242.923 24.91 243.243 25.21C243.563 25.51 243.723 25.93 243.723 26.47V29.5H244.413V30H243.833ZM241.663 29.63C241.869 29.63 242.063 29.6033 242.243 29.55C242.423 29.4967 242.579 29.4233 242.713 29.33C242.853 29.23 242.959 29.1133 243.033 28.98C243.113 28.84 243.153 28.6833 243.153 28.51V27.56H241.953C241.439 27.56 241.066 27.6433 240.833 27.81C240.606 27.97 240.493 28.1933 240.493 28.48V28.72C240.493 29.02 240.599 29.2467 240.813 29.4C241.026 29.5533 241.309 29.63 241.663 29.63ZM246.216 30C246.01 30 245.853 29.9433 245.746 29.83C245.64 29.7167 245.586 29.5667 245.586 29.38V22.6H246.156V29.5H246.946V30H246.216ZM251.743 30C251.523 30 251.363 29.9433 251.263 29.83C251.163 29.7167 251.106 29.5633 251.093 29.37V29.19H251.043C250.93 29.4767 250.743 29.7033 250.483 29.87C250.223 30.0367 249.893 30.12 249.493 30.12C248.953 30.12 248.536 29.99 248.243 29.73C247.95 29.4633 247.803 29.09 247.803 28.61C247.803 28.1567 247.963 27.7967 248.283 27.53C248.61 27.2633 249.143 27.13 249.883 27.13H251.063V26.53C251.063 25.6833 250.626 25.26 249.753 25.26C249.413 25.26 249.13 25.3333 248.903 25.48C248.676 25.62 248.493 25.8233 248.353 26.09L247.993 25.79C248.133 25.49 248.346 25.2433 248.633 25.05C248.926 24.8567 249.306 24.76 249.773 24.76C250.373 24.76 250.833 24.91 251.153 25.21C251.473 25.51 251.633 25.93 251.633 26.47V29.5H252.323V30H251.743ZM249.573 29.63C249.78 29.63 249.973 29.6033 250.153 29.55C250.333 29.4967 250.49 29.4233 250.623 29.33C250.763 29.23 250.87 29.1133 250.943 28.98C251.023 28.84 251.063 28.6833 251.063 28.51V27.56H249.863C249.35 27.56 248.976 27.6433 248.743 27.81C248.516 27.97 248.403 28.1933 248.403 28.48V28.72C248.403 29.02 248.51 29.2467 248.723 29.4C248.936 29.5533 249.22 29.63 249.573 29.63ZM253.496 30V24.88H254.066V25.69H254.096C254.21 25.4233 254.386 25.2033 254.626 25.03C254.866 24.85 255.193 24.76 255.606 24.76C256.153 24.76 256.576 24.93 256.876 25.27C257.183 25.6033 257.336 26.0833 257.336 26.71V30H256.766V26.81C256.766 26.29 256.653 25.9033 256.426 25.65C256.206 25.3967 255.883 25.27 255.456 25.27C255.276 25.27 255.103 25.2933 254.936 25.34C254.77 25.3867 254.62 25.4567 254.486 25.55C254.36 25.6433 254.256 25.7633 254.176 25.91C254.103 26.05 254.066 26.2133 254.066 26.4V30H253.496ZM260.931 30.12C260.225 30.12 259.678 29.8867 259.291 29.42C258.911 28.9533 258.721 28.2933 258.721 27.44C258.721 26.5867 258.911 25.9267 259.291 25.46C259.678 24.9933 260.225 24.76 260.931 24.76C261.405 24.76 261.788 24.8633 262.081 25.07C262.375 25.2767 262.598 25.55 262.751 25.89L262.271 26.13C262.151 25.85 261.981 25.6367 261.761 25.49C261.548 25.3433 261.271 25.27 260.931 25.27C260.411 25.27 260.015 25.4367 259.741 25.77C259.468 26.1033 259.331 26.54 259.331 27.08V27.8C259.331 28.34 259.468 28.7767 259.741 29.11C260.015 29.4433 260.411 29.61 260.931 29.61C261.285 29.61 261.581 29.5333 261.821 29.38C262.061 29.2267 262.255 29.0067 262.401 28.72L262.821 29C262.655 29.34 262.415 29.6133 262.101 29.82C261.795 30.02 261.405 30.12 260.931 30.12ZM265.844 30.12C265.504 30.12 265.194 30.06 264.914 29.94C264.641 29.82 264.404 29.6467 264.204 29.42C264.011 29.1867 263.861 28.9033 263.754 28.57C263.654 28.2367 263.604 27.86 263.604 27.44C263.604 27.02 263.654 26.6467 263.754 26.32C263.861 25.9867 264.011 25.7067 264.204 25.48C264.404 25.2467 264.641 25.07 264.914 24.95C265.187 24.8233 265.494 24.76 265.834 24.76C266.161 24.76 266.457 24.8233 266.724 24.95C266.991 25.07 267.217 25.24 267.404 25.46C267.591 25.68 267.734 25.9467 267.834 26.26C267.941 26.5667 267.994 26.9067 267.994 27.28V27.55H264.204V27.8C264.204 28.0667 264.241 28.3133 264.314 28.54C264.394 28.76 264.504 28.95 264.644 29.11C264.791 29.27 264.967 29.3967 265.174 29.49C265.381 29.5767 265.614 29.62 265.874 29.62C266.621 29.62 267.137 29.2767 267.424 28.59L267.844 28.87C267.684 29.25 267.431 29.5533 267.084 29.78C266.744 30.0067 266.331 30.12 265.844 30.12ZM265.834 25.24C265.587 25.24 265.364 25.2867 265.164 25.38C264.964 25.4667 264.791 25.59 264.644 25.75C264.504 25.91 264.394 26.1033 264.314 26.33C264.241 26.55 264.204 26.7933 264.204 27.06V27.11H267.374V27.03C267.374 26.7633 267.337 26.52 267.264 26.3C267.191 26.0733 267.084 25.8833 266.944 25.73C266.811 25.5767 266.647 25.4567 266.454 25.37C266.267 25.2833 266.061 25.24 265.834 25.24ZM274.017 23.55V30H273.417V23.55H271.077V23.02H276.357V23.55H274.017ZM277.041 30V24.88H277.611V25.8H277.651C277.751 25.56 277.921 25.3467 278.161 25.16C278.401 24.9733 278.741 24.88 279.181 24.88H279.521V25.44H279.071C278.645 25.44 278.295 25.5333 278.021 25.72C277.748 25.9067 277.611 26.1667 277.611 26.5V30H277.041ZM280.896 23.49C280.762 23.49 280.662 23.4567 280.596 23.39C280.536 23.3233 280.506 23.2367 280.506 23.13V23.03C280.506 22.9233 280.536 22.8367 280.596 22.77C280.662 22.7033 280.762 22.67 280.896 22.67C281.029 22.67 281.126 22.7033 281.186 22.77C281.252 22.8367 281.286 22.9233 281.286 23.03V23.13C281.286 23.2367 281.252 23.3233 281.186 23.39C281.126 23.4567 281.029 23.49 280.896 23.49ZM280.616 24.88H281.186V30H280.616V24.88ZM287.247 30.6C287.247 31.12 287.037 31.5033 286.617 31.75C286.204 31.9967 285.594 32.12 284.787 32.12C284.007 32.12 283.444 32.0067 283.097 31.78C282.751 31.5533 282.577 31.24 282.577 30.84C282.577 30.5467 282.654 30.3133 282.807 30.14C282.961 29.9667 283.177 29.84 283.457 29.76V29.68C283.137 29.5533 282.977 29.32 282.977 28.98C282.977 28.7267 283.061 28.5333 283.227 28.4C283.394 28.2667 283.601 28.1667 283.847 28.1V28.06C283.547 27.9267 283.314 27.7267 283.147 27.46C282.981 27.1933 282.897 26.8733 282.897 26.5C282.897 26.24 282.941 26.0033 283.027 25.79C283.114 25.5767 283.237 25.3933 283.397 25.24C283.564 25.0867 283.761 24.97 283.987 24.89C284.221 24.8033 284.477 24.76 284.757 24.76C285.151 24.76 285.494 24.8433 285.787 25.01V24.76C285.787 24.6067 285.824 24.4833 285.897 24.39C285.971 24.29 286.091 24.24 286.257 24.24H287.137V24.74H286.097V25.23C286.271 25.3833 286.404 25.57 286.497 25.79C286.591 26.0033 286.637 26.24 286.637 26.5C286.637 26.76 286.591 26.9967 286.497 27.21C286.411 27.4233 286.284 27.61 286.117 27.77C285.957 27.9233 285.761 28.0433 285.527 28.13C285.301 28.21 285.047 28.25 284.767 28.25C284.674 28.25 284.584 28.2433 284.497 28.23C284.411 28.2167 284.324 28.2033 284.237 28.19C284.017 28.25 283.834 28.3333 283.687 28.44C283.547 28.54 283.477 28.6767 283.477 28.85C283.477 29.1567 283.751 29.31 284.297 29.31H285.487C286.107 29.31 286.554 29.4267 286.827 29.66C287.107 29.8867 287.247 30.2 287.247 30.6ZM286.697 30.64C286.697 30.3933 286.607 30.1967 286.427 30.05C286.254 29.91 285.941 29.84 285.487 29.84H283.827C283.607 29.9133 283.434 30.0233 283.307 30.17C283.181 30.3167 283.117 30.5 283.117 30.72C283.117 30.9867 283.227 31.2067 283.447 31.38C283.667 31.56 284.001 31.65 284.447 31.65H285.087C285.587 31.65 285.981 31.5667 286.267 31.4C286.554 31.24 286.697 30.9867 286.697 30.64ZM284.767 27.79C285.161 27.79 285.467 27.6933 285.687 27.5C285.914 27.3 286.027 27.02 286.027 26.66V26.34C286.027 25.9867 285.914 25.7133 285.687 25.52C285.467 25.32 285.161 25.22 284.767 25.22C284.367 25.22 284.057 25.32 283.837 25.52C283.617 25.7133 283.507 25.9867 283.507 26.34V26.66C283.507 27.02 283.617 27.3 283.837 27.5C284.064 27.6933 284.374 27.79 284.767 27.79ZM292.53 30.6C292.53 31.12 292.32 31.5033 291.9 31.75C291.487 31.9967 290.877 32.12 290.07 32.12C289.29 32.12 288.727 32.0067 288.38 31.78C288.034 31.5533 287.86 31.24 287.86 30.84C287.86 30.5467 287.937 30.3133 288.09 30.14C288.244 29.9667 288.46 29.84 288.74 29.76V29.68C288.42 29.5533 288.26 29.32 288.26 28.98C288.26 28.7267 288.344 28.5333 288.51 28.4C288.677 28.2667 288.884 28.1667 289.13 28.1V28.06C288.83 27.9267 288.597 27.7267 288.43 27.46C288.264 27.1933 288.18 26.8733 288.18 26.5C288.18 26.24 288.224 26.0033 288.31 25.79C288.397 25.5767 288.52 25.3933 288.68 25.24C288.847 25.0867 289.044 24.97 289.27 24.89C289.504 24.8033 289.76 24.76 290.04 24.76C290.434 24.76 290.777 24.8433 291.07 25.01V24.76C291.07 24.6067 291.107 24.4833 291.18 24.39C291.254 24.29 291.374 24.24 291.54 24.24H292.42V24.74H291.38V25.23C291.554 25.3833 291.687 25.57 291.78 25.79C291.874 26.0033 291.92 26.24 291.92 26.5C291.92 26.76 291.874 26.9967 291.78 27.21C291.694 27.4233 291.567 27.61 291.4 27.77C291.24 27.9233 291.044 28.0433 290.81 28.13C290.584 28.21 290.33 28.25 290.05 28.25C289.957 28.25 289.867 28.2433 289.78 28.23C289.694 28.2167 289.607 28.2033 289.52 28.19C289.3 28.25 289.117 28.3333 288.97 28.44C288.83 28.54 288.76 28.6767 288.76 28.85C288.76 29.1567 289.034 29.31 289.58 29.31H290.77C291.39 29.31 291.837 29.4267 292.11 29.66C292.39 29.8867 292.53 30.2 292.53 30.6ZM291.98 30.64C291.98 30.3933 291.89 30.1967 291.71 30.05C291.537 29.91 291.224 29.84 290.77 29.84H289.11C288.89 29.9133 288.717 30.0233 288.59 30.17C288.464 30.3167 288.4 30.5 288.4 30.72C288.4 30.9867 288.51 31.2067 288.73 31.38C288.95 31.56 289.284 31.65 289.73 31.65H290.37C290.87 31.65 291.264 31.5667 291.55 31.4C291.837 31.24 291.98 30.9867 291.98 30.64ZM290.05 27.79C290.444 27.79 290.75 27.6933 290.97 27.5C291.197 27.3 291.31 27.02 291.31 26.66V26.34C291.31 25.9867 291.197 25.7133 290.97 25.52C290.75 25.32 290.444 25.22 290.05 25.22C289.65 25.22 289.34 25.32 289.12 25.52C288.9 25.7133 288.79 25.9867 288.79 26.34V26.66C288.79 27.02 288.9 27.3 289.12 27.5C289.347 27.6933 289.657 27.79 290.05 27.79ZM295.395 30.12C295.055 30.12 294.745 30.06 294.465 29.94C294.191 29.82 293.955 29.6467 293.755 29.42C293.561 29.1867 293.411 28.9033 293.305 28.57C293.205 28.2367 293.155 27.86 293.155 27.44C293.155 27.02 293.205 26.6467 293.305 26.32C293.411 25.9867 293.561 25.7067 293.755 25.48C293.955 25.2467 294.191 25.07 294.465 24.95C294.738 24.8233 295.045 24.76 295.385 24.76C295.711 24.76 296.008 24.8233 296.275 24.95C296.541 25.07 296.768 25.24 296.955 25.46C297.141 25.68 297.285 25.9467 297.385 26.26C297.491 26.5667 297.545 26.9067 297.545 27.28V27.55H293.755V27.8C293.755 28.0667 293.791 28.3133 293.865 28.54C293.945 28.76 294.055 28.95 294.195 29.11C294.341 29.27 294.518 29.3967 294.725 29.49C294.931 29.5767 295.165 29.62 295.425 29.62C296.171 29.62 296.688 29.2767 296.975 28.59L297.395 28.87C297.235 29.25 296.981 29.5533 296.635 29.78C296.295 30.0067 295.881 30.12 295.395 30.12ZM295.385 25.24C295.138 25.24 294.915 25.2867 294.715 25.38C294.515 25.4667 294.341 25.59 294.195 25.75C294.055 25.91 293.945 26.1033 293.865 26.33C293.791 26.55 293.755 26.7933 293.755 27.06V27.11H296.925V27.03C296.925 26.7633 296.888 26.52 296.815 26.3C296.741 26.0733 296.635 25.8833 296.495 25.73C296.361 25.5767 296.198 25.4567 296.005 25.37C295.818 25.2833 295.611 25.24 295.385 25.24ZM298.994 30V24.88H299.564V25.8H299.604C299.704 25.56 299.874 25.3467 300.114 25.16C300.354 24.9733 300.694 24.88 301.134 24.88H301.474V25.44H301.024C300.598 25.44 300.248 25.5333 299.974 25.72C299.701 25.9067 299.564 26.1667 299.564 26.5V30H298.994ZM304.369 30.12C304.029 30.12 303.719 30.06 303.439 29.94C303.166 29.82 302.929 29.6467 302.729 29.42C302.536 29.1867 302.386 28.9033 302.279 28.57C302.179 28.2367 302.129 27.86 302.129 27.44C302.129 27.02 302.179 26.6467 302.279 26.32C302.386 25.9867 302.536 25.7067 302.729 25.48C302.929 25.2467 303.166 25.07 303.439 24.95C303.713 24.8233 304.019 24.76 304.359 24.76C304.686 24.76 304.983 24.8233 305.249 24.95C305.516 25.07 305.743 25.24 305.929 25.46C306.116 25.68 306.259 25.9467 306.359 26.26C306.466 26.5667 306.519 26.9067 306.519 27.28V27.55H302.729V27.8C302.729 28.0667 302.766 28.3133 302.839 28.54C302.919 28.76 303.029 28.95 303.169 29.11C303.316 29.27 303.493 29.3967 303.699 29.49C303.906 29.5767 304.139 29.62 304.399 29.62C305.146 29.62 305.663 29.2767 305.949 28.59L306.369 28.87C306.209 29.25 305.956 29.5533 305.609 29.78C305.269 30.0067 304.856 30.12 304.369 30.12ZM304.359 25.24C304.113 25.24 303.889 25.2867 303.689 25.38C303.489 25.4667 303.316 25.59 303.169 25.75C303.029 25.91 302.919 26.1033 302.839 26.33C302.766 26.55 302.729 26.7933 302.729 27.06V27.11H305.899V27.03C305.899 26.7633 305.863 26.52 305.789 26.3C305.716 26.0733 305.609 25.8833 305.469 25.73C305.336 25.5767 305.173 25.4567 304.979 25.37C304.793 25.2833 304.586 25.24 304.359 25.24ZM311.279 29.18H311.249C311.116 29.4667 310.919 29.6967 310.659 29.87C310.406 30.0367 310.082 30.12 309.689 30.12C309.029 30.12 308.512 29.8867 308.139 29.42C307.766 28.9533 307.579 28.2933 307.579 27.44C307.579 26.5867 307.766 25.9267 308.139 25.46C308.512 24.9933 309.029 24.76 309.689 24.76C310.082 24.76 310.409 24.8467 310.669 25.02C310.929 25.1867 311.122 25.4133 311.249 25.7H311.279V22.6H311.849V30H311.279V29.18ZM309.819 29.61C310.019 29.61 310.206 29.5833 310.379 29.53C310.559 29.4767 310.716 29.4 310.849 29.3C310.982 29.1933 311.086 29.07 311.159 28.93C311.239 28.7833 311.279 28.62 311.279 28.44V26.41C311.279 26.2433 311.239 26.09 311.159 25.95C311.086 25.81 310.982 25.69 310.849 25.59C310.716 25.49 310.559 25.4133 310.379 25.36C310.206 25.3 310.019 25.27 309.819 25.27C309.306 25.27 308.906 25.4333 308.619 25.76C308.332 26.0867 308.189 26.5267 308.189 27.08V27.8C308.189 28.3533 308.332 28.7933 308.619 29.12C308.906 29.4467 309.306 29.61 309.819 29.61Z" fill="#C6C6C6"/>
<path d="M447.59 30H446.99V23.02H449.73C450.33 23.02 450.79 23.19 451.11 23.53C451.437 23.87 451.6 24.3467 451.6 24.96C451.6 25.5 451.467 25.9367 451.2 26.27C450.94 26.6033 450.56 26.8033 450.06 26.87L451.78 30H451.11L449.44 26.91H447.59V30ZM449.73 26.4C450.13 26.4 450.433 26.29 450.64 26.07C450.853 25.8433 450.96 25.5567 450.96 25.21V24.73C450.96 24.39 450.853 24.11 450.64 23.89C450.433 23.6633 450.13 23.55 449.73 23.55H447.59V26.4H449.73ZM454.971 30.12C454.631 30.12 454.321 30.06 454.041 29.94C453.768 29.82 453.531 29.6467 453.331 29.42C453.138 29.1867 452.988 28.9033 452.881 28.57C452.781 28.2367 452.731 27.86 452.731 27.44C452.731 27.02 452.781 26.6467 452.881 26.32C452.988 25.9867 453.138 25.7067 453.331 25.48C453.531 25.2467 453.768 25.07 454.041 24.95C454.314 24.8233 454.621 24.76 454.961 24.76C455.288 24.76 455.584 24.8233 455.851 24.95C456.118 25.07 456.344 25.24 456.531 25.46C456.718 25.68 456.861 25.9467 456.961 26.26C457.068 26.5667 457.121 26.9067 457.121 27.28V27.55H453.331V27.8C453.331 28.0667 453.368 28.3133 453.441 28.54C453.521 28.76 453.631 28.95 453.771 29.11C453.918 29.27 454.094 29.3967 454.301 29.49C454.508 29.5767 454.741 29.62 455.001 29.62C455.748 29.62 456.264 29.2767 456.551 28.59L456.971 28.87C456.811 29.25 456.558 29.5533 456.211 29.78C455.871 30.0067 455.458 30.12 454.971 30.12ZM454.961 25.24C454.714 25.24 454.491 25.2867 454.291 25.38C454.091 25.4667 453.918 25.59 453.771 25.75C453.631 25.91 453.521 26.1033 453.441 26.33C453.368 26.55 453.331 26.7933 453.331 27.06V27.11H456.501V27.03C456.501 26.7633 456.464 26.52 456.391 26.3C456.318 26.0733 456.211 25.8833 456.071 25.73C455.938 25.5767 455.774 25.4567 455.581 25.37C455.394 25.2833 455.188 25.24 454.961 25.24ZM458.571 22.6H459.141V25.7H459.171C459.297 25.4133 459.491 25.1867 459.751 25.02C460.011 24.8467 460.337 24.76 460.731 24.76C461.391 24.76 461.907 24.9933 462.281 25.46C462.654 25.9267 462.841 26.5867 462.841 27.44C462.841 28.2933 462.654 28.9533 462.281 29.42C461.907 29.8867 461.391 30.12 460.731 30.12C460.337 30.12 460.014 30.0367 459.761 29.87C459.507 29.6967 459.311 29.4667 459.171 29.18H459.141V30H458.571V22.6ZM460.601 29.61C461.114 29.61 461.514 29.4467 461.801 29.12C462.087 28.7933 462.231 28.3533 462.231 27.8V27.08C462.231 26.5267 462.087 26.0867 461.801 25.76C461.514 25.4333 461.114 25.27 460.601 25.27C460.401 25.27 460.211 25.3 460.031 25.36C459.857 25.4133 459.704 25.49 459.571 25.59C459.437 25.69 459.331 25.81 459.251 25.95C459.177 26.09 459.141 26.2433 459.141 26.41V28.44C459.141 28.62 459.177 28.7833 459.251 28.93C459.331 29.07 459.437 29.1933 459.571 29.3C459.704 29.4 459.857 29.4767 460.031 29.53C460.211 29.5833 460.401 29.61 460.601 29.61ZM467.833 30C467.613 30 467.453 29.9433 467.353 29.83C467.253 29.7167 467.196 29.5633 467.183 29.37V29.19H467.133C467.019 29.4767 466.833 29.7033 466.573 29.87C466.313 30.0367 465.983 30.12 465.583 30.12C465.043 30.12 464.626 29.99 464.333 29.73C464.039 29.4633 463.893 29.09 463.893 28.61C463.893 28.1567 464.053 27.7967 464.373 27.53C464.699 27.2633 465.233 27.13 465.973 27.13H467.153V26.53C467.153 25.6833 466.716 25.26 465.843 25.26C465.503 25.26 465.219 25.3333 464.993 25.48C464.766 25.62 464.583 25.8233 464.443 26.09L464.083 25.79C464.223 25.49 464.436 25.2433 464.723 25.05C465.016 24.8567 465.396 24.76 465.863 24.76C466.463 24.76 466.923 24.91 467.243 25.21C467.563 25.51 467.723 25.93 467.723 26.47V29.5H468.413V30H467.833ZM465.663 29.63C465.869 29.63 466.063 29.6033 466.243 29.55C466.423 29.4967 466.579 29.4233 466.713 29.33C466.853 29.23 466.959 29.1133 467.033 28.98C467.113 28.84 467.153 28.6833 467.153 28.51V27.56H465.953C465.439 27.56 465.066 27.6433 464.833 27.81C464.606 27.97 464.493 28.1933 464.493 28.48V28.72C464.493 29.02 464.599 29.2467 464.813 29.4C465.026 29.5533 465.309 29.63 465.663 29.63ZM470.216 30C470.01 30 469.853 29.9433 469.746 29.83C469.64 29.7167 469.586 29.5667 469.586 29.38V22.6H470.156V29.5H470.946V30H470.216ZM475.743 30C475.523 30 475.363 29.9433 475.263 29.83C475.163 29.7167 475.106 29.5633 475.093 29.37V29.19H475.043C474.93 29.4767 474.743 29.7033 474.483 29.87C474.223 30.0367 473.893 30.12 473.493 30.12C472.953 30.12 472.536 29.99 472.243 29.73C471.95 29.4633 471.803 29.09 471.803 28.61C471.803 28.1567 471.963 27.7967 472.283 27.53C472.61 27.2633 473.143 27.13 473.883 27.13H475.063V26.53C475.063 25.6833 474.626 25.26 473.753 25.26C473.413 25.26 473.13 25.3333 472.903 25.48C472.676 25.62 472.493 25.8233 472.353 26.09L471.993 25.79C472.133 25.49 472.346 25.2433 472.633 25.05C472.926 24.8567 473.306 24.76 473.773 24.76C474.373 24.76 474.833 24.91 475.153 25.21C475.473 25.51 475.633 25.93 475.633 26.47V29.5H476.323V30H475.743ZM473.573 29.63C473.78 29.63 473.973 29.6033 474.153 29.55C474.333 29.4967 474.49 29.4233 474.623 29.33C474.763 29.23 474.87 29.1133 474.943 28.98C475.023 28.84 475.063 28.6833 475.063 28.51V27.56H473.863C473.35 27.56 472.976 27.6433 472.743 27.81C472.516 27.97 472.403 28.1933 472.403 28.48V28.72C472.403 29.02 472.51 29.2467 472.723 29.4C472.936 29.5533 473.22 29.63 473.573 29.63ZM477.496 30V24.88H478.066V25.69H478.096C478.21 25.4233 478.386 25.2033 478.626 25.03C478.866 24.85 479.193 24.76 479.606 24.76C480.153 24.76 480.576 24.93 480.876 25.27C481.183 25.6033 481.336 26.0833 481.336 26.71V30H480.766V26.81C480.766 26.29 480.653 25.9033 480.426 25.65C480.206 25.3967 479.883 25.27 479.456 25.27C479.276 25.27 479.103 25.2933 478.936 25.34C478.77 25.3867 478.62 25.4567 478.486 25.55C478.36 25.6433 478.256 25.7633 478.176 25.91C478.103 26.05 478.066 26.2133 478.066 26.4V30H477.496ZM484.931 30.12C484.225 30.12 483.678 29.8867 483.291 29.42C482.911 28.9533 482.721 28.2933 482.721 27.44C482.721 26.5867 482.911 25.9267 483.291 25.46C483.678 24.9933 484.225 24.76 484.931 24.76C485.405 24.76 485.788 24.8633 486.081 25.07C486.375 25.2767 486.598 25.55 486.751 25.89L486.271 26.13C486.151 25.85 485.981 25.6367 485.761 25.49C485.548 25.3433 485.271 25.27 484.931 25.27C484.411 25.27 484.015 25.4367 483.741 25.77C483.468 26.1033 483.331 26.54 483.331 27.08V27.8C483.331 28.34 483.468 28.7767 483.741 29.11C484.015 29.4433 484.411 29.61 484.931 29.61C485.285 29.61 485.581 29.5333 485.821 29.38C486.061 29.2267 486.255 29.0067 486.401 28.72L486.821 29C486.655 29.34 486.415 29.6133 486.101 29.82C485.795 30.02 485.405 30.12 484.931 30.12ZM489.844 30.12C489.504 30.12 489.194 30.06 488.914 29.94C488.641 29.82 488.404 29.6467 488.204 29.42C488.011 29.1867 487.861 28.9033 487.754 28.57C487.654 28.2367 487.604 27.86 487.604 27.44C487.604 27.02 487.654 26.6467 487.754 26.32C487.861 25.9867 488.011 25.7067 488.204 25.48C488.404 25.2467 488.641 25.07 488.914 24.95C489.187 24.8233 489.494 24.76 489.834 24.76C490.161 24.76 490.457 24.8233 490.724 24.95C490.991 25.07 491.217 25.24 491.404 25.46C491.591 25.68 491.734 25.9467 491.834 26.26C491.941 26.5667 491.994 26.9067 491.994 27.28V27.55H488.204V27.8C488.204 28.0667 488.241 28.3133 488.314 28.54C488.394 28.76 488.504 28.95 488.644 29.11C488.791 29.27 488.967 29.3967 489.174 29.49C489.381 29.5767 489.614 29.62 489.874 29.62C490.621 29.62 491.137 29.2767 491.424 28.59L491.844 28.87C491.684 29.25 491.431 29.5533 491.084 29.78C490.744 30.0067 490.331 30.12 489.844 30.12ZM489.834 25.24C489.587 25.24 489.364 25.2867 489.164 25.38C488.964 25.4667 488.791 25.59 488.644 25.75C488.504 25.91 488.394 26.1033 488.314 26.33C488.241 26.55 488.204 26.7933 488.204 27.06V27.11H491.374V27.03C491.374 26.7633 491.337 26.52 491.264 26.3C491.191 26.0733 491.084 25.8833 490.944 25.73C490.811 25.5767 490.647 25.4567 490.454 25.37C490.267 25.2833 490.061 25.24 489.834 25.24ZM498.017 23.55V30H497.417V23.55H495.077V23.02H500.357V23.55H498.017ZM501.041 30V24.88H501.611V25.8H501.651C501.751 25.56 501.921 25.3467 502.161 25.16C502.401 24.9733 502.741 24.88 503.181 24.88H503.521V25.44H503.071C502.645 25.44 502.295 25.5333 502.021 25.72C501.748 25.9067 501.611 26.1667 501.611 26.5V30H501.041ZM504.896 23.49C504.762 23.49 504.662 23.4567 504.596 23.39C504.536 23.3233 504.506 23.2367 504.506 23.13V23.03C504.506 22.9233 504.536 22.8367 504.596 22.77C504.662 22.7033 504.762 22.67 504.896 22.67C505.029 22.67 505.126 22.7033 505.186 22.77C505.252 22.8367 505.286 22.9233 505.286 23.03V23.13C505.286 23.2367 505.252 23.3233 505.186 23.39C505.126 23.4567 505.029 23.49 504.896 23.49ZM504.616 24.88H505.186V30H504.616V24.88ZM511.247 30.6C511.247 31.12 511.037 31.5033 510.617 31.75C510.204 31.9967 509.594 32.12 508.787 32.12C508.007 32.12 507.444 32.0067 507.097 31.78C506.751 31.5533 506.577 31.24 506.577 30.84C506.577 30.5467 506.654 30.3133 506.807 30.14C506.961 29.9667 507.177 29.84 507.457 29.76V29.68C507.137 29.5533 506.977 29.32 506.977 28.98C506.977 28.7267 507.061 28.5333 507.227 28.4C507.394 28.2667 507.601 28.1667 507.847 28.1V28.06C507.547 27.9267 507.314 27.7267 507.147 27.46C506.981 27.1933 506.897 26.8733 506.897 26.5C506.897 26.24 506.941 26.0033 507.027 25.79C507.114 25.5767 507.237 25.3933 507.397 25.24C507.564 25.0867 507.761 24.97 507.987 24.89C508.221 24.8033 508.477 24.76 508.757 24.76C509.151 24.76 509.494 24.8433 509.787 25.01V24.76C509.787 24.6067 509.824 24.4833 509.897 24.39C509.971 24.29 510.091 24.24 510.257 24.24H511.137V24.74H510.097V25.23C510.271 25.3833 510.404 25.57 510.497 25.79C510.591 26.0033 510.637 26.24 510.637 26.5C510.637 26.76 510.591 26.9967 510.497 27.21C510.411 27.4233 510.284 27.61 510.117 27.77C509.957 27.9233 509.761 28.0433 509.527 28.13C509.301 28.21 509.047 28.25 508.767 28.25C508.674 28.25 508.584 28.2433 508.497 28.23C508.411 28.2167 508.324 28.2033 508.237 28.19C508.017 28.25 507.834 28.3333 507.687 28.44C507.547 28.54 507.477 28.6767 507.477 28.85C507.477 29.1567 507.751 29.31 508.297 29.31H509.487C510.107 29.31 510.554 29.4267 510.827 29.66C511.107 29.8867 511.247 30.2 511.247 30.6ZM510.697 30.64C510.697 30.3933 510.607 30.1967 510.427 30.05C510.254 29.91 509.941 29.84 509.487 29.84H507.827C507.607 29.9133 507.434 30.0233 507.307 30.17C507.181 30.3167 507.117 30.5 507.117 30.72C507.117 30.9867 507.227 31.2067 507.447 31.38C507.667 31.56 508.001 31.65 508.447 31.65H509.087C509.587 31.65 509.981 31.5667 510.267 31.4C510.554 31.24 510.697 30.9867 510.697 30.64ZM508.767 27.79C509.161 27.79 509.467 27.6933 509.687 27.5C509.914 27.3 510.027 27.02 510.027 26.66V26.34C510.027 25.9867 509.914 25.7133 509.687 25.52C509.467 25.32 509.161 25.22 508.767 25.22C508.367 25.22 508.057 25.32 507.837 25.52C507.617 25.7133 507.507 25.9867 507.507 26.34V26.66C507.507 27.02 507.617 27.3 507.837 27.5C508.064 27.6933 508.374 27.79 508.767 27.79ZM516.53 30.6C516.53 31.12 516.32 31.5033 515.9 31.75C515.487 31.9967 514.877 32.12 514.07 32.12C513.29 32.12 512.727 32.0067 512.38 31.78C512.034 31.5533 511.86 31.24 511.86 30.84C511.86 30.5467 511.937 30.3133 512.09 30.14C512.244 29.9667 512.46 29.84 512.74 29.76V29.68C512.42 29.5533 512.26 29.32 512.26 28.98C512.26 28.7267 512.344 28.5333 512.51 28.4C512.677 28.2667 512.884 28.1667 513.13 28.1V28.06C512.83 27.9267 512.597 27.7267 512.43 27.46C512.264 27.1933 512.18 26.8733 512.18 26.5C512.18 26.24 512.224 26.0033 512.31 25.79C512.397 25.5767 512.52 25.3933 512.68 25.24C512.847 25.0867 513.044 24.97 513.27 24.89C513.504 24.8033 513.76 24.76 514.04 24.76C514.434 24.76 514.777 24.8433 515.07 25.01V24.76C515.07 24.6067 515.107 24.4833 515.18 24.39C515.254 24.29 515.374 24.24 515.54 24.24H516.42V24.74H515.38V25.23C515.554 25.3833 515.687 25.57 515.78 25.79C515.874 26.0033 515.92 26.24 515.92 26.5C515.92 26.76 515.874 26.9967 515.78 27.21C515.694 27.4233 515.567 27.61 515.4 27.77C515.24 27.9233 515.044 28.0433 514.81 28.13C514.584 28.21 514.33 28.25 514.05 28.25C513.957 28.25 513.867 28.2433 513.78 28.23C513.694 28.2167 513.607 28.2033 513.52 28.19C513.3 28.25 513.117 28.3333 512.97 28.44C512.83 28.54 512.76 28.6767 512.76 28.85C512.76 29.1567 513.034 29.31 513.58 29.31H514.77C515.39 29.31 515.837 29.4267 516.11 29.66C516.39 29.8867 516.53 30.2 516.53 30.6ZM515.98 30.64C515.98 30.3933 515.89 30.1967 515.71 30.05C515.537 29.91 515.224 29.84 514.77 29.84H513.11C512.89 29.9133 512.717 30.0233 512.59 30.17C512.464 30.3167 512.4 30.5 512.4 30.72C512.4 30.9867 512.51 31.2067 512.73 31.38C512.95 31.56 513.284 31.65 513.73 31.65H514.37C514.87 31.65 515.264 31.5667 515.55 31.4C515.837 31.24 515.98 30.9867 515.98 30.64ZM514.05 27.79C514.444 27.79 514.75 27.6933 514.97 27.5C515.197 27.3 515.31 27.02 515.31 26.66V26.34C515.31 25.9867 515.197 25.7133 514.97 25.52C514.75 25.32 514.444 25.22 514.05 25.22C513.65 25.22 513.34 25.32 513.12 25.52C512.9 25.7133 512.79 25.9867 512.79 26.34V26.66C512.79 27.02 512.9 27.3 513.12 27.5C513.347 27.6933 513.657 27.79 514.05 27.79ZM519.395 30.12C519.055 30.12 518.745 30.06 518.465 29.94C518.191 29.82 517.955 29.6467 517.755 29.42C517.561 29.1867 517.411 28.9033 517.305 28.57C517.205 28.2367 517.155 27.86 517.155 27.44C517.155 27.02 517.205 26.6467 517.305 26.32C517.411 25.9867 517.561 25.7067 517.755 25.48C517.955 25.2467 518.191 25.07 518.465 24.95C518.738 24.8233 519.045 24.76 519.385 24.76C519.711 24.76 520.008 24.8233 520.275 24.95C520.541 25.07 520.768 25.24 520.955 25.46C521.141 25.68 521.285 25.9467 521.385 26.26C521.491 26.5667 521.545 26.9067 521.545 27.28V27.55H517.755V27.8C517.755 28.0667 517.791 28.3133 517.865 28.54C517.945 28.76 518.055 28.95 518.195 29.11C518.341 29.27 518.518 29.3967 518.725 29.49C518.931 29.5767 519.165 29.62 519.425 29.62C520.171 29.62 520.688 29.2767 520.975 28.59L521.395 28.87C521.235 29.25 520.981 29.5533 520.635 29.78C520.295 30.0067 519.881 30.12 519.395 30.12ZM519.385 25.24C519.138 25.24 518.915 25.2867 518.715 25.38C518.515 25.4667 518.341 25.59 518.195 25.75C518.055 25.91 517.945 26.1033 517.865 26.33C517.791 26.55 517.755 26.7933 517.755 27.06V27.11H520.925V27.03C520.925 26.7633 520.888 26.52 520.815 26.3C520.741 26.0733 520.635 25.8833 520.495 25.73C520.361 25.5767 520.198 25.4567 520.005 25.37C519.818 25.2833 519.611 25.24 519.385 25.24ZM522.994 30V24.88H523.564V25.8H523.604C523.704 25.56 523.874 25.3467 524.114 25.16C524.354 24.9733 524.694 24.88 525.134 24.88H525.474V25.44H525.024C524.598 25.44 524.248 25.5333 523.974 25.72C523.701 25.9067 523.564 26.1667 523.564 26.5V30H522.994ZM528.369 30.12C528.029 30.12 527.719 30.06 527.439 29.94C527.166 29.82 526.929 29.6467 526.729 29.42C526.536 29.1867 526.386 28.9033 526.279 28.57C526.179 28.2367 526.129 27.86 526.129 27.44C526.129 27.02 526.179 26.6467 526.279 26.32C526.386 25.9867 526.536 25.7067 526.729 25.48C526.929 25.2467 527.166 25.07 527.439 24.95C527.713 24.8233 528.019 24.76 528.359 24.76C528.686 24.76 528.983 24.8233 529.249 24.95C529.516 25.07 529.743 25.24 529.929 25.46C530.116 25.68 530.259 25.9467 530.359 26.26C530.466 26.5667 530.519 26.9067 530.519 27.28V27.55H526.729V27.8C526.729 28.0667 526.766 28.3133 526.839 28.54C526.919 28.76 527.029 28.95 527.169 29.11C527.316 29.27 527.493 29.3967 527.699 29.49C527.906 29.5767 528.139 29.62 528.399 29.62C529.146 29.62 529.663 29.2767 529.949 28.59L530.369 28.87C530.209 29.25 529.956 29.5533 529.609 29.78C529.269 30.0067 528.856 30.12 528.369 30.12ZM528.359 25.24C528.113 25.24 527.889 25.2867 527.689 25.38C527.489 25.4667 527.316 25.59 527.169 25.75C527.029 25.91 526.919 26.1033 526.839 26.33C526.766 26.55 526.729 26.7933 526.729 27.06V27.11H529.899V27.03C529.899 26.7633 529.863 26.52 529.789 26.3C529.716 26.0733 529.609 25.8833 529.469 25.73C529.336 25.5767 529.173 25.4567 528.979 25.37C528.793 25.2833 528.586 25.24 528.359 25.24ZM535.279 29.18H535.249C535.116 29.4667 534.919 29.6967 534.659 29.87C534.406 30.0367 534.082 30.12 533.689 30.12C533.029 30.12 532.512 29.8867 532.139 29.42C531.766 28.9533 531.579 28.2933 531.579 27.44C531.579 26.5867 531.766 25.9267 532.139 25.46C532.512 24.9933 533.029 24.76 533.689 24.76C534.082 24.76 534.409 24.8467 534.669 25.02C534.929 25.1867 535.122 25.4133 535.249 25.7H535.279V22.6H535.849V30H535.279V29.18ZM533.819 29.61C534.019 29.61 534.206 29.5833 534.379 29.53C534.559 29.4767 534.716 29.4 534.849 29.3C534.982 29.1933 535.086 29.07 535.159 28.93C535.239 28.7833 535.279 28.62 535.279 28.44V26.41C535.279 26.2433 535.239 26.09 535.159 25.95C535.086 25.81 534.982 25.69 534.849 25.59C534.716 25.49 534.559 25.4133 534.379 25.36C534.206 25.3 534.019 25.27 533.819 25.27C533.306 25.27 532.906 25.4333 532.619 25.76C532.332 26.0867 532.189 26.5267 532.189 27.08V27.8C532.189 28.3533 532.332 28.7933 532.619 29.12C532.906 29.4467 533.306 29.61 533.819 29.61Z" fill="#C6C6C6"/>
</g>
<defs>
<linearGradient id="paint0_linear_332_16449" x1="345.5" y1="15.6836" x2="345.5" y2="218.316" gradientUnits="userSpaceOnUse">
<stop stop-color="#212121"/>
<stop offset="1" stop-color="#272727"/>
</linearGradient>
<clipPath id="clip0_332_16449">
<rect width="695" height="274" fill="white"/>
</clipPath>
</defs>
</svg>
