<svg width="512" height="512" viewBox="0 0 512 512" fill="none" xmlns="http://www.w3.org/2000/svg">
<g clip-path="url(#clip0_828_41)">
<path fill-rule="evenodd" clip-rule="evenodd" d="M255.998 0C397.384 0 511.997 114.616 511.997 255.998C511.997 286.542 506.647 315.837 496.835 342.997C476.86 320.313 447.602 306 415 306C354.8 306 306 354.802 306 415C306 447.601 320.312 476.86 342.997 496.835C315.837 506.647 286.543 511.997 255.998 511.997C114.612 511.997 0 397.381 0 255.998C0 114.616 114.612 0 255.998 0Z" fill="#00D2FF"/>
<path fill-rule="evenodd" clip-rule="evenodd" d="M411.85 231.839C417.68 235.532 428.763 242.611 428.763 243.219L428.749 243.215C428.75 243.299 428.76 243.41 428.773 243.545C428.885 244.76 429.184 247.986 424.769 251.82C419.861 256.084 410.645 262.839 410.645 262.839C410.645 262.839 411.14 265.934 412.434 268.409C412.724 268.964 413.109 269.579 413.522 270.238C414.949 272.517 416.701 275.313 415.946 277.908C415.557 279.246 414.232 280.474 412.907 281.702C410.921 283.542 408.936 285.382 410.109 287.592C410.887 289.056 412.115 290.12 413.224 291.082C414.905 292.539 416.315 293.761 415.478 295.784C414.899 297.185 413.387 299.004 411.871 300.827C410.241 302.787 408.606 304.754 408.121 306.214C351.126 309.763 306 357.112 306 415C306 419.38 306.258 423.7 306.761 427.944C270.782 436.971 232.899 435.148 197.904 422.653C196.799 422.267 195.786 421.657 194.927 420.863C194.067 420.068 193.381 419.106 192.91 418.034C192.438 416.963 192.193 415.807 192.187 414.636C192.182 413.466 192.418 412.308 192.879 411.232C196.159 403.692 198.89 396.156 200.938 390.114C201.822 387.482 202.819 384.912 203.901 382.362C207.044 374.945 213.485 359.937 217.803 350.81C263.876 361.012 291.899 335.32 299.177 327.47C299.397 327.227 299.552 326.933 299.629 326.614C299.706 326.296 299.702 325.963 299.617 325.646C299.532 325.33 299.369 325.04 299.143 324.802C298.917 324.565 298.635 324.388 298.323 324.288C274.887 316.414 244.683 322.404 224.015 338.044C230.596 324.828 238.01 311.011 246.1 297.374C293.964 303.911 319.376 275.382 325.766 266.924C325.957 266.665 326.081 266.363 326.126 266.044C326.171 265.726 326.136 265.401 326.025 265.099C325.913 264.798 325.728 264.528 325.486 264.316C325.244 264.104 324.953 263.955 324.64 263.883C302.419 258.49 275.672 265.511 256.589 280.407C262.115 271.874 267.893 263.555 273.891 255.654C323.8 232.354 331.064 186.985 332.108 175.202C332.138 174.881 332.086 174.559 331.958 174.264C331.83 173.969 331.63 173.711 331.376 173.513C331.122 173.316 330.822 173.186 330.504 173.135C330.187 173.084 329.861 173.114 329.558 173.222C318.25 177.185 275.222 195.88 266.607 252.855C263.425 257.114 258.558 263.9 252.561 273.068C260.831 238.601 247.475 214.677 242.56 207.379C242.378 207.11 242.132 206.891 241.843 206.743C241.555 206.595 241.233 206.522 240.909 206.531C240.585 206.539 240.268 206.63 239.988 206.794C239.708 206.958 239.474 207.189 239.307 207.468C233.644 216.912 215.677 252.732 239.788 293.596C233.238 304.652 226.067 317.602 218.694 332.327C221.196 292.319 199.876 270.157 192.866 264.013C192.626 263.801 192.337 263.653 192.026 263.582C191.714 263.51 191.39 263.518 191.082 263.604C190.774 263.69 190.493 263.852 190.264 264.075C190.034 264.298 189.865 264.574 189.77 264.88C186.565 275.174 177.779 313.56 211.192 347.823C207.024 356.718 202.843 366.17 198.719 376.133C198.416 376.024 198.156 375.932 197.985 375.884C192.124 374.117 186.506 371.627 181.26 368.47C176.955 365.884 172.376 363.785 167.607 362.21C154.28 357.838 151.926 351.988 148.068 342.402C146.553 338.637 144.807 334.295 142.072 329.241C141.441 328.074 133.767 320.066 132.119 318.612C132.068 318.568 131.946 318.484 131.766 318.361C130.521 317.505 126.507 314.748 124.333 310.164C122.063 305.355 120.77 300.887 120.288 296.531C119.667 290.695 117.257 286.861 111.567 284.892C86.7052 276.298 94.5779 246.195 96.9191 237.243C97.1518 236.353 97.3299 235.672 97.4157 235.242C98.0226 232.253 96.2267 226.639 94.7332 221.97C94.219 220.362 93.7407 218.867 93.4085 217.629C93.3231 217.189 93.2121 216.671 93.0831 216.068C93.042 215.876 92.9991 215.675 92.9545 215.465C90.9714 205.956 95.3882 197.907 98.682 194.6C100.231 193.044 103.56 191.05 106.9 189.05C110.66 186.797 114.435 184.536 115.701 182.882C116.797 181.459 117.788 179.94 118.779 178.422C119.909 176.69 121.039 174.96 122.323 173.372C125.511 169.413 135.245 161.648 148.4 154.599C153.659 151.789 156.053 145.972 157.95 141.365C158.922 139.004 159.762 136.962 160.791 135.805C163.55 132.693 167.068 131.239 170.634 129.764C173.765 128.469 176.933 127.159 179.659 124.698C181.042 123.45 182.717 122.497 184.388 121.547C186.273 120.474 188.152 119.405 189.599 117.92C203.143 104.041 221.288 98.4159 239.235 95.0743C249.201 93.2145 260.108 95.2487 270.707 97.2254C272.966 97.6467 275.211 98.0654 277.43 98.4432C279.233 98.7598 281.016 99.1838 282.769 99.713C311.137 100.658 345.287 106.584 357.626 118.619C363.726 124.548 368.285 131.877 370.907 139.97C372.971 146.267 375.777 152.297 379.266 157.93L386.851 170.28C391.665 178.09 393.216 187.479 391.169 196.422C389.988 201.515 389.363 206.853 390.882 209.82C393.241 214.462 400.511 222.005 404.876 226.32C406.994 228.407 409.332 230.258 411.85 231.839Z" fill="black"/>
<path d="M512 415C512 361.429 468.572 318 415 318C361.428 318 318 361.429 318 415C318 468.571 361.428 512 415 512C468.572 512 512 468.571 512 415Z" fill="#FFEDAC"/>
<path d="M469.861 411.463C470.087 415.495 470.537 424.454 466.48 434.757C462.649 444.388 457.014 450.436 454.309 453.124C451.605 456.036 443.716 463.875 431.319 467.683C430.643 467.907 426.586 469.027 421.177 469.699C412.612 470.595 405.85 469.251 403.596 468.803C396.383 467.459 391.199 464.771 388.269 463.203C386.015 461.859 380.155 458.499 374.295 452.228C365.955 442.821 362.8 433.413 362.124 431.173C359.87 423.782 359.87 417.51 360.095 414.375C360.095 411.239 360.095 405.191 362.575 397.576C363.476 394.888 365.955 387.945 372.041 380.553C380.606 370.026 390.523 365.546 394.355 363.978C399.539 361.962 412.161 357.931 427.262 361.291C429.516 361.962 446.421 365.994 458.366 381.449C465.579 390.408 467.833 399.368 468.284 401.16C469.411 405.639 469.636 409.447 469.861 411.463ZM449.576 430.501C450.928 427.366 454.084 419.078 452.281 408.551C450.703 398.92 445.744 392.648 443.49 389.96C440.786 387.049 434.926 381.225 425.459 378.537C422.078 377.417 413.739 375.625 403.821 378.537C392.326 381.897 386.015 389.96 383.987 392.872C379.028 399.816 377.676 406.759 377.225 410.791C376.098 420.198 378.803 427.366 379.704 429.606C383.987 439.909 391.65 445.284 394.58 447.076C402.694 452.228 410.358 452.676 413.062 452.9C414.189 452.9 415.993 453.124 418.246 452.9C429.065 452.004 436.503 446.404 438.532 444.612C441.236 442.373 446.195 437.893 449.576 430.501Z" fill="black"/>
</g>
<defs>
<clipPath id="clip0_828_41">
<rect width="511.997" height="512" fill="white"/>
</clipPath>
</defs>
</svg>
