<?xml version="1.0" encoding="UTF-8" standalone="no"?>
<!-- Generator: Adobe Illustrator 28.0.0, SVG Export Plug-In . SVG Version: 6.00 Build 0)  -->
<svg version="1.1" id="Layer_1" x="0px" y="0px" viewBox="0 0 559.93689 199.10001" enable-background="new 0 0 1366 199" xml:space="preserve" sodipodi:docname="logo (1).svg" width="559.93689" height="199.10001" inkscape:version="1.3.1 (9b9bdc1480, 2023-11-25, custom)" xmlns:inkscape="http://www.inkscape.org/namespaces/inkscape" xmlns:sodipodi="http://sodipodi.sourceforge.net/DTD/sodipodi-0.dtd" xmlns="http://www.w3.org/2000/svg" xmlns:svg="http://www.w3.org/2000/svg"><defs id="defs16"/><sodipodi:namedview id="namedview16" pagecolor="#ffffff" bordercolor="#000000" borderopacity="0.25" inkscape:showpageshadow="2" inkscape:pageopacity="0.0" inkscape:pagecheckerboard="0" inkscape:deskcolor="#d1d1d1" inkscape:zoom="1.3828697" inkscape:cx="233.57226" inkscape:cy="-16.270513" inkscape:window-width="2556" inkscape:window-height="1417" inkscape:window-x="2560" inkscape:window-y="1440" inkscape:window-maximized="1" inkscape:current-layer="Layer_1"/>
<path fill="#ffffff" d="m 4.217365,199 c -0.8,-4.7 -1.8,-9.4 -2.5,-14.2 -0.7,-5.4 -1.39999999,-10.9 -1.69999999,-16.4 -0.3,-6.9 3.29999999,-11.8 9.79999999,-14.1 1.4,-0.5 2.8,-0.9 4.3,-1.4 16,-5.2 32,-10.4 48,-15.6 10.1,-3.3 20.1,-6.6 30.2,-9.8 6,-1.9 7.3,-1 8.300005,5.2 1,6.5 1.9,13 2.9,19.5 0.7,4.7 0.1,9.3 -2.5,13.3 -1.900005,3 -4.900005,4.6 -8.100005,5.7 -8.1,2.6 -16.3,5.2 -24.4,7.9 -14.9,4.8 -29.8,9.6 -44.6,14.5 -5.4,1.8 -10.8,3.6 -16.2,5.5 -1.2,-0.1 -2.4,-0.1 -3.5,-0.1 z" id="path1" style="fill:#4b42ce;fill-opacity:1"/>
<path fill="#ffffff" d="m 139.81737,0 c 1.2,8.9 2.5,17.8 3.5,26.8 0.3,3.1 0.1,6.4 -0.6,9.4 -1.1,4.6 -4.6,7.4 -8.9,8.9 -4.3,1.6 -8.6,2.9 -12.9,4.4 -14.1,4.8 -28.200005,9.6 -42.200005,14.5 -8.9,3.1 -17.7,6.3 -26.6,9.4 -1.2,0.4 -2.4,0.8 -3.6,1 -2.8,0.4 -4.3,-0.6 -4.8,-3.4 -0.8,-4.2 -1.3,-8.4 -1.9,-12.6 -0.5,-3.6 -1.2,-7.3 -1.6,-10.9 -0.8,-8.2 3.1,-15 11.4,-17.8 7.3,-2.5 14.5,-5 21.8,-7.5 13.6,-4.8 27.400005,-9.3 40.900005,-14.4 7.9,-3 15.9,-5.7 24.2,-7.4 0.2,0 0.3,-0.2 0.5,-0.3 0.3,-0.1 0.5,-0.1 0.8,-0.1 z" id="path2" style="fill:#4b42ce;fill-opacity:1"/>

<path fill="#ffffff" d="m 267.76192,67.748036 c -3.79121,-2.419921 -7.34043,-5.081834 -11.2123,-6.937106 -10.24433,-4.920505 -21.05331,-6.372458 -32.2656,-3.468553 -2.17793,0.564648 -4.2752,1.61328 -6.13047,2.823241 -5.56582,3.387889 -7.58242,10.566987 -6.0498,16.45546 0.56464,2.258593 1.85527,4.194529 3.7912,5.485154 1.93594,1.290624 4.0332,2.500585 6.21114,3.387888 6.69511,2.823242 13.79354,4.355858 20.81131,6.049803 6.45312,1.532616 12.82558,3.307224 18.55273,6.695113 3.30722,1.935944 6.45312,4.275194 9.1957,6.937104 4.35585,4.19453 6.04979,9.67969 6.29178,15.56815 0.40333,9.27637 -2.25859,17.42343 -9.03436,24.11855 -4.83984,4.75918 -10.56699,7.58242 -16.93945,9.11503 -19.19803,4.35586 -37.75076,2.82325 -55.33552,-6.77577 -1.93593,-1.04864 -3.62987,-2.58125 -5.40449,-4.03321 -0.24199,-0.16133 -0.40331,-0.80663 -0.24199,-1.12929 2.09727,-4.75917 4.19453,-9.43769 6.37246,-14.19687 3.38789,2.09727 6.61445,4.43653 10.08301,6.21113 2.82324,1.45195 5.88846,2.66191 8.9537,3.46856 9.35702,2.58125 18.87539,3.30722 28.39374,1.12929 2.33925,-0.56465 4.67851,-1.45195 6.69511,-2.74258 5.08183,-3.14589 7.34042,-8.22772 6.45312,-14.19686 -0.32265,-2.33926 -1.37129,-4.43652 -3.30722,-5.72715 -2.09726,-1.45195 -4.43652,-2.82324 -6.77578,-3.87187 -5.96914,-2.74258 -12.3416,-4.11386 -18.79472,-5.48516 -6.29179,-1.29062 -12.50292,-2.9039 -18.23007,-5.80781 -3.62988,-1.935932 -7.1791,-4.275188 -10.32499,-7.017765 -5.00117,-4.275193 -7.09844,-10.244331 -7.58242,-16.616788 -0.64531,-8.873043 1.45195,-16.858781 7.25976,-23.795887 4.92051,-5.969137 11.37363,-9.195698 18.55272,-11.615619 10.08301,-3.307225 20.408,-3.22656 30.57167,-1.129296 8.79238,1.855273 17.42343,4.678513 24.52186,10.64765 1.69394,1.451953 1.69394,1.371289 0.72598,3.468553 -1.85527,4.436521 -3.87188,8.792379 -5.80781,12.986908 z" id="path4" style="stroke-width:0.80664"/>




<path fill="#ffffff" d="m 407.39134,132.19859 c 1.85527,4.43652 3.62988,8.71171 5.40449,12.98691 0.40332,0.8873 0,1.37129 -0.64531,1.85527 -5.1625,3.87187 -10.88965,6.21113 -17.18144,7.58242 -11.13164,2.41992 -22.1826,2.17793 -32.74959,-2.58125 -3.30723,-1.53262 -6.53378,-3.54922 -9.1957,-6.04981 -5.56582,-5.24316 -9.11504,-11.77694 -10.64765,-19.27869 -2.33926,-11.05098 -1.93593,-21.94062 2.58125,-32.507605 3.30723,-7.82441 8.63104,-13.874212 16.21346,-17.907413 10.88965,-5.888473 22.10195,-6.130465 33.15292,-1.532617 7.58242,3.145898 12.98691,9.115036 16.29413,16.858781 3.22656,7.582415 4.0332,15.568154 3.87188,23.876554 -18.14941,0 -36.13749,0 -54.69021,0 0.56465,3.30722 0.80664,6.53378 1.61328,9.51835 2.82324,10.64765 10.00233,15.72948 21.94061,15.64882 7.42109,0 14.3582,-2.0166 20.64999,-5.96913 1.20997,-0.64532 2.25859,-1.61329 3.38789,-2.50059 z m -46.78513,-27.42577 c 12.3416,0 24.4412,0 36.78279,0 -0.40332,-1.93593 -0.72597,-3.79121 -1.1293,-5.565819 -1.45194,-5.727142 -4.9205,-9.921671 -10.40566,-11.857608 -4.67851,-1.693945 -9.51835,-1.532616 -14.19686,0.725977 -6.93711,3.307224 -9.67968,9.43769 -11.05097,16.69745 z" id="path9" style="stroke-width:0.80664"/>
<path fill="#ffffff" d="m 496.36376,115.66246 c -18.06875,0 -36.05683,0 -54.28689,0 0.32266,6.21113 1.29062,12.01895 4.83984,17.18144 3.54921,5.16249 8.71171,7.1791 14.51953,7.74374 8.79237,0.88731 16.93944,-1.12929 24.44119,-5.72714 0.56465,-0.32265 1.04864,-0.8873 1.61328,-1.29062 0.56465,-0.40333 1.1293,-0.80664 1.85528,-1.29062 0.40332,1.04862 0.72597,1.85527 1.04863,2.74257 1.29063,3.14589 2.58125,6.37246 3.95254,9.43769 0.56464,1.29062 0.40332,2.09727 -0.80664,2.98457 -5.96915,4.27519 -12.74492,6.69511 -19.92402,7.90507 -9.84101,1.61329 -19.52069,1.04864 -28.79705,-2.9039 -3.62989,-1.53262 -7.09843,-3.54922 -9.84101,-6.37246 -5.40449,-5.32383 -9.03438,-11.69628 -10.56699,-19.11737 -2.50058,-11.69628 -2.0166,-23.15058 3.22656,-34.120884 3.38789,-7.098433 8.55039,-12.502923 15.48749,-16.45546 6.93711,-3.952537 14.27754,-4.759177 22.02128,-4.275193 2.17793,0.161328 4.43652,0.483984 6.53379,1.129297 7.90507,2.177928 14.1162,6.856441 18.39139,13.793547 4.03321,6.453122 5.88848,13.632223 6.2918,21.214633 0.16133,2.2586 0,4.67852 0,7.42109 z m -17.10077,-10.88964 c -0.64532,-11.534953 -7.98574,-19.036707 -18.55273,-18.472059 -10.72831,0.483984 -17.2621,9.599018 -17.82675,18.472059 12.09961,0 24.27987,0 36.37948,0 z" id="path10" style="stroke-width:0.80664"/>

<path fill="#ffffff" d="m 335.43904,89.204665 c -6.93711,0 -13.79356,0 -20.73066,0 0,0.564649 -0.0807,1.048633 -0.0807,1.532617 0,11.534958 -0.0807,22.989248 0,34.524208 0,2.25859 0.32266,4.51718 0.88731,6.69511 1.20996,4.51718 4.43652,6.77577 8.87304,7.50175 3.06524,0.48399 6.04981,0.16133 9.03438,-0.48398 0.6453,-0.16133 1.29062,-0.242 1.93593,-0.40333 0,0.40333 0.0807,0.80665 0.0807,1.12931 0,4.51718 0,8.9537 0,13.47088 0,0.80664 -0.16133,1.29063 -1.04864,1.53262 -8.22772,2.17793 -16.45546,2.33926 -24.52186,-0.80664 -8.3084,-3.30723 -12.42226,-10.083 -14.1162,-18.47206 -0.64532,-3.06523 -0.80665,-6.21113 -0.80665,-9.35703 -0.0807,-11.61561 0,-23.23123 0,-34.846854 0,-0.564648 0,-1.20996 0,-1.935936 -5.08183,0 -10.00234,0 -15.08417,0 0,-5.081834 0,-10.083003 0,-15.245501 4.92051,0 9.84101,0 15.00351,0 0,-0.725976 0.0807,-1.290623 0.0807,-1.774608 0,-5.485153 0,-10.970307 0,-16.536124 0,-0.725977 -0.0807,-1.371288 0.88731,-1.693945 5.96913,-2.0166 11.85761,-4.113864 17.74609,-6.211129 0.24199,-0.08066 0.56464,-0.08066 0.96796,-0.161328 0,8.792378 0,17.423428 0,26.296471 7.01777,0 13.87422,0 20.89199,0 0,5.081833 0,10.002338 0,15.245499 z" id="path12" style="stroke-width:0.80664"/>

<path fill="#ffffff" d="m 528.7907,154.94585 c -6.5338,0 -12.98691,0 -19.5207,0 -0.72598,-26.94179 0.8873,-53.88358 -1.1293,-80.906021 5.96914,0 12.01894,0 18.23008,0 0.48398,4.517186 0.96796,9.034371 1.53261,13.874212 0.32266,-0.725976 0.56465,-1.129296 0.72598,-1.532616 1.61327,-3.387889 3.87187,-6.211129 6.77577,-8.550386 6.77578,-5.485154 14.51952,-6.775779 22.90859,-5.00117 1.29062,0.241992 1.69394,0.806641 1.61327,2.177928 -0.16133,5.00117 -0.16133,10.002339 -0.32265,15.003509 0,0.564648 -0.0807,1.048632 -0.0807,1.532617 -2.41992,-0.564649 -4.67851,-1.209961 -7.01777,-1.532617 -5.08183,-0.564649 -10.083,-0.241992 -14.68085,2.500585 -5.40449,3.226561 -7.74374,8.389049 -8.79237,14.277529 -0.32266,1.85527 -0.32266,3.71055 -0.32266,5.56582 0,13.55155 0,27.18378 0,40.73533 0.0807,0.56465 0.0807,1.1293 0.0807,1.85528 z" id="path14" style="stroke-width:0.80664"/>

<path fill="#ffffff" d="m 47.417365,129.3 c 0,-5.7 0,-11.2 0,-16.7 0.1,-6.3 0.1,-12.5 0.3,-18.8 0.1,-4.7 2.6,-7.9 6.7,-9.8 1.7,-0.8 3.5,-1.3 5.3,-1.9 11.9,-3.9 23.8,-7.7 35.7,-11.5 0.6,-0.2 1.2,-0.3 1.8,-0.5 0.1,0.2 0.2,0.3 0.2,0.4 -0.1,11.9 -0.2,23.8 -0.2,35.6 0,5.1 -3,7.7 -7.2,9.2 -5.8,2.1 -11.7,3.9 -17.6,5.8 -7.6,2.5 -15.2,5 -22.9,7.5 -0.6,0.2 -1.3,0.4 -2.1,0.7 z" id="path16" style="fill:#4b42ce;fill-opacity:1"/>
</svg>