<?xml version="1.0" encoding="utf-8"?>
<!-- Generator: Adobe Illustrator 27.0.0, SVG Export Plug-In . SVG Version: 6.00 Build 0)  -->
<svg version="1.1" id="Capa_1" xmlns="http://www.w3.org/2000/svg" xmlns:xlink="http://www.w3.org/1999/xlink" x="0px" y="0px"
	 viewBox="0 0 1080 1080" style="enable-background:new 0 0 1080 1080;" xml:space="preserve">
<style type="text/css">
	.st0{fill:#FDBA01;}
	.st1{fill:#380302;}
</style>
<g>
	<g>
		<path class="st0" d="M1044.3,540.1c0-99.8-29.5-197.2-85-280.1C904,177,825.2,112.3,733.1,74.1S539.5,25.9,441.7,45.4
			C343.8,64.8,254,112.8,183.4,183.3C112.9,253.8,64.8,343.8,45.4,441.6S35.9,640.7,74.1,733c38.2,92.1,102.8,170.9,185.8,226.3
			c82.9,55.4,180.4,85,280.1,85c66.2,0,131.8-13,192.9-38.4c61.2-25.4,116.8-62.5,163.7-109.3c46.8-46.8,84-102.4,109.3-163.5
			C1031.3,671.8,1044.3,606.3,1044.3,540.1"/>
	</g>
	<g>
		<path class="st1" d="M871.2,514.8c-10.7-8.1-21.8-15.6-33.3-22.5c-5-3.1-9.6-6.8-13.7-10.8c-8.6-8.5-23-23.3-27.7-32.5
			c-3-5.7-1.7-16.4,0.6-26.4c4-17.6,0.9-36.1-8.5-51.4l-14.9-24.3c-6.9-11.1-12.5-23-16.5-35.4C752,295.4,743,281,731,269.3
			c-24.3-23.8-91.6-35.4-147.5-37.3c-3.5-1-6.9-1.8-10.5-2.4c-24.9-4.3-51.4-11.2-75.3-6.6c-35.3,6.6-71,17.6-97.8,44.9
			c-5.7,5.7-13.8,8.2-19.6,13.4c-11.5,10.4-27,10.4-37.1,21.9c-6,6.7-8.8,28.6-24.5,37c-25.9,14-44.9,29.2-51.3,37
			c-4.7,5.9-8.4,12.8-13,18.8c-4.6,6-27.1,16.8-33.7,23.1c-5,5.5-8.5,12.1-10.5,19.3c-2,7.2-2.2,14.6-0.7,21.9
			c0.3,1.7,0.7,3.1,0.9,4.3c2.5,9.6,9.6,26.8,8,34.7c-1.8,9.3-25.9,79.2,28,97.8c5,1.5,9.2,4.5,12.3,8.6c3.1,4.2,4.7,9.1,4.8,14.3
			c1.2,9.3,3.8,18.5,8,26.9c3.6,6.8,8.9,12.7,15.3,16.8c6.9,6.6,13.5,13.6,19.6,21c19,35.3,13.7,52.9,50.5,64.9
			c9.3,3.1,18.5,7.3,26.9,12.3c10.4,6.2,21.5,11.2,33,14.6l1.5,0.5c8.2-19.6,16.4-38.3,24.6-55.7C377,654,394.3,578.2,400.7,558.1
			c0.2-0.6,0.5-1.2,0.9-1.6c0.5-0.5,1-0.8,1.6-0.9s1.3-0.2,1.8,0c0.6,0.1,1.2,0.5,1.6,0.9c13.8,12.1,55.8,55.8,50.9,134.7
			c14.5-29.1,28.6-54.6,41.5-76.3c-15.6-25.5-23.9-54.8-24-84.7c-0.1-29.9,7.8-59.3,23.1-85c0.3-0.6,0.8-0.9,1.4-1.3
			c0.6-0.3,1.2-0.5,1.8-0.5s1.3,0.1,1.8,0.5s1,0.7,1.4,1.3c9.7,14.4,36,61.7,19.7,129.4c11.9-18.1,21.3-31.5,27.7-39.8
			c16.8-112.3,101.7-149,124-156.8c0.6-0.2,1.3-0.2,1.8-0.2c0.6,0.1,1.3,0.3,1.7,0.7c0.5,0.3,0.9,0.9,1.2,1.5
			c0.2,0.6,0.3,1.3,0.3,1.8c-3.5,34.1-15.9,66.8-36.1,94.7c-20.2,27.8-47.3,49.8-78.7,63.9c-11.9,15.6-23.3,31.9-34,48.8
			c37.6-29.4,90.3-43.2,134-32.6c0.6,0.1,1.2,0.5,1.6,0.8c0.5,0.5,0.8,0.9,1,1.5c0.2,0.6,0.2,1.3,0.2,1.8c-0.1,0.6-0.3,1.3-0.7,1.7
			c-12.6,16.8-62.6,73-157.2,60c-15.9,26.9-30.6,54.1-43.5,80.2c40.7-30.8,100.2-42.6,146.4-27.1c0.6,0.2,1.2,0.6,1.6,1
			s0.8,1,0.9,1.6c0.1,0.6,0.2,1.3,0,2c-0.1,0.6-0.5,1.2-0.9,1.6c-14.3,15.5-69.5,66.1-160.3,46c-8.5,18-21.2,47.5-27.4,62.2
			c-2.1,5.1-4.2,10.1-5.7,15.2c-4,11.9-9.5,26.8-15.9,41.6c-0.9,2.1-1.4,4.4-1.4,6.7c0,2.3,0.5,4.6,1.4,6.7c0.9,2.1,2.3,4,3.9,5.5
			c1.7,1.6,3.7,2.8,5.9,3.6c71.6,25.6,149.4,28.5,222.7,8.3c2.4-0.7,4.6-2,6.6-3.6c1.8-1.6,3.3-3.7,4.4-6.1c1.5-3.6,3-7,3-7
			s31.7-73.6,36.3-105.6c1.4-10.1,4.5-19.8,9.2-28.8c2.4-4.5,6-8.3,10.4-11.1c4.4-2.8,9.3-4.3,14.4-4.6c24.1-1.3,75.5-4.6,94.2-10.6
			c24.9-8,14.1-53.2,12.7-58s12-16.3,14.8-22.8c2.8-6.6-6.7-8.9-10.6-16.1c-3.9-7.3,9.6-12.5,11.2-19s-4.4-13.8-6.9-18.7
			c-1.7-3.6-2.9-7.4-3.6-11.2c0,0,18.2-13.3,28-21.7c9.9-8.4,7.8-15.3,7.8-16.8"/>
	</g>
	<g>
		<path class="st1" d="M259.9,752l49.6,69.3h-46.8L226.4,768l-36.7,53.3h-41.5l49.6-69.3l-46.4-65.5h46l33.5,49.7l34.3-49.7h41.1
			L259.9,752z"/>
	</g>
</g>
</svg>
