<svg width="695" height="171" viewBox="0 0 695 171" fill="none" xmlns="http://www.w3.org/2000/svg">
<g clip-path="url(#clip0_332_16446)">
<rect width="695" height="171" fill="#1B1B1B"/>
<path d="M241 53.5H-8.5V97H704.5V48H588V65.5H402V40H241V53.5Z" fill="url(#paint0_linear_332_16446)" stroke="#434343" stroke-width="0.5"/>
<line x1="16" y1="145" x2="35" y2="145" stroke="#E25D58" stroke-width="2"/>
<path d="M45.24 151.984V151C44.632 150.96 44.116 150.812 43.692 150.556C43.276 150.292 42.92 149.964 42.624 149.572L43.332 148.936C43.588 149.28 43.868 149.556 44.172 149.764C44.484 149.964 44.844 150.092 45.252 150.148V147.064C44.428 146.88 43.824 146.612 43.44 146.26C43.064 145.9 42.876 145.408 42.876 144.784C42.876 144.464 42.932 144.18 43.044 143.932C43.164 143.676 43.328 143.456 43.536 143.272C43.744 143.088 43.992 142.944 44.28 142.84C44.568 142.728 44.888 142.656 45.24 142.624V141.64H45.984V142.612C46.528 142.66 46.996 142.8 47.388 143.032C47.788 143.256 48.132 143.568 48.42 143.968L47.688 144.52C47.488 144.24 47.248 144.012 46.968 143.836C46.688 143.652 46.356 143.532 45.972 143.476V146.284L46.08 146.308C46.912 146.492 47.516 146.764 47.892 147.124C48.276 147.476 48.468 147.968 48.468 148.6C48.468 149.288 48.244 149.844 47.796 150.268C47.356 150.684 46.752 150.928 45.984 151V151.984H45.24ZM47.52 148.66C47.52 148.252 47.4 147.94 47.16 147.724C46.928 147.508 46.532 147.332 45.972 147.196V150.148C46.452 150.084 46.828 149.924 47.1 149.668C47.38 149.404 47.52 149.068 47.52 148.66ZM43.824 144.712C43.824 145.12 43.94 145.428 44.172 145.636C44.412 145.836 44.772 146 45.252 146.128V143.476C44.82 143.532 44.472 143.664 44.208 143.872C43.952 144.08 43.824 144.36 43.824 144.712ZM50.2279 151V150.112H52.5679V143.368H52.4839L50.3719 145.336L49.7839 144.7L52.0039 142.624H53.5759V150.112H55.7359V151H50.2279ZM57.9992 151.144C57.7432 151.144 57.5552 151.08 57.4352 150.952C57.3232 150.824 57.2672 150.656 57.2672 150.448V150.292C57.2672 150.084 57.3232 149.916 57.4352 149.788C57.5552 149.66 57.7432 149.596 57.9992 149.596C58.2552 149.596 58.4392 149.66 58.5512 149.788C58.6712 149.916 58.7312 150.084 58.7312 150.292V150.448C58.7312 150.656 58.6712 150.824 58.5512 150.952C58.4392 151.08 58.2552 151.144 57.9992 151.144ZM63.2367 151.144C62.2367 151.144 61.5047 150.764 61.0407 150.004C60.5847 149.244 60.3567 148.18 60.3567 146.812C60.3567 145.444 60.5847 144.38 61.0407 143.62C61.5047 142.86 62.2367 142.48 63.2367 142.48C64.2367 142.48 64.9647 142.86 65.4207 143.62C65.8847 144.38 66.1167 145.444 66.1167 146.812C66.1167 148.18 65.8847 149.244 65.4207 150.004C64.9647 150.764 64.2367 151.144 63.2367 151.144ZM63.2367 150.268C63.5647 150.268 63.8447 150.2 64.0767 150.064C64.3087 149.928 64.4967 149.736 64.6407 149.488C64.7847 149.24 64.8887 148.948 64.9527 148.612C65.0247 148.276 65.0607 147.904 65.0607 147.496V146.128C65.0607 145.72 65.0247 145.348 64.9527 145.012C64.8887 144.676 64.7847 144.384 64.6407 144.136C64.4967 143.888 64.3087 143.696 64.0767 143.56C63.8447 143.424 63.5647 143.356 63.2367 143.356C62.9087 143.356 62.6287 143.424 62.3967 143.56C62.1647 143.696 61.9767 143.888 61.8327 144.136C61.6887 144.384 61.5807 144.676 61.5087 145.012C61.4447 145.348 61.4127 145.72 61.4127 146.128V147.496C61.4127 147.904 61.4447 148.276 61.5087 148.612C61.5807 148.948 61.6887 149.24 61.8327 149.488C61.9767 149.736 62.1647 149.928 62.3967 150.064C62.6287 150.2 62.9087 150.268 63.2367 150.268ZM70.432 151.144C69.432 151.144 68.7 150.764 68.236 150.004C67.78 149.244 67.552 148.18 67.552 146.812C67.552 145.444 67.78 144.38 68.236 143.62C68.7 142.86 69.432 142.48 70.432 142.48C71.432 142.48 72.16 142.86 72.616 143.62C73.08 144.38 73.312 145.444 73.312 146.812C73.312 148.18 73.08 149.244 72.616 150.004C72.16 150.764 71.432 151.144 70.432 151.144ZM70.432 150.268C70.76 150.268 71.04 150.2 71.272 150.064C71.504 149.928 71.692 149.736 71.836 149.488C71.98 149.24 72.084 148.948 72.148 148.612C72.22 148.276 72.256 147.904 72.256 147.496V146.128C72.256 145.72 72.22 145.348 72.148 145.012C72.084 144.676 71.98 144.384 71.836 144.136C71.692 143.888 71.504 143.696 71.272 143.56C71.04 143.424 70.76 143.356 70.432 143.356C70.104 143.356 69.824 143.424 69.592 143.56C69.36 143.696 69.172 143.888 69.028 144.136C68.884 144.384 68.776 144.676 68.704 145.012C68.64 145.348 68.608 145.72 68.608 146.128V147.496C68.608 147.904 68.64 148.276 68.704 148.612C68.776 148.948 68.884 149.24 69.028 149.488C69.172 149.736 69.36 149.928 69.592 150.064C69.824 150.2 70.104 150.268 70.432 150.268ZM77.9793 151V142.624H81.3153C82.0673 142.624 82.6433 142.84 83.0433 143.272C83.4513 143.696 83.6553 144.28 83.6553 145.024C83.6553 145.768 83.4513 146.356 83.0433 146.788C82.6433 147.212 82.0673 147.424 81.3153 147.424H78.9873V151H77.9793ZM78.9873 146.536H81.3153C81.7153 146.536 82.0233 146.432 82.2393 146.224C82.4633 146.016 82.5753 145.72 82.5753 145.336V144.712C82.5753 144.328 82.4633 144.032 82.2393 143.824C82.0233 143.616 81.7153 143.512 81.3153 143.512H78.9873V146.536ZM85.0434 151V144.808H86.0034V145.948H86.0634C86.1754 145.652 86.3754 145.388 86.6634 145.156C86.9514 144.924 87.3474 144.808 87.8514 144.808H88.2234V145.768H87.6594C87.1394 145.768 86.7314 145.868 86.4354 146.068C86.1474 146.26 86.0034 146.504 86.0034 146.8V151H85.0434ZM89.9297 143.356C89.7217 143.356 89.5697 143.308 89.4737 143.212C89.3857 143.108 89.3417 142.976 89.3417 142.816V142.66C89.3417 142.5 89.3857 142.372 89.4737 142.276C89.5697 142.172 89.7217 142.12 89.9297 142.12C90.1377 142.12 90.2857 142.172 90.3737 142.276C90.4697 142.372 90.5177 142.5 90.5177 142.66V142.816C90.5177 142.976 90.4697 143.108 90.3737 143.212C90.2857 143.308 90.1377 143.356 89.9297 143.356ZM89.4497 144.808H90.4097V151H89.4497V144.808ZM94.7537 151.144C94.3217 151.144 93.9337 151.068 93.5897 150.916C93.2457 150.764 92.9537 150.548 92.7137 150.268C92.4817 149.988 92.3017 149.648 92.1737 149.248C92.0537 148.848 91.9937 148.4 91.9937 147.904C91.9937 147.408 92.0537 146.96 92.1737 146.56C92.3017 146.16 92.4817 145.82 92.7137 145.54C92.9537 145.26 93.2457 145.044 93.5897 144.892C93.9337 144.74 94.3217 144.664 94.7537 144.664C95.3697 144.664 95.8617 144.8 96.2297 145.072C96.6057 145.336 96.8857 145.684 97.0697 146.116L96.2657 146.524C96.1537 146.204 95.9697 145.956 95.7137 145.78C95.4577 145.604 95.1377 145.516 94.7537 145.516C94.4657 145.516 94.2137 145.564 93.9977 145.66C93.7817 145.748 93.6017 145.876 93.4577 146.044C93.3137 146.204 93.2057 146.4 93.1337 146.632C93.0617 146.856 93.0257 147.104 93.0257 147.376V148.432C93.0257 148.976 93.1697 149.424 93.4577 149.776C93.7537 150.12 94.1857 150.292 94.7537 150.292C95.5297 150.292 96.0897 149.932 96.4337 149.212L97.1297 149.68C96.9297 150.128 96.6297 150.484 96.2297 150.748C95.8377 151.012 95.3457 151.144 94.7537 151.144ZM100.743 151.144C100.319 151.144 99.9345 151.068 99.5905 150.916C99.2545 150.764 98.9625 150.548 98.7145 150.268C98.4745 149.98 98.2865 149.64 98.1505 149.248C98.0225 148.848 97.9585 148.4 97.9585 147.904C97.9585 147.416 98.0225 146.972 98.1505 146.572C98.2865 146.172 98.4745 145.832 98.7145 145.552C98.9625 145.264 99.2545 145.044 99.5905 144.892C99.9345 144.74 100.319 144.664 100.743 144.664C101.159 144.664 101.531 144.74 101.859 144.892C102.187 145.044 102.467 145.256 102.699 145.528C102.931 145.792 103.107 146.108 103.227 146.476C103.355 146.844 103.419 147.248 103.419 147.688V148.144H98.9665V148.432C98.9665 148.696 99.0065 148.944 99.0865 149.176C99.1745 149.4 99.2945 149.596 99.4465 149.764C99.6065 149.932 99.7985 150.064 100.023 150.16C100.255 150.256 100.515 150.304 100.803 150.304C101.195 150.304 101.535 150.212 101.823 150.028C102.119 149.844 102.347 149.58 102.507 149.236L103.191 149.728C102.991 150.152 102.679 150.496 102.255 150.76C101.831 151.016 101.327 151.144 100.743 151.144ZM100.743 145.468C100.479 145.468 100.239 145.516 100.023 145.612C99.8065 145.7 99.6185 145.828 99.4585 145.996C99.3065 146.164 99.1865 146.364 99.0985 146.596C99.0105 146.82 98.9665 147.068 98.9665 147.34V147.424H102.387V147.292C102.387 146.74 102.235 146.3 101.931 145.972C101.635 145.636 101.239 145.468 100.743 145.468Z" fill="#D8DADC"/>
<line x1="116" y1="145" x2="135" y2="145" stroke="#A6A6A6" stroke-width="2"/>
<path d="M149.644 143.944H149.584L148.876 145.348L146.872 148.996L144.868 145.348L144.16 143.944H144.1V151H143.116V142.624H144.46L146.86 147.136H146.92L149.332 142.624H150.628V151H149.644V143.944ZM157.258 151C156.898 151 156.638 150.904 156.478 150.712C156.326 150.52 156.23 150.28 156.19 149.992H156.13C155.994 150.376 155.77 150.664 155.458 150.856C155.146 151.048 154.774 151.144 154.342 151.144C153.686 151.144 153.174 150.976 152.806 150.64C152.446 150.304 152.266 149.848 152.266 149.272C152.266 148.688 152.478 148.24 152.902 147.928C153.334 147.616 154.002 147.46 154.906 147.46H156.13V146.848C156.13 146.408 156.01 146.072 155.77 145.84C155.53 145.608 155.162 145.492 154.666 145.492C154.29 145.492 153.974 145.576 153.718 145.744C153.47 145.912 153.262 146.136 153.094 146.416L152.518 145.876C152.686 145.54 152.954 145.256 153.322 145.024C153.69 144.784 154.154 144.664 154.714 144.664C155.466 144.664 156.05 144.848 156.466 145.216C156.882 145.584 157.09 146.096 157.09 146.752V150.16H157.798V151H157.258ZM154.498 150.328C154.738 150.328 154.958 150.3 155.158 150.244C155.358 150.188 155.53 150.108 155.674 150.004C155.818 149.9 155.93 149.78 156.01 149.644C156.09 149.508 156.13 149.36 156.13 149.2V148.18H154.858C154.306 148.18 153.902 148.26 153.646 148.42C153.398 148.58 153.274 148.812 153.274 149.116V149.368C153.274 149.672 153.382 149.908 153.598 150.076C153.822 150.244 154.122 150.328 154.498 150.328ZM159.168 151V144.808H160.128V145.948H160.188C160.3 145.652 160.5 145.388 160.788 145.156C161.076 144.924 161.472 144.808 161.976 144.808H162.348V145.768H161.784C161.264 145.768 160.856 145.868 160.56 146.068C160.272 146.26 160.128 146.504 160.128 146.8V151H159.168ZM163.575 142.12H164.535V147.748H164.583L165.531 146.692L167.283 144.808H168.447L166.155 147.256L168.675 151H167.511L165.459 147.844L164.535 148.792V151H163.575V142.12ZM172.032 151.144C171.608 151.144 171.224 151.068 170.88 150.916C170.544 150.764 170.252 150.548 170.004 150.268C169.764 149.98 169.576 149.64 169.44 149.248C169.312 148.848 169.248 148.4 169.248 147.904C169.248 147.416 169.312 146.972 169.44 146.572C169.576 146.172 169.764 145.832 170.004 145.552C170.252 145.264 170.544 145.044 170.88 144.892C171.224 144.74 171.608 144.664 172.032 144.664C172.448 144.664 172.82 144.74 173.148 144.892C173.476 145.044 173.756 145.256 173.988 145.528C174.22 145.792 174.396 146.108 174.516 146.476C174.644 146.844 174.708 147.248 174.708 147.688V148.144H170.256V148.432C170.256 148.696 170.296 148.944 170.376 149.176C170.464 149.4 170.584 149.596 170.736 149.764C170.896 149.932 171.088 150.064 171.312 150.16C171.544 150.256 171.804 150.304 172.092 150.304C172.484 150.304 172.824 150.212 173.112 150.028C173.408 149.844 173.636 149.58 173.796 149.236L174.48 149.728C174.28 150.152 173.968 150.496 173.544 150.76C173.12 151.016 172.616 151.144 172.032 151.144ZM172.032 145.468C171.768 145.468 171.528 145.516 171.312 145.612C171.096 145.7 170.908 145.828 170.748 145.996C170.596 146.164 170.476 146.364 170.388 146.596C170.3 146.82 170.256 147.068 170.256 147.34V147.424H173.676V147.292C173.676 146.74 173.524 146.3 173.22 145.972C172.924 145.636 172.528 145.468 172.032 145.468ZM177.658 151C177.322 151 177.066 150.908 176.89 150.724C176.722 150.532 176.638 150.284 176.638 149.98V145.648H175.618V144.808H176.194C176.402 144.808 176.542 144.768 176.614 144.688C176.694 144.6 176.734 144.452 176.734 144.244V143.092H177.598V144.808H178.954V145.648H177.598V150.16H178.858V151H177.658ZM183.429 151V142.624H186.765C187.517 142.624 188.093 142.84 188.493 143.272C188.901 143.696 189.105 144.28 189.105 145.024C189.105 145.768 188.901 146.356 188.493 146.788C188.093 147.212 187.517 147.424 186.765 147.424H184.437V151H183.429ZM184.437 146.536H186.765C187.165 146.536 187.473 146.432 187.689 146.224C187.913 146.016 188.025 145.72 188.025 145.336V144.712C188.025 144.328 187.913 144.032 187.689 143.824C187.473 143.616 187.165 143.512 186.765 143.512H184.437V146.536ZM190.493 151V144.808H191.453V145.948H191.513C191.625 145.652 191.825 145.388 192.113 145.156C192.401 144.924 192.797 144.808 193.301 144.808H193.673V145.768H193.109C192.589 145.768 192.181 145.868 191.885 146.068C191.597 146.26 191.453 146.504 191.453 146.8V151H190.493ZM195.379 143.356C195.171 143.356 195.019 143.308 194.923 143.212C194.835 143.108 194.791 142.976 194.791 142.816V142.66C194.791 142.5 194.835 142.372 194.923 142.276C195.019 142.172 195.171 142.12 195.379 142.12C195.587 142.12 195.735 142.172 195.823 142.276C195.919 142.372 195.967 142.5 195.967 142.66V142.816C195.967 142.976 195.919 143.108 195.823 143.212C195.735 143.308 195.587 143.356 195.379 143.356ZM194.899 144.808H195.859V151H194.899V144.808ZM200.203 151.144C199.771 151.144 199.383 151.068 199.039 150.916C198.695 150.764 198.403 150.548 198.163 150.268C197.931 149.988 197.751 149.648 197.623 149.248C197.503 148.848 197.443 148.4 197.443 147.904C197.443 147.408 197.503 146.96 197.623 146.56C197.751 146.16 197.931 145.82 198.163 145.54C198.403 145.26 198.695 145.044 199.039 144.892C199.383 144.74 199.771 144.664 200.203 144.664C200.819 144.664 201.311 144.8 201.679 145.072C202.055 145.336 202.335 145.684 202.519 146.116L201.715 146.524C201.603 146.204 201.419 145.956 201.163 145.78C200.907 145.604 200.587 145.516 200.203 145.516C199.915 145.516 199.663 145.564 199.447 145.66C199.231 145.748 199.051 145.876 198.907 146.044C198.763 146.204 198.655 146.4 198.583 146.632C198.511 146.856 198.475 147.104 198.475 147.376V148.432C198.475 148.976 198.619 149.424 198.907 149.776C199.203 150.12 199.635 150.292 200.203 150.292C200.979 150.292 201.539 149.932 201.883 149.212L202.579 149.68C202.379 150.128 202.079 150.484 201.679 150.748C201.287 151.012 200.795 151.144 200.203 151.144ZM206.192 151.144C205.768 151.144 205.384 151.068 205.04 150.916C204.704 150.764 204.412 150.548 204.164 150.268C203.924 149.98 203.736 149.64 203.6 149.248C203.472 148.848 203.408 148.4 203.408 147.904C203.408 147.416 203.472 146.972 203.6 146.572C203.736 146.172 203.924 145.832 204.164 145.552C204.412 145.264 204.704 145.044 205.04 144.892C205.384 144.74 205.768 144.664 206.192 144.664C206.608 144.664 206.98 144.74 207.308 144.892C207.636 145.044 207.916 145.256 208.148 145.528C208.38 145.792 208.556 146.108 208.676 146.476C208.804 146.844 208.868 147.248 208.868 147.688V148.144H204.416V148.432C204.416 148.696 204.456 148.944 204.536 149.176C204.624 149.4 204.744 149.596 204.896 149.764C205.056 149.932 205.248 150.064 205.472 150.16C205.704 150.256 205.964 150.304 206.252 150.304C206.644 150.304 206.984 150.212 207.272 150.028C207.568 149.844 207.796 149.58 207.956 149.236L208.64 149.728C208.44 150.152 208.128 150.496 207.704 150.76C207.28 151.016 206.776 151.144 206.192 151.144ZM206.192 145.468C205.928 145.468 205.688 145.516 205.472 145.612C205.256 145.7 205.068 145.828 204.908 145.996C204.756 146.164 204.636 146.364 204.548 146.596C204.46 146.82 204.416 147.068 204.416 147.34V147.424H207.836V147.292C207.836 146.74 207.684 146.3 207.38 145.972C207.084 145.636 206.688 145.468 206.192 145.468Z" fill="#D8DADC"/>
<line x1="222" y1="145" x2="241" y2="145" stroke="#434343" stroke-width="2"/>
<path d="M249.116 151V142.624H252.452C253.204 142.624 253.78 142.84 254.18 143.272C254.588 143.696 254.792 144.28 254.792 145.024C254.792 145.768 254.588 146.356 254.18 146.788C253.78 147.212 253.204 147.424 252.452 147.424H250.124V151H249.116ZM250.124 146.536H252.452C252.852 146.536 253.16 146.432 253.376 146.224C253.6 146.016 253.712 145.72 253.712 145.336V144.712C253.712 144.328 253.6 144.032 253.376 143.824C253.16 143.616 252.852 143.512 252.452 143.512H250.124V146.536ZM256.18 151V144.808H257.14V145.948H257.2C257.312 145.652 257.512 145.388 257.8 145.156C258.088 144.924 258.484 144.808 258.988 144.808H259.36V145.768H258.796C258.276 145.768 257.868 145.868 257.572 146.068C257.284 146.26 257.14 146.504 257.14 146.8V151H256.18ZM261.066 143.356C260.858 143.356 260.706 143.308 260.61 143.212C260.522 143.108 260.478 142.976 260.478 142.816V142.66C260.478 142.5 260.522 142.372 260.61 142.276C260.706 142.172 260.858 142.12 261.066 142.12C261.274 142.12 261.422 142.172 261.51 142.276C261.606 142.372 261.654 142.5 261.654 142.66V142.816C261.654 142.976 261.606 143.108 261.51 143.212C261.422 143.308 261.274 143.356 261.066 143.356ZM260.586 144.808H261.546V151H260.586V144.808ZM265.89 151.144C265.458 151.144 265.07 151.068 264.726 150.916C264.382 150.764 264.09 150.548 263.85 150.268C263.618 149.988 263.438 149.648 263.31 149.248C263.19 148.848 263.13 148.4 263.13 147.904C263.13 147.408 263.19 146.96 263.31 146.56C263.438 146.16 263.618 145.82 263.85 145.54C264.09 145.26 264.382 145.044 264.726 144.892C265.07 144.74 265.458 144.664 265.89 144.664C266.506 144.664 266.998 144.8 267.366 145.072C267.742 145.336 268.022 145.684 268.206 146.116L267.402 146.524C267.29 146.204 267.106 145.956 266.85 145.78C266.594 145.604 266.274 145.516 265.89 145.516C265.602 145.516 265.35 145.564 265.134 145.66C264.918 145.748 264.738 145.876 264.594 146.044C264.45 146.204 264.342 146.4 264.27 146.632C264.198 146.856 264.162 147.104 264.162 147.376V148.432C264.162 148.976 264.306 149.424 264.594 149.776C264.89 150.12 265.322 150.292 265.89 150.292C266.666 150.292 267.226 149.932 267.57 149.212L268.266 149.68C268.066 150.128 267.766 150.484 267.366 150.748C266.974 151.012 266.482 151.144 265.89 151.144ZM271.879 151.144C271.455 151.144 271.071 151.068 270.727 150.916C270.391 150.764 270.099 150.548 269.851 150.268C269.611 149.98 269.423 149.64 269.287 149.248C269.159 148.848 269.095 148.4 269.095 147.904C269.095 147.416 269.159 146.972 269.287 146.572C269.423 146.172 269.611 145.832 269.851 145.552C270.099 145.264 270.391 145.044 270.727 144.892C271.071 144.74 271.455 144.664 271.879 144.664C272.295 144.664 272.667 144.74 272.995 144.892C273.323 145.044 273.603 145.256 273.835 145.528C274.067 145.792 274.243 146.108 274.363 146.476C274.491 146.844 274.555 147.248 274.555 147.688V148.144H270.103V148.432C270.103 148.696 270.143 148.944 270.223 149.176C270.311 149.4 270.431 149.596 270.583 149.764C270.743 149.932 270.935 150.064 271.159 150.16C271.391 150.256 271.651 150.304 271.939 150.304C272.331 150.304 272.671 150.212 272.959 150.028C273.255 149.844 273.483 149.58 273.643 149.236L274.327 149.728C274.127 150.152 273.815 150.496 273.391 150.76C272.967 151.016 272.463 151.144 271.879 151.144ZM271.879 145.468C271.615 145.468 271.375 145.516 271.159 145.612C270.943 145.7 270.755 145.828 270.595 145.996C270.443 146.164 270.323 146.364 270.235 146.596C270.147 146.82 270.103 147.068 270.103 147.34V147.424H273.523V147.292C273.523 146.74 273.371 146.3 273.067 145.972C272.771 145.636 272.375 145.468 271.879 145.468ZM279.069 142.624H282.513C283.209 142.624 283.753 142.82 284.145 143.212C284.545 143.604 284.745 144.128 284.745 144.784C284.745 145.096 284.701 145.36 284.613 145.576C284.525 145.792 284.413 145.972 284.277 146.116C284.141 146.252 283.993 146.356 283.833 146.428C283.673 146.492 283.525 146.536 283.389 146.56V146.632C283.541 146.64 283.709 146.68 283.893 146.752C284.085 146.824 284.265 146.94 284.433 147.1C284.601 147.252 284.741 147.452 284.853 147.7C284.973 147.94 285.033 148.232 285.033 148.576C285.033 148.92 284.977 149.24 284.865 149.536C284.761 149.832 284.613 150.088 284.421 150.304C284.229 150.52 284.001 150.692 283.737 150.82C283.473 150.94 283.185 151 282.873 151H279.069V142.624ZM280.077 150.112H282.561C282.993 150.112 283.333 150.004 283.581 149.788C283.829 149.564 283.953 149.24 283.953 148.816V148.408C283.953 147.984 283.829 147.664 283.581 147.448C283.333 147.224 282.993 147.112 282.561 147.112H280.077V150.112ZM280.077 146.248H282.393C282.793 146.248 283.105 146.148 283.329 145.948C283.553 145.748 283.665 145.46 283.665 145.084V144.676C283.665 144.3 283.553 144.012 283.329 143.812C283.105 143.612 282.793 143.512 282.393 143.512H280.077V146.248ZM291.313 151C290.953 151 290.693 150.904 290.533 150.712C290.381 150.52 290.285 150.28 290.245 149.992H290.185C290.049 150.376 289.825 150.664 289.513 150.856C289.201 151.048 288.829 151.144 288.397 151.144C287.741 151.144 287.229 150.976 286.861 150.64C286.501 150.304 286.321 149.848 286.321 149.272C286.321 148.688 286.533 148.24 286.957 147.928C287.389 147.616 288.057 147.46 288.961 147.46H290.185V146.848C290.185 146.408 290.065 146.072 289.825 145.84C289.585 145.608 289.217 145.492 288.721 145.492C288.345 145.492 288.029 145.576 287.773 145.744C287.525 145.912 287.317 146.136 287.149 146.416L286.573 145.876C286.741 145.54 287.009 145.256 287.377 145.024C287.745 144.784 288.209 144.664 288.769 144.664C289.521 144.664 290.105 144.848 290.521 145.216C290.937 145.584 291.145 146.096 291.145 146.752V150.16H291.853V151H291.313ZM288.553 150.328C288.793 150.328 289.013 150.3 289.213 150.244C289.413 150.188 289.585 150.108 289.729 150.004C289.873 149.9 289.985 149.78 290.065 149.644C290.145 149.508 290.185 149.36 290.185 149.2V148.18H288.913C288.361 148.18 287.957 148.26 287.701 148.42C287.453 148.58 287.329 148.812 287.329 149.116V149.368C287.329 149.672 287.437 149.908 287.653 150.076C287.877 150.244 288.177 150.328 288.553 150.328ZM293.223 151V144.808H294.183V145.816H294.231C294.383 145.464 294.595 145.184 294.867 144.976C295.147 144.768 295.519 144.664 295.983 144.664C296.623 144.664 297.127 144.872 297.495 145.288C297.871 145.696 298.059 146.276 298.059 147.028V151H297.099V147.196C297.099 146.084 296.631 145.528 295.695 145.528C295.503 145.528 295.315 145.552 295.131 145.6C294.955 145.648 294.795 145.72 294.651 145.816C294.507 145.912 294.391 146.036 294.303 146.188C294.223 146.332 294.183 146.504 294.183 146.704V151H293.223ZM304.003 149.992H303.955C303.579 150.76 302.975 151.144 302.143 151.144C301.759 151.144 301.411 151.068 301.099 150.916C300.787 150.764 300.519 150.548 300.295 150.268C300.079 149.988 299.911 149.648 299.791 149.248C299.679 148.848 299.623 148.4 299.623 147.904C299.623 147.408 299.679 146.96 299.791 146.56C299.911 146.16 300.079 145.82 300.295 145.54C300.519 145.26 300.787 145.044 301.099 144.892C301.411 144.74 301.759 144.664 302.143 144.664C302.575 144.664 302.943 144.76 303.247 144.952C303.559 145.136 303.795 145.424 303.955 145.816H304.003V142.12H304.963V151H304.003V149.992ZM302.407 150.28C302.623 150.28 302.827 150.252 303.019 150.196C303.219 150.14 303.391 150.06 303.535 149.956C303.679 149.844 303.791 149.712 303.871 149.56C303.959 149.4 304.003 149.22 304.003 149.02V146.716C304.003 146.548 303.959 146.392 303.871 146.248C303.791 146.096 303.679 145.968 303.535 145.864C303.391 145.76 303.219 145.68 303.019 145.624C302.827 145.56 302.623 145.528 302.407 145.528C301.863 145.528 301.435 145.7 301.123 146.044C300.811 146.38 300.655 146.824 300.655 147.376V148.432C300.655 148.984 300.811 149.432 301.123 149.776C301.435 150.112 301.863 150.28 302.407 150.28ZM308.864 151.144C308.288 151.144 307.804 151.036 307.412 150.82C307.028 150.596 306.696 150.3 306.416 149.932L307.1 149.38C307.34 149.684 307.608 149.92 307.904 150.088C308.2 150.248 308.544 150.328 308.936 150.328C309.344 150.328 309.66 150.24 309.884 150.064C310.116 149.888 310.232 149.64 310.232 149.32C310.232 149.08 310.152 148.876 309.992 148.708C309.84 148.532 309.56 148.412 309.152 148.348L308.66 148.276C308.372 148.236 308.108 148.176 307.868 148.096C307.628 148.008 307.416 147.896 307.232 147.76C307.056 147.616 306.916 147.44 306.812 147.232C306.716 147.024 306.668 146.776 306.668 146.488C306.668 146.184 306.724 145.92 306.836 145.696C306.948 145.464 307.1 145.272 307.292 145.12C307.492 144.968 307.728 144.856 308 144.784C308.272 144.704 308.564 144.664 308.876 144.664C309.38 144.664 309.8 144.752 310.136 144.928C310.48 145.104 310.78 145.348 311.036 145.66L310.4 146.236C310.264 146.044 310.064 145.872 309.8 145.72C309.536 145.56 309.204 145.48 308.804 145.48C308.404 145.48 308.1 145.568 307.892 145.744C307.692 145.912 307.592 146.144 307.592 146.44C307.592 146.744 307.692 146.964 307.892 147.1C308.1 147.236 308.396 147.336 308.78 147.4L309.26 147.472C309.948 147.576 310.436 147.776 310.724 148.072C311.012 148.36 311.156 148.74 311.156 149.212C311.156 149.812 310.952 150.284 310.544 150.628C310.136 150.972 309.576 151.144 308.864 151.144Z" fill="#D8DADC"/>
<path d="M-1 72.659C2.09512 72.659 5.88373 73.1705 8.90385 72.5962C12.6718 71.8796 10.9048 67.3264 15.5064 68.2015C21.7682 69.3923 32.3501 66.3258 37.5883 62.7396C40.1647 60.9758 46.0267 62.6332 47.9323 60.7306C50.5459 58.1212 55.3936 57.9682 59.0833 57.9682C67.0444 57.9682 78.4622 53.0341 82.9259 61.7351C84.8449 65.4756 91.6649 70.3741 96.1311 71.4661C102.615 73.0515 111.394 69.8238 116.819 73.5379C117.414 73.9452 122.943 76.0491 123.788 76.0491C126.833 76.0491 128.161 79.4393 131.712 79.4393C135.651 79.4393 138.551 79.9238 142.276 80.6322C145.794 81.3012 146.789 83.9595 151.519 83.9595C160.196 83.9595 159.945 75.3441 169.199 76.9281C177.319 78.3179 186.037 71.8077 193.776 70.3361C197.284 69.6688 200.88 68.7512 204.413 68.2015C211.167 67.1506 218.561 66.8732 224.808 64.4974C231.348 62.0099 235.925 57.8744 241.974 54.8292C247.58 52.0074 254.12 46.6677 261.122 46.6677C264.478 46.6677 266.442 45.6927 269.705 45.5376C271.677 45.4438 272.104 43.0704 273.667 44.4075C275.228 45.7439 275.475 47.7553 277.628 48.6766C281.094 50.1596 284.151 48.4353 287.532 50.6856C292.615 54.0688 292.542 50.0578 296.776 50.0578C303.134 50.0578 309.492 50.0578 315.85 50.0578C321.376 50.0578 324.696 53.7343 329.715 54.5153C346.047 57.0565 362.137 53.448 378.647 53.448C383.533 53.448 383.667 56.8305 386.937 59.3494C388.832 60.8086 391.143 59.872 393.54 60.7306C396.555 61.8106 399.882 64.9431 401.756 67.2598C407.905 74.8607 407.861 76.9766 418.189 79.5021C421.564 80.3272 427.301 82.1737 429.194 85.0896C431.07 87.9801 434.566 91.4739 438.731 91.8699C442.501 92.2285 445.921 93 449.955 93C451.293 93 459.148 92.0651 459.859 91.3049C461.467 89.5844 466.75 88.1051 469.103 87.0986C472.941 85.4562 475.671 82.3796 479.667 80.5694C489.358 76.1785 504.576 68.2509 515.027 76.3003C517.89 78.5057 522.642 77.101 525.371 75.4841C531.182 72.0413 539.128 74.6521 545.619 73.7262C547.066 73.5199 547.599 72.4834 548.627 71.78C549.873 70.9269 553.725 71.5119 555.229 71.2778C562.337 70.1719 567.089 70.2 573.423 72.9101C581.558 76.3911 587.949 71.8329 587.949 64.1835C587.949 55.694 615.542 62.1769 620.521 62.614C633.757 63.7757 640.45 77.1792 652.947 77.1792C657.583 77.1792 662.253 77.326 666.886 77.1792C669.514 77.0959 671.774 75.0575 674.809 74.668C684.453 73.43 695.679 72.3977 704.887 69.771C720.766 65.2416 730.461 66.4339 747.07 68.0132C754.797 68.7479 761.854 69.2688 769.886 69.2688C776.906 69.2688 784.07 70.7798 788.96 66.1298C790.985 64.2039 794.839 62.3424 797.91 62.4885C800.533 62.6132 801.508 65.1885 804.073 65.6275C810.037 66.6483 816.932 65.8786 823 65.8786" stroke="#A6A6A6" stroke-width="0.5" stroke-linecap="round"/>
<path d="M0 64H27.5C31.6421 64 35 67.3579 35 71.5C35 75.6421 31.6421 79 27.5 79H0V64Z" fill="#E25D58"/>
<path d="M6.7 75.82V75C6.19333 74.9667 5.76333 74.8433 5.41 74.63C5.06333 74.41 4.76667 74.1367 4.52 73.81L5.11 73.28C5.32333 73.5667 5.55667 73.7967 5.81 73.97C6.07 74.1367 6.37 74.2433 6.71 74.29V71.72C6.02333 71.5667 5.52 71.3433 5.2 71.05C4.88667 70.75 4.73 70.34 4.73 69.82C4.73 69.5533 4.77667 69.3167 4.87 69.11C4.97 68.8967 5.10667 68.7133 5.28 68.56C5.45333 68.4067 5.66 68.2867 5.9 68.2C6.14 68.1067 6.40667 68.0467 6.7 68.02V67.2H7.32V68.01C7.77333 68.05 8.16333 68.1667 8.49 68.36C8.82333 68.5467 9.11 68.8067 9.35 69.14L8.74 69.6C8.57333 69.3667 8.37333 69.1767 8.14 69.03C7.90667 68.8767 7.63 68.7767 7.31 68.73V71.07L7.4 71.09C8.09333 71.2433 8.59667 71.47 8.91 71.77C9.23 72.0633 9.39 72.4733 9.39 73C9.39 73.5733 9.20333 74.0367 8.83 74.39C8.46333 74.7367 7.96 74.94 7.32 75V75.82H6.7ZM8.6 73.05C8.6 72.71 8.5 72.45 8.3 72.27C8.10667 72.09 7.77667 71.9433 7.31 71.83V74.29C7.71 74.2367 8.02333 74.1033 8.25 73.89C8.48333 73.67 8.6 73.39 8.6 73.05ZM5.52 69.76C5.52 70.1 5.61667 70.3567 5.81 70.53C6.01 70.6967 6.31 70.8333 6.71 70.94V68.73C6.35 68.7767 6.06 68.8867 5.84 69.06C5.62667 69.2333 5.52 69.4667 5.52 69.76ZM10.8566 75V74.26H12.8066V68.64H12.7366L10.9766 70.28L10.4866 69.75L12.3366 68.02H13.6466V74.26H15.4466V75H10.8566ZM17.3327 75.12C17.1193 75.12 16.9627 75.0667 16.8627 74.96C16.7693 74.8533 16.7227 74.7133 16.7227 74.54V74.41C16.7227 74.2367 16.7693 74.0967 16.8627 73.99C16.9627 73.8833 17.1193 73.83 17.3327 73.83C17.546 73.83 17.6993 73.8833 17.7927 73.99C17.8927 74.0967 17.9427 74.2367 17.9427 74.41V74.54C17.9427 74.7133 17.8927 74.8533 17.7927 74.96C17.6993 75.0667 17.546 75.12 17.3327 75.12ZM21.6973 75.12C20.8639 75.12 20.2539 74.8033 19.8673 74.17C19.4873 73.5367 19.2973 72.65 19.2973 71.51C19.2973 70.37 19.4873 69.4833 19.8673 68.85C20.2539 68.2167 20.8639 67.9 21.6973 67.9C22.5306 67.9 23.1373 68.2167 23.5173 68.85C23.9039 69.4833 24.0973 70.37 24.0973 71.51C24.0973 72.65 23.9039 73.5367 23.5173 74.17C23.1373 74.8033 22.5306 75.12 21.6973 75.12ZM21.6973 74.39C21.9706 74.39 22.2039 74.3333 22.3973 74.22C22.5906 74.1067 22.7473 73.9467 22.8673 73.74C22.9873 73.5333 23.0739 73.29 23.1273 73.01C23.1873 72.73 23.2173 72.42 23.2173 72.08V70.94C23.2173 70.6 23.1873 70.29 23.1273 70.01C23.0739 69.73 22.9873 69.4867 22.8673 69.28C22.7473 69.0733 22.5906 68.9133 22.3973 68.8C22.2039 68.6867 21.9706 68.63 21.6973 68.63C21.4239 68.63 21.1906 68.6867 20.9973 68.8C20.8039 68.9133 20.6473 69.0733 20.5273 69.28C20.4073 69.4867 20.3173 69.73 20.2573 70.01C20.2039 70.29 20.1773 70.6 20.1773 70.94V72.08C20.1773 72.42 20.2039 72.73 20.2573 73.01C20.3173 73.29 20.4073 73.5333 20.5273 73.74C20.6473 73.9467 20.8039 74.1067 20.9973 74.22C21.1906 74.3333 21.4239 74.39 21.6973 74.39ZM27.6934 75.12C26.86 75.12 26.25 74.8033 25.8634 74.17C25.4834 73.5367 25.2934 72.65 25.2934 71.51C25.2934 70.37 25.4834 69.4833 25.8634 68.85C26.25 68.2167 26.86 67.9 27.6934 67.9C28.5267 67.9 29.1334 68.2167 29.5134 68.85C29.9 69.4833 30.0934 70.37 30.0934 71.51C30.0934 72.65 29.9 73.5367 29.5134 74.17C29.1334 74.8033 28.5267 75.12 27.6934 75.12ZM27.6934 74.39C27.9667 74.39 28.2 74.3333 28.3934 74.22C28.5867 74.1067 28.7434 73.9467 28.8634 73.74C28.9834 73.5333 29.07 73.29 29.1234 73.01C29.1834 72.73 29.2134 72.42 29.2134 72.08V70.94C29.2134 70.6 29.1834 70.29 29.1234 70.01C29.07 69.73 28.9834 69.4867 28.8634 69.28C28.7434 69.0733 28.5867 68.9133 28.3934 68.8C28.2 68.6867 27.9667 68.63 27.6934 68.63C27.42 68.63 27.1867 68.6867 26.9934 68.8C26.8 68.9133 26.6434 69.0733 26.5234 69.28C26.4034 69.4867 26.3134 69.73 26.2534 70.01C26.2 70.29 26.1734 70.6 26.1734 70.94V72.08C26.1734 72.42 26.2 72.73 26.2534 73.01C26.3134 73.29 26.4034 73.5333 26.5234 73.74C26.6434 73.9467 26.8 74.1067 26.9934 74.22C27.1867 74.3333 27.42 74.39 27.6934 74.39Z" fill="#F4F4F4"/>
<line x1="35" y1="71.5" x2="695" y2="71.5001" stroke="#E25D58"/>
</g>
<defs>
<linearGradient id="paint0_linear_332_16446" x1="348" y1="40" x2="348" y2="97" gradientUnits="userSpaceOnUse">
<stop stop-color="#212121"/>
<stop offset="1" stop-color="#272727"/>
</linearGradient>
<clipPath id="clip0_332_16446">
<rect width="695" height="171" fill="white"/>
</clipPath>
</defs>
</svg>
