<svg width="47" height="47" viewBox="0 0 47 47" fill="none" xmlns="http://www.w3.org/2000/svg">
<g clip-path="url(#clip0_1477_16699)">
<g clip-path="url(#clip1_1477_16699)">
<path d="M23.4996 46.9992C36.4781 46.9992 46.9992 36.4781 46.9992 23.4996C46.9992 10.5211 36.4781 0 23.4996 0C10.5211 0 0 10.5211 0 23.4996C0 36.4781 10.5211 46.9992 23.4996 46.9992Z" fill="black"/>
<path d="M18.5489 46.4696C5.8832 43.7391 -2.19965 31.2147 0.530149 18.549C3.25994 5.88335 15.7851 -2.19949 28.4508 0.530301C41.1164 3.2601 49.1993 15.7853 46.4695 28.4509C43.7397 41.1166 31.2145 49.1994 18.5489 46.4696ZM28.2898 1.27766C16.0361 -1.36375 3.91813 6.4563 1.27751 18.71C-1.3639 30.9637 6.45615 43.0817 18.7099 45.7223C30.9635 48.3637 43.0815 40.5436 45.7221 28.2899C48.3635 16.0362 40.5435 3.91828 28.2898 1.27766Z" fill="url(#paint0_linear_1477_16699)"/>
<path d="M19.5316 41.9011C9.38501 39.7142 2.90974 29.6797 5.09657 19.5332C7.28341 9.3866 17.3179 2.91132 27.4645 5.09816C37.6111 7.28499 44.0863 17.3195 41.8995 27.4661C39.7127 37.6126 29.6782 44.0879 19.5316 41.9011ZM27.3035 5.84552C17.5689 3.74707 7.94238 9.95955 5.84393 19.6942C3.74548 29.4288 9.95796 39.0553 19.6926 41.1537C29.4272 43.2522 39.0537 37.0397 41.1521 27.3051C43.2506 17.5705 37.0381 7.94396 27.3035 5.84552Z" fill="url(#paint1_linear_1477_16699)"/>
<path d="M16.4391 43.9948L17.5826 42.021C18.4515 42.3162 19.3449 42.5419 20.239 42.6966L20.0157 44.0713C19.6455 44.0058 19.2336 43.9845 18.4191 43.6917L18.6109 43.2103C18.9266 43.3358 19.3299 43.4266 19.5871 43.4763L19.6463 43.1125C19.0347 42.9901 18.4231 42.8323 17.8209 42.6429L17.2038 43.7075C18.4049 44.1021 19.6897 44.3775 21.0321 44.5283C21.01 43.9017 21.025 42.4488 21.0227 41.8419L21.5412 41.8403C21.5427 42.2365 21.5041 44.3523 21.4859 45.0902C19.7505 44.9386 17.9756 44.5456 16.4375 43.994L16.4391 43.9948Z" fill="url(#paint2_linear_1477_16699)"/>
<path d="M30.5592 3.00521L29.4156 4.97897C28.5467 4.68381 27.6534 4.4581 26.7592 4.30342L26.9826 2.92866C27.3527 2.99416 27.7647 3.01547 28.5791 3.30826L28.3873 3.78966C28.0717 3.66418 27.6684 3.57343 27.4111 3.52371L27.3519 3.88752C27.9635 4.00985 28.5752 4.16768 29.1773 4.35709L29.7944 3.29248C28.5933 2.89788 27.3085 2.62246 25.9661 2.47172C25.9882 3.09834 25.9732 4.55123 25.9756 5.15811L25.4571 5.15969C25.4555 4.76352 25.4942 2.64771 25.5123 1.90982C27.2477 2.06134 29.0226 2.45436 30.5607 3.006L30.5592 3.00521Z" fill="url(#paint3_linear_1477_16699)"/>
<path d="M3.00555 16.4403L4.9793 17.5839C4.68415 18.4528 4.45844 19.3461 4.30376 20.2403L2.929 20.0169C2.9945 19.6468 3.01581 19.2348 3.30859 18.4204L3.79 18.6122C3.66452 18.9278 3.57376 19.3311 3.52404 19.5884L3.88786 19.6476C4.01018 19.036 4.16802 18.4243 4.35742 17.8222L3.29281 17.2051C2.89822 18.4062 2.62279 19.691 2.47206 21.0334C3.09867 21.0113 4.55156 21.0263 5.15845 21.0239L5.16003 21.5424C4.76385 21.544 2.64805 21.5053 1.91016 21.4872C2.06168 19.7518 2.45469 17.9769 3.00634 16.4388L3.00555 16.4403Z" fill="url(#paint4_linear_1477_16699)"/>
<path d="M43.9943 30.5597L42.0206 29.4161C42.3157 28.5472 42.5414 27.6539 42.6961 26.7597L44.0709 26.9831C44.0054 27.3532 43.9841 27.7651 43.6913 28.5796L43.2099 28.3878C43.3354 28.0721 43.4261 27.6689 43.4758 27.4116L43.112 27.3524C42.9897 27.964 42.8319 28.5756 42.6425 29.1778L43.7071 29.7949C44.1017 28.5938 44.3771 27.309 44.5278 25.9666C43.9012 25.9887 42.4483 25.9737 41.8414 25.9761L41.8398 25.4576C42.236 25.456 44.3518 25.4947 45.0897 25.5128C44.9382 27.2482 44.5452 29.0231 43.9935 30.5612L43.9943 30.5597Z" fill="url(#paint5_linear_1477_16699)"/>
<path d="M4.01562 32.9998L6.21982 32.4127C6.62625 33.2358 7.0974 34.0273 7.62063 34.7692L6.49051 35.5836C6.27507 35.2758 5.99885 34.9688 5.6303 34.186L6.10697 33.9808C6.24113 34.2925 6.46289 34.6421 6.60889 34.8591L6.90799 34.6437C6.56233 34.1244 6.24034 33.5807 5.94913 33.0211L4.75983 33.3376C5.32962 34.4661 6.04383 35.5694 6.88669 36.6253C7.31442 36.1668 8.3522 35.1496 8.77915 34.7195L9.14692 35.0848C8.86833 35.3658 7.34441 36.8345 6.81013 37.3435C5.69028 36.009 4.71327 34.4756 4.01562 32.999V32.9998Z" fill="url(#paint6_linear_1477_16699)"/>
<path d="M42.9828 14.0001L40.7787 14.5873C40.3722 13.7642 39.9011 12.9726 39.3778 12.2308L40.508 11.4163C40.7234 11.7241 40.9996 12.0311 41.3682 12.814L40.8915 13.0192C40.7573 12.7075 40.5356 12.3578 40.3896 12.1408L40.0905 12.3563C40.4361 12.8756 40.7581 13.4193 41.0493 13.9788L42.2386 13.6624C41.6689 12.5338 40.9546 11.4306 40.1118 10.3746C39.6841 10.8331 38.6463 11.8504 38.2193 12.2805L37.8516 11.9151C38.1301 11.6342 39.6541 10.1655 40.1883 9.65646C41.3082 10.991 42.2852 12.5244 42.9828 14.0009V14.0001Z" fill="url(#paint7_linear_1477_16699)"/>
<path d="M13.9999 4.01538L14.5871 6.21958C13.764 6.62601 12.9724 7.09715 12.2306 7.62038L11.4161 6.49027C11.7239 6.27482 12.0309 5.99861 12.8138 5.63006L13.019 6.10672C12.7072 6.24089 12.3576 6.46265 12.1406 6.60865L12.3561 6.90775C12.8753 6.56209 13.4191 6.2401 13.9786 5.94889L13.6622 4.75958C12.5336 5.32938 11.4303 6.04359 10.3744 6.88644C10.8329 7.31418 11.8502 8.35196 12.2803 8.77891L11.9149 9.14667C11.634 8.86809 10.1653 7.34417 9.65625 6.80989C10.9908 5.69003 12.5242 4.71302 14.0007 4.01538H13.9999Z" fill="url(#paint8_linear_1477_16699)"/>
<path d="M33.0012 42.9838L32.4141 40.7796C33.2372 40.3732 34.0287 39.9021 34.7706 39.3788L35.585 40.5089C35.2772 40.7244 34.9702 41.0006 34.1874 41.3692L33.9822 40.8925C34.2939 40.7583 34.6435 40.5366 34.8605 40.3906L34.6451 40.0915C34.1258 40.4371 33.5821 40.7591 33.0225 41.0503L33.339 42.2396C34.4675 41.6698 35.5708 40.9556 36.6267 40.1128C36.1682 39.685 35.151 38.6472 34.7209 38.2203L35.0863 37.8525C35.3672 38.1311 36.8359 39.655 37.3449 40.1893C36.0104 41.3092 34.477 42.2862 33.0004 42.9838H33.0012Z" fill="url(#paint9_linear_1477_16699)"/>
<path d="M9.10938 39.7127L10.9237 38.3292C11.6135 38.9353 12.3506 39.487 13.1169 39.9739L12.3829 41.1577C12.0657 40.9549 11.694 40.7773 11.0547 40.1941L11.417 39.8232C11.66 40.0599 11.9978 40.299 12.2164 40.4435L12.4105 40.1301C11.8928 39.7821 11.3885 39.4017 10.9056 38.9961L9.92697 39.7427C10.8843 40.5689 11.9647 41.3163 13.1469 41.9705C13.367 41.3834 13.9392 40.0473 14.1696 39.487L14.6495 39.6843C14.4987 40.0504 13.6511 41.9895 13.3513 42.6634C11.8068 41.8569 10.3192 40.812 9.11095 39.7127H9.10938Z" fill="url(#paint10_linear_1477_16699)"/>
<path d="M37.8877 7.28735L36.0734 8.67079C35.3837 8.0647 34.6466 7.51305 33.8803 7.02613L34.6142 5.84235C34.9315 6.04517 35.3032 6.22273 35.9424 6.80594L35.5802 7.17686C35.3371 6.9401 34.9993 6.70098 34.7807 6.55656L34.5866 6.86987C35.1043 7.2179 35.6086 7.59829 36.0916 8.00393L37.0701 7.25736C36.1129 6.43108 35.0325 5.68372 33.8503 5.02948C33.6301 5.61664 33.0579 6.95273 32.8275 7.51305L32.3477 7.31576C32.4984 6.94957 33.346 5.01054 33.6459 4.33658C35.1903 5.14313 36.6779 6.18801 37.8862 7.28735H37.8877Z" fill="url(#paint11_linear_1477_16699)"/>
<path d="M7.28671 9.11115L8.67015 10.9255C8.06405 11.6152 7.51241 12.3523 7.02549 13.1186L5.84171 12.3847C6.04453 12.0674 6.22209 11.6957 6.8053 11.0565L7.17622 11.4187C6.93946 11.6618 6.70034 11.9996 6.55592 12.2182L6.86923 12.4123C7.21726 11.8946 7.59765 11.3903 8.00329 10.9073L7.25672 9.92874C6.43044 10.886 5.68308 11.9664 5.02884 13.1486C5.616 13.3688 6.95209 13.941 7.51241 14.1714L7.31512 14.6512C6.94893 14.5005 5.0099 13.6529 4.33594 13.353C5.14249 11.8086 6.18737 10.321 7.28671 9.11272V9.11115Z" fill="url(#paint12_linear_1477_16699)"/>
<path d="M39.7116 37.8888L38.3281 36.0745C38.9342 35.3848 39.4859 34.6477 39.9728 33.8814L41.1566 34.6153C40.9537 34.9326 40.7762 35.3043 40.193 35.9435L39.8221 35.5813C40.0588 35.3382 40.2979 35.0004 40.4424 34.7818L40.129 34.5877C39.781 35.1054 39.4006 35.6097 38.995 36.0927L39.7416 37.0712C40.5678 36.114 41.3152 35.0336 41.9694 33.8514C41.3823 33.6312 40.0462 33.059 39.4859 32.8286L39.6832 32.3488C40.0493 32.4995 41.9884 33.3471 42.6623 33.647C41.8558 35.1914 40.8109 36.679 39.7116 37.8873V37.8888Z" fill="url(#paint13_linear_1477_16699)"/>
<path d="M1.86016 24.7891L4.12118 25.0938C4.18037 26.01 4.31217 26.9215 4.50946 27.8078L3.15285 28.1258C3.07235 27.7588 2.93425 27.3698 2.89479 26.5048L3.41328 26.4985C3.41723 26.8379 3.48826 27.2459 3.53955 27.5023L3.89784 27.4187C3.77789 26.8071 3.69029 26.1812 3.63583 25.5523L2.41575 25.3881C2.50888 26.6492 2.74405 27.9419 3.11734 29.2401C3.68792 28.9805 5.03743 28.4407 5.59696 28.2071L5.79663 28.6853C5.43123 28.8377 3.46063 29.6095 2.77167 29.8739C2.25002 28.2118 1.93672 26.4212 1.85938 24.7891H1.86016Z" fill="url(#paint14_linear_1477_16699)"/>
<path d="M45.1357 22.2101L42.8747 21.9054C42.8155 20.9892 42.6837 20.0777 42.4864 19.1914L43.843 18.8734C43.9235 19.2404 44.0616 19.6294 44.1011 20.4944L43.5826 20.5007C43.5786 20.1613 43.5076 19.7533 43.4563 19.4968L43.098 19.5805C43.218 20.1921 43.3056 20.8179 43.36 21.4469L44.5801 21.6111C44.487 20.35 44.2518 19.0573 43.8785 17.7591C43.3079 18.0187 41.9584 18.5585 41.3989 18.7921L41.1992 18.3139C41.5646 18.1615 43.5352 17.3897 44.2242 17.1253C44.7458 18.7874 45.0591 20.578 45.1365 22.2101H45.1357Z" fill="url(#paint15_linear_1477_16699)"/>
<path d="M22.2097 1.86169L21.9051 4.12271C20.9889 4.1819 20.0773 4.31369 19.1911 4.51099L18.873 3.15438C19.24 3.07388 19.6291 2.93577 20.494 2.89631L20.5003 3.41481C20.161 3.41875 19.753 3.48978 19.4965 3.54108L19.5802 3.89937C20.1918 3.77941 20.8176 3.69181 21.4466 3.63736L21.6107 2.41728C20.3496 2.5104 19.0569 2.74558 17.7587 3.11886C18.0184 3.68945 18.5582 5.03895 18.7918 5.59849L18.3135 5.79815C18.1612 5.43276 17.3894 3.46216 17.125 2.7732C18.787 2.25155 20.5777 1.93824 22.2097 1.8609V1.86169Z" fill="url(#paint16_linear_1477_16699)"/>
<path d="M24.7891 45.1383L25.0937 42.8773C26.0099 42.8181 26.9214 42.6863 27.8077 42.489L28.1257 43.8456C27.7588 43.9261 27.3697 44.0642 26.5048 44.1037L26.4984 43.5852C26.8378 43.5812 27.2458 43.5102 27.5023 43.4589L27.4186 43.1006C26.807 43.2206 26.1812 43.3082 25.5522 43.3626L25.3881 44.5827C26.6492 44.4896 27.9419 44.2544 29.2401 43.8811C28.9804 43.3106 28.4406 41.961 28.207 41.4015L28.6853 41.2018C28.8376 41.5672 29.6094 43.5378 29.8738 44.2268C28.2118 44.7484 26.4211 45.0618 24.7891 45.1391V45.1383Z" fill="url(#paint17_linear_1477_16699)"/>
<g clip-path="url(#clip2_1477_16699)">
<path d="M24.011 22.9133H22.0703V23.0746C22.0703 23.1436 22.1132 23.2047 22.1768 23.2266L22.3085 23.2718C22.3884 23.2992 22.4427 23.3752 22.4439 23.4621C22.4625 24.7613 22.6445 34.4646 24.011 37.6003C25.3775 34.4649 25.5598 24.7613 25.578 23.4621C25.5793 23.3752 25.6336 23.2992 25.7135 23.2718L25.8452 23.2266C25.9088 23.2047 25.9517 23.1436 25.9517 23.0746V22.9133H24.0113H24.011Z" fill="url(#paint18_linear_1477_16699)"/>
<path d="M24.0116 20.061H20.1719C20.1719 22.6792 22.9589 22.5939 22.9589 22.5939H25.0646C25.0646 22.5939 27.8516 22.6792 27.8516 20.061H24.0119H24.0116Z" fill="url(#paint19_linear_1477_16699)"/>
<path d="M24.4987 19.7505C24.4987 19.7505 24.8072 18.605 26.4943 18.2869C28.1814 17.9688 28.633 16.8235 28.633 16.8235C28.633 16.8235 27.8123 17.308 26.1537 17.5304C24.8958 17.699 24.4577 19.1353 24.4987 19.7502V19.7505Z" fill="url(#paint20_linear_1477_16699)"/>
<path d="M23.6131 19.5597C23.6131 19.5597 23.8393 17.4384 26.6167 16.8445C29.3941 16.2506 30.5255 15.2545 31.0605 14.0877C31.0605 14.0877 29.3577 15.4104 26.7401 15.5717C24.5128 15.7088 22.852 17.8202 23.6131 19.5597Z" fill="url(#paint21_linear_1477_16699)"/>
<path d="M22.8113 19.5597C22.8113 19.5597 21.364 15.3544 26.2058 14.7233C29.5494 14.2874 30.5259 13.6168 31.2136 12.5333C31.2136 12.5333 30.0076 13.2396 26.4795 13.3216C21.8311 13.4298 21.0622 14.1109 20.8154 16.0597C20.5717 17.9843 22.811 19.5597 22.811 19.5597H22.8113Z" fill="url(#paint22_linear_1477_16699)"/>
<path fill-rule="evenodd" clip-rule="evenodd" d="M26.5117 29.9972C27.1609 25.8212 29.1219 25.4462 31.3137 24.5268C33.5093 23.6558 35.9359 22.2402 37.6026 17.0981C36.3376 23.5181 33.4864 25.4169 29.7239 26.4069C30.606 26.2908 31.9542 26.0322 33.2118 25.3822C34.4759 24.7511 35.6492 23.728 36.337 22.5211C35.5721 24.5364 34.4589 25.7284 33.2328 26.3821C32.0113 27.0473 30.6769 27.1745 29.5733 27.3266C30.3764 27.347 31.4887 27.4068 32.5584 27.1717C33.6314 26.9468 34.6619 26.427 35.3774 25.5276C34.5104 27.1854 33.4543 27.876 32.3797 28.1124C31.3069 28.3551 30.216 28.1435 29.3191 28.1381C30.5365 28.4741 32.7148 28.8504 34.0214 27.674C32.2072 30.2349 30.2663 29.2681 28.7143 28.7585C29.4937 29.3495 31.107 29.8258 32.1573 29.3934C30.3027 30.9382 29.3181 29.9794 28.1624 29.0696C28.5406 29.6575 29.0084 30.1544 29.6412 30.4276C27.943 30.4728 27.6653 28.7566 26.512 29.9972H26.5117Z" fill="url(#paint23_linear_1477_16699)"/>
<path fill-rule="evenodd" clip-rule="evenodd" d="M21.5362 29.9972C20.887 25.8212 18.926 25.4462 16.7341 24.5268C14.5386 23.6555 12.112 22.2402 10.4453 17.0981C11.7103 23.5177 14.5615 25.4169 18.324 26.4069C17.4419 26.2908 16.0936 26.0322 14.8364 25.3822C13.5723 24.7511 12.3989 23.728 11.7112 22.5211C12.4761 24.5364 13.5893 25.7284 14.8154 26.3821C16.0369 27.0473 17.3713 27.1745 18.4749 27.3266C17.6718 27.347 16.5595 27.4068 15.4898 27.1717C14.4168 26.9468 13.3863 26.427 12.6708 25.5276C13.5377 27.1854 14.5939 27.8757 15.6685 28.1124C16.7412 28.3551 17.8322 28.1435 18.7291 28.1381C17.5116 28.4741 15.3334 28.8507 14.0268 27.674C15.8409 30.2349 17.7819 29.2681 19.3342 28.7585C18.5545 29.3495 16.9415 29.8258 15.8912 29.3934C17.7458 30.9382 18.7304 29.9794 19.8861 29.0696C19.5079 29.6575 19.0401 30.1544 18.4073 30.4276C20.1055 30.4728 20.3832 28.7566 21.5365 29.9972H21.5362Z" fill="url(#paint24_linear_1477_16699)"/>
</g>
</g>
</g>
<defs>
<linearGradient id="paint0_linear_1477_16699" x1="28.6935" y1="-0.600637" x2="17.7915" y2="49.9938" gradientUnits="userSpaceOnUse">
<stop stop-color="#E9D094"/>
<stop offset="0.34" stop-color="#FFD670"/>
<stop offset="0.66" stop-color="#BC5C2C"/>
<stop offset="1" stop-color="#DFAA4C"/>
</linearGradient>
<linearGradient id="paint1_linear_1477_16699" x1="28.6921" y1="-0.600592" x2="17.7901" y2="49.9938" gradientUnits="userSpaceOnUse">
<stop stop-color="#E9D094"/>
<stop offset="0.34" stop-color="#FFD670"/>
<stop offset="0.66" stop-color="#BC5C2C"/>
<stop offset="1" stop-color="#DFAA4C"/>
</linearGradient>
<linearGradient id="paint2_linear_1477_16699" x1="28.6932" y1="-0.600606" x2="17.7912" y2="49.9938" gradientUnits="userSpaceOnUse">
<stop stop-color="#E9D094"/>
<stop offset="0.34" stop-color="#FFD670"/>
<stop offset="0.66" stop-color="#BC5C2C"/>
<stop offset="1" stop-color="#DFAA4C"/>
</linearGradient>
<linearGradient id="paint3_linear_1477_16699" x1="28.6931" y1="-0.600615" x2="17.7912" y2="49.9938" gradientUnits="userSpaceOnUse">
<stop stop-color="#E9D094"/>
<stop offset="0.34" stop-color="#FFD670"/>
<stop offset="0.66" stop-color="#BC5C2C"/>
<stop offset="1" stop-color="#DFAA4C"/>
</linearGradient>
<linearGradient id="paint4_linear_1477_16699" x1="9.12847" y1="-4.81652" x2="-1.77346" y2="45.7779" gradientUnits="userSpaceOnUse">
<stop stop-color="#E9D094"/>
<stop offset="0.34" stop-color="#FFD670"/>
<stop offset="0.66" stop-color="#BC5C2C"/>
<stop offset="1" stop-color="#DFAA4C"/>
</linearGradient>
<linearGradient id="paint5_linear_1477_16699" x1="48.2595" y1="3.61546" x2="37.3575" y2="54.2099" gradientUnits="userSpaceOnUse">
<stop stop-color="#E9D094"/>
<stop offset="0.34" stop-color="#FFD670"/>
<stop offset="0.66" stop-color="#BC5C2C"/>
<stop offset="1" stop-color="#DFAA4C"/>
</linearGradient>
<linearGradient id="paint6_linear_1477_16699" x1="14.6985" y1="-3.61633" x2="3.79654" y2="46.9781" gradientUnits="userSpaceOnUse">
<stop stop-color="#E9D094"/>
<stop offset="0.34" stop-color="#FFD670"/>
<stop offset="0.66" stop-color="#BC5C2C"/>
<stop offset="1" stop-color="#DFAA4C"/>
</linearGradient>
<linearGradient id="paint7_linear_1477_16699" x1="42.6888" y1="2.41523" x2="31.7869" y2="53.0096" gradientUnits="userSpaceOnUse">
<stop stop-color="#E9D094"/>
<stop offset="0.34" stop-color="#FFD670"/>
<stop offset="0.66" stop-color="#BC5C2C"/>
<stop offset="1" stop-color="#DFAA4C"/>
</linearGradient>
<linearGradient id="paint8_linear_1477_16699" x1="14.3215" y1="-3.69742" x2="3.41958" y2="46.897" gradientUnits="userSpaceOnUse">
<stop stop-color="#E9D094"/>
<stop offset="0.34" stop-color="#FFD670"/>
<stop offset="0.66" stop-color="#BC5C2C"/>
<stop offset="1" stop-color="#DFAA4C"/>
</linearGradient>
<linearGradient id="paint9_linear_1477_16699" x1="43.0677" y1="2.4964" x2="32.1658" y2="53.0908" gradientUnits="userSpaceOnUse">
<stop stop-color="#E9D094"/>
<stop offset="0.34" stop-color="#FFD670"/>
<stop offset="0.66" stop-color="#BC5C2C"/>
<stop offset="1" stop-color="#DFAA4C"/>
</linearGradient>
<linearGradient id="paint10_linear_1477_16699" x1="20.9246" y1="-2.27427" x2="10.0227" y2="48.3202" gradientUnits="userSpaceOnUse">
<stop stop-color="#E9D094"/>
<stop offset="0.34" stop-color="#FFD670"/>
<stop offset="0.66" stop-color="#BC5C2C"/>
<stop offset="1" stop-color="#DFAA4C"/>
</linearGradient>
<linearGradient id="paint11_linear_1477_16699" x1="36.4598" y1="1.07306" x2="25.5579" y2="51.6675" gradientUnits="userSpaceOnUse">
<stop stop-color="#E9D094"/>
<stop offset="0.34" stop-color="#FFD670"/>
<stop offset="0.66" stop-color="#BC5C2C"/>
<stop offset="1" stop-color="#DFAA4C"/>
</linearGradient>
<linearGradient id="paint12_linear_1477_16699" x1="10.1111" y1="-4.60458" x2="-0.790787" y2="45.9898" gradientUnits="userSpaceOnUse">
<stop stop-color="#E9D094"/>
<stop offset="0.34" stop-color="#FFD670"/>
<stop offset="0.66" stop-color="#BC5C2C"/>
<stop offset="1" stop-color="#DFAA4C"/>
</linearGradient>
<linearGradient id="paint13_linear_1477_16699" x1="47.276" y1="3.40353" x2="36.374" y2="53.9979" gradientUnits="userSpaceOnUse">
<stop stop-color="#E9D094"/>
<stop offset="0.34" stop-color="#FFD670"/>
<stop offset="0.66" stop-color="#BC5C2C"/>
<stop offset="1" stop-color="#DFAA4C"/>
</linearGradient>
<linearGradient id="paint14_linear_1477_16699" x1="10.5623" y1="-4.50718" x2="-0.339596" y2="46.0872" gradientUnits="userSpaceOnUse">
<stop stop-color="#E9D094"/>
<stop offset="0.34" stop-color="#FFD670"/>
<stop offset="0.66" stop-color="#BC5C2C"/>
<stop offset="1" stop-color="#DFAA4C"/>
</linearGradient>
<linearGradient id="paint15_linear_1477_16699" x1="46.8216" y1="3.3061" x2="35.9196" y2="53.9005" gradientUnits="userSpaceOnUse">
<stop stop-color="#E9D094"/>
<stop offset="0.34" stop-color="#FFD670"/>
<stop offset="0.66" stop-color="#BC5C2C"/>
<stop offset="1" stop-color="#DFAA4C"/>
</linearGradient>
<linearGradient id="paint16_linear_1477_16699" x1="20.7555" y1="-2.31101" x2="9.85361" y2="48.2834" gradientUnits="userSpaceOnUse">
<stop stop-color="#E9D094"/>
<stop offset="0.34" stop-color="#FFD670"/>
<stop offset="0.66" stop-color="#BC5C2C"/>
<stop offset="1" stop-color="#DFAA4C"/>
</linearGradient>
<linearGradient id="paint17_linear_1477_16699" x1="36.6313" y1="1.10983" x2="25.7294" y2="51.7042" gradientUnits="userSpaceOnUse">
<stop stop-color="#E9D094"/>
<stop offset="0.34" stop-color="#FFD670"/>
<stop offset="0.66" stop-color="#BC5C2C"/>
<stop offset="1" stop-color="#DFAA4C"/>
</linearGradient>
<linearGradient id="paint18_linear_1477_16699" x1="24.011" y1="12.464" x2="24.011" y2="39.9121" gradientUnits="userSpaceOnUse">
<stop stop-color="#E9D094"/>
<stop offset="0.34" stop-color="#FFD670"/>
<stop offset="0.66" stop-color="#BC5C2C"/>
<stop offset="1" stop-color="#DFAA4C"/>
</linearGradient>
<linearGradient id="paint19_linear_1477_16699" x1="24.0116" y1="12.464" x2="24.0116" y2="39.9121" gradientUnits="userSpaceOnUse">
<stop stop-color="#E9D094"/>
<stop offset="0.34" stop-color="#FFD670"/>
<stop offset="0.66" stop-color="#BC5C2C"/>
<stop offset="1" stop-color="#DFAA4C"/>
</linearGradient>
<linearGradient id="paint20_linear_1477_16699" x1="26.5643" y1="9.36231" x2="26.5643" y2="36.5944" gradientUnits="userSpaceOnUse">
<stop stop-color="#E9D094"/>
<stop offset="0.34" stop-color="#FFD670"/>
<stop offset="0.66" stop-color="#BC5C2C"/>
<stop offset="1" stop-color="#DFAA4C"/>
</linearGradient>
<linearGradient id="paint21_linear_1477_16699" x1="27.2433" y1="9.36231" x2="27.2433" y2="36.5944" gradientUnits="userSpaceOnUse">
<stop stop-color="#E9D094"/>
<stop offset="0.34" stop-color="#FFD670"/>
<stop offset="0.66" stop-color="#BC5C2C"/>
<stop offset="1" stop-color="#DFAA4C"/>
</linearGradient>
<linearGradient id="paint22_linear_1477_16699" x1="26.0056" y1="9.36229" x2="26.0056" y2="36.5944" gradientUnits="userSpaceOnUse">
<stop stop-color="#E9D094"/>
<stop offset="0.34" stop-color="#FFD670"/>
<stop offset="0.66" stop-color="#BC5C2C"/>
<stop offset="1" stop-color="#DFAA4C"/>
</linearGradient>
<linearGradient id="paint23_linear_1477_16699" x1="32.0573" y1="9.67883" x2="32.0573" y2="37.1273" gradientUnits="userSpaceOnUse">
<stop stop-color="#E9D094"/>
<stop offset="0.34" stop-color="#FFD670"/>
<stop offset="0.66" stop-color="#BC5C2C"/>
<stop offset="1" stop-color="#DFAA4C"/>
</linearGradient>
<linearGradient id="paint24_linear_1477_16699" x1="15.9909" y1="9.67883" x2="15.9909" y2="37.1273" gradientUnits="userSpaceOnUse">
<stop stop-color="#E9D094"/>
<stop offset="0.34" stop-color="#FFD670"/>
<stop offset="0.66" stop-color="#BC5C2C"/>
<stop offset="1" stop-color="#DFAA4C"/>
</linearGradient>
<clipPath id="clip0_1477_16699">
<rect width="47" height="47" fill="white"/>
</clipPath>
<clipPath id="clip1_1477_16699">
<rect width="47" height="47" fill="white"/>
</clipPath>
<clipPath id="clip2_1477_16699">
<rect width="27.1556" height="25.0667" fill="white" transform="translate(10.4453 12.5333)"/>
</clipPath>
</defs>
</svg>
