<svg width="512" height="512" viewBox="0 0 512 512" fill="none" xmlns="http://www.w3.org/2000/svg">
<g clip-path="url(#clip0_172_12)">
<path d="M511.997 255.998C511.997 114.616 397.384 0 255.998 0C114.612 0 0 114.616 0 255.998C0 397.381 114.612 511.997 255.998 511.997C397.384 511.997 511.997 397.381 511.997 255.998Z" fill="#FFEDAC"/>
<path d="M428.763 243.219C428.763 242.611 417.68 235.532 411.85 231.839C409.332 230.258 406.994 228.407 404.876 226.32C400.511 222.005 393.241 214.462 390.882 209.82C389.363 206.853 389.988 201.515 391.169 196.422C393.216 187.479 391.665 178.09 386.851 170.28L379.266 157.93C375.777 152.297 372.971 146.267 370.907 139.97C368.285 131.877 363.726 124.548 357.626 118.619C345.287 106.584 311.137 100.658 282.769 99.713C281.016 99.1838 279.233 98.7598 277.43 98.4432C264.801 96.2929 251.325 92.8181 239.235 95.0743C221.288 98.4159 203.143 104.041 189.599 117.92C186.868 120.722 182.602 122.043 179.659 124.698C173.826 129.962 165.972 129.962 160.791 135.805C157.756 139.219 156.353 150.349 148.4 154.599C135.245 161.648 125.511 169.413 122.323 173.372C119.913 176.352 118.046 179.837 115.701 182.882C113.311 186.005 101.976 191.292 98.682 194.6C95.3882 197.907 90.9714 205.956 92.9545 215.465C93.1388 216.332 93.2958 217.049 93.4085 217.629C94.7055 222.462 98.2315 231.224 97.4157 235.242C96.4668 239.997 84.2335 275.444 111.567 284.892C117.257 286.861 119.667 290.695 120.288 296.531C120.77 300.887 122.063 305.355 124.333 310.164C126.821 315.41 131.719 318.264 132.119 318.612C133.767 320.066 141.441 328.074 142.072 329.241C151.769 347.164 149.045 356.121 167.607 362.21C172.376 363.785 176.955 365.884 181.26 368.47C186.506 371.627 192.124 374.117 197.985 375.884C198.156 375.932 198.416 376.024 198.719 376.133C202.843 366.17 207.024 356.718 211.192 347.823C177.779 313.56 186.565 275.174 189.77 264.88C189.865 264.574 190.034 264.298 190.264 264.075C190.493 263.852 190.774 263.69 191.082 263.604C191.39 263.518 191.714 263.51 192.026 263.582C192.337 263.653 192.626 263.801 192.866 264.013C199.876 270.157 221.196 292.319 218.694 332.327C226.067 317.602 233.238 304.652 239.788 293.596C215.677 252.732 233.644 216.912 239.307 207.468C239.474 207.189 239.708 206.958 239.988 206.794C240.268 206.63 240.585 206.539 240.909 206.531C241.233 206.522 241.555 206.595 241.843 206.743C242.132 206.891 242.378 207.11 242.56 207.379C247.475 214.677 260.831 238.601 252.561 273.068C258.558 263.9 263.425 257.114 266.607 252.855C275.222 195.88 318.25 177.185 329.558 173.222C329.861 173.114 330.187 173.084 330.504 173.135C330.822 173.186 331.122 173.316 331.376 173.513C331.63 173.711 331.83 173.969 331.958 174.264C332.086 174.559 332.138 174.881 332.108 175.202C331.064 186.985 323.8 232.354 273.891 255.654C267.894 263.555 262.115 271.874 256.589 280.407C275.672 265.511 302.419 258.49 324.64 263.883C324.953 263.955 325.244 264.104 325.486 264.316C325.728 264.528 325.913 264.798 326.025 265.099C326.136 265.401 326.171 265.726 326.126 266.044C326.081 266.363 325.957 266.665 325.766 266.924C319.376 275.382 293.964 303.911 246.1 297.374C238.01 311.011 230.596 324.828 224.015 338.044C244.683 322.404 274.887 316.414 298.323 324.288C298.635 324.388 298.917 324.565 299.143 324.802C299.369 325.04 299.532 325.33 299.617 325.646C299.702 325.963 299.706 326.296 299.629 326.614C299.552 326.933 299.397 327.227 299.176 327.47C291.899 335.32 263.876 361.012 217.803 350.81C213.485 359.937 207.044 374.945 203.901 382.362C202.819 384.912 201.822 387.482 200.938 390.114C198.89 396.156 196.159 403.692 192.879 411.232C192.418 412.308 192.182 413.466 192.187 414.636C192.193 415.807 192.438 416.963 192.91 418.034C193.381 419.106 194.067 420.068 194.927 420.863C195.786 421.657 196.799 422.267 197.904 422.653C234.261 435.635 273.735 437.097 310.952 426.841C312.183 426.494 313.318 425.873 314.275 425.025C315.231 424.177 315.983 423.123 316.475 421.943C317.25 420.103 318.015 418.363 318.015 418.363C318.015 418.363 334.084 381.035 336.446 364.774C337.378 358.38 339.235 353.585 341.15 350.096C342.405 347.816 344.221 345.893 346.425 344.508C348.629 343.123 351.149 342.322 353.749 342.181C365.995 341.532 392.073 339.822 401.559 336.815C414.168 332.811 408.699 309.85 408.024 307.372C407.348 304.894 414.089 299.142 415.478 295.784C416.867 292.425 412.065 291.275 410.109 287.592C408.153 283.909 414.973 281.253 415.946 277.908C416.919 274.563 413.727 270.884 412.434 268.409C411.14 265.934 410.645 262.839 410.645 262.839C410.645 262.839 419.861 256.084 424.769 251.82C429.678 247.557 428.759 244.045 428.749 243.215" fill="black"/>
</g>
<defs>
<clipPath id="clip0_172_12">
<rect width="511.997" height="512" fill="white"/>
</clipPath>
</defs>
</svg>
