<svg xmlns="http://www.w3.org/2000/svg" xmlns:xlink="http://www.w3.org/1999/xlink" viewBox="0 0 268 362" width="268" height="362" preserveAspectRatio="xMidYMid meet" style="width: 100%; height: 100%; transform: translate3d(0px, 0px, 0px); content-visibility: visible;"><defs><clipPath id="__lottie_element_36"><rect width="268" height="362" x="0" y="0"></rect></clipPath><linearGradient id="__lottie_element_43" spreadMethod="pad" gradientUnits="userSpaceOnUse" x1="-0.08799999952316284" y1="-236.75100708007812" x2="-0.08799999952316284" y2="487.09698486328125"><stop offset="0%" stop-color="rgb(233,208,148)"></stop><stop offset="17%" stop-color="rgb(244,211,130)"></stop><stop offset="34%" stop-color="rgb(255,214,112)"></stop><stop offset="50%" stop-color="rgb(222,153,78)"></stop><stop offset="66%" stop-color="rgb(188,92,44)"></stop><stop offset="83%" stop-color="rgb(206,131,60)"></stop><stop offset="100%" stop-color="rgb(223,170,76)"></stop></linearGradient><linearGradient id="__lottie_element_44" spreadMethod="pad" gradientUnits="userSpaceOnUse" x1="-0.9490000009536743" y1="-328.5400085449219" x2="-0.9490000009536743" y2="395.3080139160156"><stop offset="0%" stop-color="rgb(233,208,148)"></stop><stop offset="17%" stop-color="rgb(244,211,130)"></stop><stop offset="34%" stop-color="rgb(255,214,112)"></stop><stop offset="50%" stop-color="rgb(222,153,78)"></stop><stop offset="66%" stop-color="rgb(188,92,44)"></stop><stop offset="83%" stop-color="rgb(206,131,60)"></stop><stop offset="100%" stop-color="rgb(223,170,76)"></stop></linearGradient><linearGradient id="__lottie_element_45" spreadMethod="pad" gradientUnits="userSpaceOnUse" x1="-0.7039999961853027" y1="-249.88400268554688" x2="-0.7039999961853027" y2="473.9639892578125"><stop offset="0%" stop-color="rgb(233,208,148)"></stop><stop offset="17%" stop-color="rgb(244,211,130)"></stop><stop offset="34%" stop-color="rgb(255,214,112)"></stop><stop offset="50%" stop-color="rgb(222,153,78)"></stop><stop offset="66%" stop-color="rgb(188,92,44)"></stop><stop offset="83%" stop-color="rgb(206,131,60)"></stop><stop offset="100%" stop-color="rgb(223,170,76)"></stop></linearGradient><linearGradient id="__lottie_element_46" spreadMethod="pad" gradientUnits="userSpaceOnUse" x1="-0.2930000126361847" y1="-205.74099731445312" x2="-0.2930000126361847" y2="518.1069946289062"><stop offset="0%" stop-color="rgb(233,208,148)"></stop><stop offset="17%" stop-color="rgb(244,211,130)"></stop><stop offset="34%" stop-color="rgb(255,214,112)"></stop><stop offset="50%" stop-color="rgb(222,153,78)"></stop><stop offset="66%" stop-color="rgb(188,92,44)"></stop><stop offset="83%" stop-color="rgb(206,131,60)"></stop><stop offset="100%" stop-color="rgb(223,170,76)"></stop></linearGradient><linearGradient id="__lottie_element_47" spreadMethod="pad" gradientUnits="userSpaceOnUse" x1="-0.7979999780654907" y1="-438.9070129394531" x2="-0.7979999780654907" y2="260.4049987792969"><stop offset="0%" stop-color="rgb(233,208,148)"></stop><stop offset="17%" stop-color="rgb(244,211,130)"></stop><stop offset="34%" stop-color="rgb(255,214,112)"></stop><stop offset="50%" stop-color="rgb(222,153,78)"></stop><stop offset="66%" stop-color="rgb(188,92,44)"></stop><stop offset="83%" stop-color="rgb(206,131,60)"></stop><stop offset="100%" stop-color="rgb(223,170,76)"></stop></linearGradient><linearGradient id="__lottie_element_48" spreadMethod="pad" gradientUnits="userSpaceOnUse" x1="-0.8700000047683716" y1="-220.20599365234375" x2="-0.8700000047683716" y2="62.50899887084961"><stop offset="0%" stop-color="rgb(233,208,148)"></stop><stop offset="17%" stop-color="rgb(244,211,130)"></stop><stop offset="34%" stop-color="rgb(255,214,112)"></stop><stop offset="50%" stop-color="rgb(222,153,78)"></stop><stop offset="66%" stop-color="rgb(188,92,44)"></stop><stop offset="83%" stop-color="rgb(206,131,60)"></stop><stop offset="100%" stop-color="rgb(223,170,76)"></stop></linearGradient><linearGradient id="__lottie_element_49" spreadMethod="pad" gradientUnits="userSpaceOnUse" x1="-0.019999999552965164" y1="-411.27398681640625" x2="-0.019999999552965164" y2="312.5740051269531"><stop offset="0%" stop-color="rgb(233,208,148)"></stop><stop offset="17%" stop-color="rgb(244,211,130)"></stop><stop offset="34%" stop-color="rgb(255,214,112)"></stop><stop offset="50%" stop-color="rgb(222,153,78)"></stop><stop offset="66%" stop-color="rgb(188,92,44)"></stop><stop offset="83%" stop-color="rgb(206,131,60)"></stop><stop offset="100%" stop-color="rgb(223,170,76)"></stop></linearGradient><linearGradient id="__lottie_element_50" spreadMethod="pad" gradientUnits="userSpaceOnUse" x1="-0.4440000057220459" y1="-309.89801025390625" x2="-0.4440000057220459" y2="413.95001220703125"><stop offset="0%" stop-color="rgb(233,208,148)"></stop><stop offset="17%" stop-color="rgb(244,211,130)"></stop><stop offset="34%" stop-color="rgb(255,214,112)"></stop><stop offset="50%" stop-color="rgb(222,153,78)"></stop><stop offset="66%" stop-color="rgb(188,92,44)"></stop><stop offset="83%" stop-color="rgb(206,131,60)"></stop><stop offset="100%" stop-color="rgb(223,170,76)"></stop></linearGradient><linearGradient id="__lottie_element_51" spreadMethod="pad" gradientUnits="userSpaceOnUse" x1="-0.6309999823570251" y1="-186.10400390625" x2="-0.6309999823570251" y2="537.7440185546875"><stop offset="0%" stop-color="rgb(233,208,148)"></stop><stop offset="17%" stop-color="rgb(244,211,130)"></stop><stop offset="34%" stop-color="rgb(255,214,112)"></stop><stop offset="50%" stop-color="rgb(222,153,78)"></stop><stop offset="66%" stop-color="rgb(188,92,44)"></stop><stop offset="83%" stop-color="rgb(206,131,60)"></stop><stop offset="100%" stop-color="rgb(223,170,76)"></stop></linearGradient></defs><g clip-path="url(#__lottie_element_36)"><g transform="matrix(0.800000011920929,0,0,0.800000011920929,-610.1784057617188,-200.79681396484375)" opacity="1" style="display: block;"><g opacity="1" transform="matrix(1,0,0,1,960.0880126953125,376.7510070800781)"><path fill="url(#__lottie_element_43)" fill-opacity="1" d=" M-30.073999404907227,13.29699993133545 C-21.95400047302246,6.159999847412109 -14.026000022888184,7.302999973297119 -14.026000022888184,7.302999973297119 C-14.026000022888184,7.302999973297119 -22.729000091552734,-1.6820000410079956 -51.731998443603516,3.9140000343322754 C-69.46299743652344,7.336999893188477 -72.90699768066406,2.7200000286102295 -74.87899780273438,-2.739000082015991 C-42.87200164794922,-13.36299991607666 3.4179999828338623,-18.159000396728516 69.78600311279297,-6.607999801635742 C70.30500030517578,-6.51800012588501 70.84400177001953,-6.435999870300293 71.39299774169922,-6.36899995803833 C72.16500091552734,-2.1610000133514404 73.39900207519531,4.618000030517578 74.87899780273438,12.970000267028809 C59.76599884033203,11.4350004196167 12.17300033569336,7.4710001945495605 -30.073999404907227,13.29699993133545z"></path></g><g opacity="1" transform="matrix(1,0,0,1,985.948974609375,468.5400085449219)"><path fill="url(#__lottie_element_44)" fill-opacity="1" d=" M63.4109992980957,34.19900131225586 C60.777000427246094,35.935001373291016 56.643001556396484,39.27899932861328 49.72999954223633,37.49100112915039 C41.50699996948242,35.36399841308594 34.8380012512207,32.32400131225586 34.8380012512207,32.32400131225586 C29.822999954223633,34.26300048828125 26.097000122070312,37.172000885009766 21.312999725341797,34.60300064086914 C17.552000045776367,32.58300018310547 17.014999389648438,27.625 17.13800048828125,23.641000747680664 C18.740999221801758,21.613000869750977 19.913000106811523,20.114999771118164 20.28700065612793,19.604000091552734 C22.010000228881836,17.253000259399414 30.9689998626709,19.437999725341797 30.9689998626709,19.437999725341797 C26.336000442504883,11.086999893188477 17.049999237060547,13.315999984741211 15.687000274658203,15.506999969482422 C14.324000358581543,17.697999954223633 -0.010999999940395355,45.14899826049805 -0.010999999940395355,45.14899826049805 C-0.010999999940395355,45.14899826049805 6.178999900817871,37.42100143432617 11.744000434875488,30.43400001525879 C13.3149995803833,33.45500183105469 16.496000289916992,38.792999267578125 20.726999282836914,41.96200180053711 C15.081999778747559,43.604000091552734 9.456000328063965,46.82699966430664 5.954999923706055,52.95600128173828 C-3.2950000762939453,69.10800170898438 -20.259000778198242,69.14399719238281 -20.399999618530273,69.14399719238281 C-20.399999618530273,69.14399719238281 -19.729000091552734,55.23400115966797 -28.466999053955078,45.71900177001953 C-37.222999572753906,36.22200012207031 -39.53499984741211,21.0939998626709 -39.53499984741211,21.0939998626709 C-44.178001403808594,27.50200080871582 -41.42399978637695,41.4119987487793 -41.42399978637695,41.4119987487793 C-41.42399978637695,41.4119987487793 -55.08700180053711,24.624000549316406 -59.99399948120117,-2.8610000610351562 C-61.32899856567383,-10.361000061035156 -60.500999450683594,-16.018999099731445 -58.60200119018555,-20.29800033569336 C-57.58700180053711,-18.509000778198242 -56.9900016784668,-16.756999969482422 -57.20600128173828,-15.225000381469727 C-57.858001708984375,-10.607999801635742 -58.090999603271484,-4.183000087738037 -55.29899978637695,0.9919999837875366 C-52.11899948120117,6.88700008392334 -45.5099983215332,11.11299991607666 -39.888999938964844,8.371000289916992 C-31.433000564575195,4.244999885559082 -36.67399978637695,-6.363999843597412 -36.67399978637695,-6.363999843597412 C-36.67399978637695,-6.363999843597412 -37.667999267578125,5.96999979019165 -45.6619987487793,0.5070000290870667 C-53.07899856567383,-4.560999870300293 -25.909000396728516,-24.91200065612793 -40.895999908447266,-33.23400115966797 C-40.88399887084961,-33.236000061035156 -40.861000061035156,-33.237998962402344 -40.861000061035156,-33.237998962402344 C-61.23500061035156,-43.94499969482422 -64.10299682617188,-58.6349983215332 -64.3740005493164,-64.62100219726562 C-62.41299819946289,-64.98200225830078 -60.42599868774414,-65.31500244140625 -58.422000885009766,-65.625 C-57.277000427246094,-64.00499725341797 -56.518001556396484,-62.361000061035156 -56.7130012512207,-60.97700119018555 C-57.15599822998047,-57.84199905395508 -57.31399917602539,-53.47800064086914 -55.417999267578125,-49.9640007019043 C-53.257999420166016,-45.96099853515625 -48.770999908447266,-43.090999603271484 -44.95399856567383,-44.952999114990234 C-39.21200180053711,-47.755001068115234 -42.77000045776367,-54.959999084472656 -42.77000045776367,-54.959999084472656 C-42.77000045776367,-54.959999084472656 -43.444000244140625,-46.58399963378906 -48.87300109863281,-50.29399871826172 C-53.005001068115234,-53.11800003051758 -44.36899948120117,-61.14099884033203 -44.694000244140625,-67.36299896240234 C-42.09000015258789,-67.625 -39.4739990234375,-67.85299682617188 -36.85300064086914,-68.0510025024414 C-36.499000549316406,-67.22699737548828 -36.31100082397461,-66.42900085449219 -36.41299819946289,-65.70999908447266 C-36.83000183105469,-62.75299835205078 -36.979000091552734,-58.637001037597656 -35.191001892089844,-55.321998596191406 C-33.15399932861328,-51.54600143432617 -28.92099952697754,-48.8380012512207 -25.31999969482422,-50.595001220703125 C-19.902999877929688,-53.237998962402344 -23.260000228881836,-60.034000396728516 -23.260000228881836,-60.034000396728516 C-23.260000228881836,-60.034000396728516 -23.895999908447266,-52.13399887084961 -29.017000198364258,-55.632999420166016 C-32.27299880981445,-57.858001708984375 -27.12299919128418,-63.50400161743164 -25.514999389648438,-68.7249984741211 C-22.195999145507812,-68.87200164794922 -18.895000457763672,-68.97699737548828 -15.630000114440918,-69.04399871826172 C-15.343000411987305,-68.3489990234375 -15.1899995803833,-67.677001953125 -15.276000022888184,-67.06900024414062 C-15.642999649047852,-64.46600341796875 -15.774999618530273,-60.84299850463867 -14.201000213623047,-57.92599868774414 C-12.407999992370605,-54.60300064086914 -8.682999610900879,-52.22100067138672 -5.513999938964844,-53.766998291015625 C-0.746999979019165,-56.09299850463867 -3.7009999752044678,-62.073001861572266 -3.7009999752044678,-62.073001861572266 C-3.7009999752044678,-62.073001861572266 -4.261000156402588,-55.12099838256836 -8.767999649047852,-58.20000076293945 C-11.512999534606934,-60.07600021362305 -7.466000080108643,-64.71800231933594 -5.876999855041504,-69.14399719238281 C-2.8450000286102295,-69.14399719238281 0.13199999928474426,-69.11399841308594 3.0420000553131104,-69.06300354003906 C3.0390000343322754,-69.03800201416016 3.0450000762939453,-69.01200103759766 3.0420000553131104,-68.98699951171875 C2.6740000247955322,-66.38400268554688 2.5429999828338623,-62.76100158691406 4.117000102996826,-59.84400177001953 C5.909999847412109,-56.520999908447266 9.635000228881836,-54.138999938964844 12.803999900817871,-55.685001373291016 C17.570999145507812,-58.01100158691406 14.616999626159668,-63.992000579833984 14.616999626159668,-63.992000579833984 C14.616999626159668,-63.992000579833984 14.057000160217285,-57.03799819946289 9.550000190734863,-60.11800003051758 C7.261000156402588,-61.68199920654297 9.694000244140625,-65.16899871826172 11.48799991607666,-68.85099792480469 C15.093999862670898,-68.73300170898438 18.551000595092773,-68.58399963378906 21.82200050354004,-68.41799926757812 C21.454999923706055,-65.81600189208984 21.322999954223633,-62.194000244140625 22.89699935913086,-59.277000427246094 C24.690000534057617,-55.95399856567383 28.415000915527344,-53.571998596191406 31.583999633789062,-55.11800003051758 C36.35100173950195,-57.444000244140625 33.395999908447266,-63.42499923706055 33.395999908447266,-63.42499923706055 C33.395999908447266,-63.42499923706055 32.83700180053711,-56.47200012207031 28.329999923706055,-59.55099868774414 C26.11199951171875,-61.066001892089844 28.32699966430664,-64.38700103759766 30.097999572753906,-67.94000244140625 C32.808998107910156,-67.76399993896484 35.32500076293945,-67.58200073242188 37.61800003051758,-67.40299987792969 C37.61600112915039,-67.29199981689453 37.63100051879883,-67.177001953125 37.61600112915039,-67.06900024414062 C37.249000549316406,-64.46600341796875 37.117000579833984,-60.84299850463867 38.691001892089844,-57.92599868774414 C40.48400115966797,-54.60300064086914 44.20899963378906,-52.22100067138672 47.37799835205078,-53.766998291015625 C52.14500045776367,-56.09299850463867 49.191001892089844,-62.073001861572266 49.191001892089844,-62.073001861572266 C49.191001892089844,-62.073001861572266 48.63100051879883,-55.12099838256836 44.124000549316406,-58.20000076293945 C41.88600158691406,-59.729000091552734 44.16299819946289,-63.097999572753906 45.94200134277344,-66.68800354003906 C48.37799835205078,-66.45800018310547 50.183998107910156,-66.26699829101562 51.237998962402344,-66.1510009765625 C52.34199905395508,-59.77899932861328 53.507999420166016,-52.933998107910156 54.672000885009766,-45.922000885009766 C51.321998596191406,-40.27799987792969 34.73099899291992,-39.917999267578125 34.73099899291992,-39.917999267578125 C34.73099899291992,-39.917999267578125 16.856000900268555,-53.36199951171875 7.769999980926514,-47.058998107910156 C-1.315999984741211,-40.75600051879883 -28.80500030517578,-35.970001220703125 -28.80500030517578,-35.970001220703125 C-6.783999919891357,-31.798999786376953 6.625999927520752,-40.98400115966797 10.96399974822998,-41.93299865722656 C15.302000045776367,-42.88199996948242 26.033000946044922,-27.39699935913086 26.033000946044922,-27.39699935913086 C26.033000946044922,-27.39699935913086 16.238000869750977,-32.17100143432617 11,-34.0099983215332 C5.76200008392334,-35.8489990234375 -13.098999977111816,-26.20400047302246 -13.098999977111816,-26.20400047302246 C12.38700008392334,-21.90399932861328 22.663999557495117,-5.688000202178955 22.663999557495117,-5.688000202178955 C22.663999557495117,-5.688000202178955 20.832000732421875,-21.312999725341797 25.95400047302246,-22.381999969482422 C31.076000213623047,-23.451000213623047 36.821998596191406,-8.8149995803833 36.821998596191406,-8.8149995803833 C39.52799987792969,-23.825000762939453 36.89400100708008,-29.750999450683594 49.39699935913086,-34.74700164794922 C51.755001068115234,-35.68899917602539 54.00199890136719,-37.577999114990234 55.60100173950195,-40.28499984741211 C61.345001220703125,-5.1519999504089355 66.59300231933594,32.10100173950195 63.4109992980957,34.19900131225586z"></path></g><g opacity="1" transform="matrix(1,0,0,1,907.7039794921875,389.8840026855469)"><path fill="url(#__lottie_element_45)" fill-opacity="1" d=" M120.28700256347656,-36.07500076293945 C121.18499755859375,-33.07099914550781 121.86699676513672,-30.37700080871582 122.39299774169922,-28.084999084472656 C109.94300079345703,-30.996000289916992 72.11199951171875,-36.08700180053711 30.475000381469727,-33.43199920654297 C-28.134000778198242,-29.69499969482422 -51.441001892089844,-13.12600040435791 -51.441001892089844,-13.12600040435791 C-51.441001892089844,-13.12600040435791 -14.246999740600586,2.0179998874664307 -3.7170000076293945,40.327999114990234 C-34.06700134277344,-6.343999862670898 -88.35700225830078,-17.121999740600586 -122.39299774169922,-20.06399917602539 C-122.39299774169922,-20.06399917602539 -122.02100372314453,-20.218000411987305 -122.02100372314453,-20.218000411987305 C-122.02100372314453,-20.218000411987305 -97.30799865722656,-26.07200050354004 -55.99399948120117,-17.648000717163086 C-55.99399948120117,-17.648000717163086 -19.607999801635742,-35.981998443603516 35.9630012512207,-39.56700134277344 C66.76899719238281,-41.55400085449219 105.57599639892578,-39.388999938964844 120.28700256347656,-36.07500076293945z"></path></g><g opacity="1" transform="matrix(1,0,0,1,1033.29296875,345.7409973144531)"><path fill="url(#__lottie_element_46)" fill-opacity="1" d=" M17.058000564575195,21.405000686645508 C11.482999801635742,24.100000381469727 1.246000051498413,18.21299934387207 2.0989999771118164,11.616999626159668 C5.90500020980835,-17.827999114990234 -18.839000701904297,3.188999891281128 -21.843000411987305,-2.3239998817443848 C-20.17099952697754,-3.253000020980835 -22.253999710083008,-15.644000053405762 -19.899999618530273,-16.479999542236328 C28.674999237060547,-37.85300064086914 3.9579999446868896,8.553000450134277 11.329000473022461,13.60099983215332 C19.256999969482422,19.020999908447266 20.24799919128418,6.788000106811523 20.24799919128418,6.788000106811523 C20.24799919128418,6.788000106811523 25.451000213623047,17.285999298095703 17.058000564575195,21.405000686645508z"></path></g><g opacity="1" transform="matrix(1,0,0,1,967.7979736328125,591.906982421875)"><path fill="url(#__lottie_element_47)" fill-opacity="1" d=" M82.5250015258789,77.86100006103516 C72.5510025024414,29.034000396728516 54.939998626708984,-13.270000457763672 63.097999572753906,-44.393001556396484 C63.83599853515625,-47.20899963378906 66.23200225830078,-49.104000091552734 68.31500244140625,-54.805999755859375 C70.39800262451172,-60.507999420166016 65.27899932861328,-65.6449966430664 62.45500183105469,-68.6989974975586 C59.63100051879883,-71.75299835205078 62.64899826049805,-77.78900146484375 62.66699981689453,-77.86000061035156 C29.68000030517578,-77.99299621582031 37.9370002746582,-50.819000244140625 -6.793000221252441,-36.54999923706055 C36.617000579833984,-43.917999267578125 40.04199981689453,-56.67499923706055 51.94200134277344,-65.83899688720703 C55.430999755859375,-68.5260009765625 57.672000885009766,-66.44999694824219 61.89099884033203,-59.70000076293945 C66.11000061035156,-52.95000076293945 56.24399948120117,-47.891998291015625 54.362998962402344,-43.95600128173828 C44.15299987792969,-22.594999313354492 56.78900146484375,50.7140007019043 56.78900146484375,50.7140007019043 C35.875999450683594,44.487998962402344 21.805999755859375,45.92399978637695 6.624000072479248,42.470001220703125 C-28.74799919128418,34.422000885009766 -23.70800018310547,2.7320001125335693 -23.70800018310547,2.7320001125335693 C-29.961999893188477,12.923999786376953 -34.6870002746582,49.09600067138672 -34.6870002746582,49.09600067138672 C-58.57099914550781,37.23400115966797 -81.14800262451172,11.142999649047852 -82.5250015258789,9.519000053405762 C-61.606998443603516,37.51599884033203 -29.09000015258789,60.729000091552734 -23.070999145507812,62.900001525878906 C-28.402000427246094,53.40299987792969 -24.950000762939453,42.573001861572266 -24.950000762939453,42.573001861572266 C-14.954999923706055,61.56399917602539 3.877000093460083,74.10399627685547 31.54199981689453,75.1510009765625 C56.73899841308594,76.1050033569336 82.5250015258789,77.86100006103516 82.5250015258789,77.86100006103516z"></path></g><g opacity="1" transform="matrix(1,0,0,1,1040.8699951171875,360.20599365234375)"><path fill="url(#__lottie_element_48)" fill-opacity="1" d=" M-0.00800000037997961,0.017999999225139618 C-0.00800000037997961,0.017999999225139618 -0.00800000037997961,0 -0.00800000037997961,-0.017999999225139618 C0.027000000700354576,0.017000000923871994 -0.00800000037997961,0.017999999225139618 -0.00800000037997961,0.017999999225139618z"></path></g><g opacity="1" transform="matrix(1,0,0,1,889.02001953125,551.2739868164062)"><path fill="url(#__lottie_element_49)" fill-opacity="1" d=" M-50.09400177001953,-16.993000030517578 C-50.09400177001953,-16.993000030517578 -15.513999938964844,-8.536999702453613 8.475000381469727,9.263999938964844 C8.475000381469727,9.263999938964844 2.134000062942505,-6.258999824523926 -1.0449999570846558,-9.586000442504883 C-1.0449999570846558,-9.586000442504883 26.91200065612793,0.2329999953508377 50.09400177001953,24.177000045776367 C50.09400177001953,24.177000045776367 21.548999786376953,-14.465999603271484 -16.349000930786133,-24.177000045776367 C-16.349000930786133,-24.177000045776367 -12.366000175476074,-14.24899959564209 -9.128999710083008,-8.168999671936035 C-9.128999710083008,-8.168999671936035 -17.200000762939453,-16.913000106811523 -50.09400177001953,-16.993000030517578z"></path></g><g opacity="1" transform="matrix(1,0,0,1,828.4439697265625,449.89801025390625)"><path fill="url(#__lottie_element_50)" fill-opacity="1" d=" M9.312000274658203,-59.8489990234375 C7.459000110626221,-57.99599838256836 -15.241000175476074,-54.86000061035156 -7.828999996185303,-23.999000549316406 C-0.4169999957084656,6.861999988555908 5.420000076293945,45.198001861572266 -9.312000274658203,59.8489990234375 C-9.312000274658203,59.8489990234375 17.650999069213867,43.92499923706055 3.5320000648498535,-16.301000595092773 C-5.2220001220703125,-53.64500045776367 9.312000274658203,-59.8489990234375 9.312000274658203,-59.8489990234375z"></path></g><g opacity="1" transform="matrix(1,0,0,1,925.6309814453125,326.10400390625)"><path fill="url(#__lottie_element_51)" fill-opacity="1" d=" M-73.71600341796875,36.80099868774414 C32.025001525878906,-4.4720001220703125 100.5459976196289,22.391000747680664 100.5459976196289,22.391000747680664 C100.5459976196289,22.391000747680664 87.55899810791016,-20.05500030517578 48.19300079345703,-35.334999084472656 C30.927000045776367,-42.0369987487793 -0.19900000095367432,-37.17599868774414 0.578000009059906,-37.17599868774414 C1.3550000190734863,-37.17599868774414 27.51300048828125,-31.996999740600586 9.125,-28.11199951171875 C-9.262999534606934,-24.226999282836914 -35.42100143432617,-26.816999435424805 -48.62900161743164,-19.565000534057617 C-61.83700180053711,-12.312999725341797 -38.26900100708008,-16.975000381469727 -57.17499923706055,-8.170000076293945 C-76.08100128173828,0.6349999904632568 -92.06800079345703,2.447999954223633 -92.87999725341797,9.958999633789062 C-93.69200134277344,17.469999313354492 -88.77100372314453,16.433000564575195 -91.62000274658203,22.908000946044922 C-94.46900177001953,29.382999420166016 -98.87200164794922,33.347999572753906 -100.4260025024414,34.084999084472656 C-101.9800033569336,34.821998596191406 -88.23899841308594,42.470001220703125 -73.71600341796875,36.80099868774414z"></path></g></g><g transform="matrix(0.800000011920929,0,0,0.800000011920929,-610.1784057617188,-200.79681396484375)" opacity="0.9691999999996948" style="display: none;"><path stroke-linecap="butt" stroke-linejoin="miter" fill-opacity="0" stroke-miterlimit="4" stroke="rgb(250,213,120)" stroke-opacity="1" stroke-width="2" d=" M837.76,390.05 C835.9,391.9 813.2,395.04 820.61,425.9 C828.03,456.76 833.86,495.1 819.13,509.75 C819.13,509.75 846.09,493.82 831.98,433.6 C823.22,396.25 837.76,390.05 837.76,390.05 C837.76,390.05 837.76,390.05 837.76,390.05z M838.93,534.28 C838.93,534.28 873.51,542.74 897.5,560.54 C897.5,560.54 891.15,545.01 887.98,541.69 C887.98,541.69 915.93,551.51 939.11,575.45 C939.11,575.45 910.57,536.81 872.67,527.1 C872.67,527.1 876.65,537.02 879.89,543.1 C879.89,543.1 871.82,534.36 838.93,534.28 C838.93,534.28 838.93,534.28 838.93,534.28z M1050.32,669.77 C1040.35,620.94 1022.74,578.64 1030.9,547.51 C1031.63,544.7 1034.03,542.8 1036.11,537.1 C1038.2,531.4 1033.08,526.26 1030.25,523.21 C1027.43,520.15 1030.45,514.12 1030.46,514.05 C997.48,513.91 1005.73,541.09 961,555.36 C1004.41,547.99 1007.84,535.23 1019.74,526.07 C1023.23,523.38 1025.47,525.46 1029.69,532.21 C1033.91,538.96 1024.04,544.01 1022.16,547.95 C1011.95,569.31 1024.59,642.62 1024.59,642.62 C1003.67,636.39 989.6,637.83 974.42,634.38 C939.05,626.33 944.09,594.64 944.09,594.64 C937.84,604.83 933.11,641 933.11,641 C909.23,629.14 886.65,603.05 885.27,601.43 C906.19,629.42 938.71,652.64 944.73,654.81 C939.4,645.31 942.85,634.48 942.85,634.48 C952.84,653.47 971.67,666.01 999.34,667.06 C1024.54,668.01 1050.32,669.77 1050.32,669.77 C1050.32,669.77 1050.32,669.77 1050.32,669.77z M1049.36,502.74 C1046.73,504.48 1042.59,507.82 1035.68,506.03 C1027.46,503.9 1020.79,500.86 1020.79,500.86 C1015.77,502.8 1012.05,505.71 1007.26,503.14 C1003.5,501.12 1002.96,496.17 1003.09,492.18 C1004.69,490.15 1005.86,488.66 1006.24,488.14 C1007.96,485.79 1016.92,487.98 1016.92,487.98 C1012.28,479.63 1003,481.86 1001.64,484.05 C1000.27,486.24 985.94,513.69 985.94,513.69 C985.94,513.69 992.13,505.96 997.69,498.97 C999.26,502 1002.44,507.33 1006.68,510.5 C1001.03,512.14 995.4,515.37 991.9,521.5 C982.65,537.65 965.69,537.68 965.55,537.68 C965.55,537.68 966.22,523.77 957.48,514.26 C948.73,504.76 946.41,489.63 946.41,489.63 C941.77,496.04 944.52,509.95 944.52,509.95 C944.52,509.95 930.86,493.16 925.95,465.68 C924.62,458.18 925.45,452.52 927.35,448.24 C928.36,450.03 928.96,451.78 928.74,453.32 C928.09,457.93 927.86,464.36 930.65,469.53 C933.83,475.43 940.44,479.65 946.06,476.91 C954.52,472.79 949.27,462.18 949.27,462.18 C949.27,462.18 948.28,474.51 940.29,469.05 C932.87,463.98 960.04,443.63 945.05,435.31 C945.06,435.3 945.09,435.3 945.09,435.3 C924.71,424.6 921.85,409.91 921.57,403.92 C923.54,403.56 925.52,403.23 927.53,402.92 C928.67,404.54 929.43,406.18 929.24,407.56 C928.79,410.7 928.63,415.06 930.53,418.58 C932.69,422.58 937.18,425.45 940.99,423.59 C946.74,420.79 943.18,413.58 943.18,413.58 C943.18,413.58 942.5,421.96 937.08,418.25 C932.94,415.42 941.58,407.4 941.25,401.18 C943.86,400.92 946.47,400.69 949.1,400.49 C949.45,401.31 949.64,402.11 949.54,402.83 C949.12,405.79 948.97,409.9 950.76,413.22 C952.79,416.99 957.03,419.7 960.63,417.95 C966.05,415.3 962.69,408.51 962.69,408.51 C962.69,408.51 962.05,416.41 956.93,412.91 C953.68,410.68 958.83,405.04 960.43,399.82 C963.75,399.67 967.05,399.56 970.32,399.5 C970.61,400.19 970.76,400.86 970.67,401.47 C970.31,404.07 970.17,407.7 971.75,410.61 C973.54,413.94 977.27,416.32 980.43,414.77 C985.2,412.45 982.25,406.47 982.25,406.47 C982.25,406.47 981.69,413.42 977.18,410.34 C974.44,408.46 978.48,403.82 980.07,399.4 C983.1,399.4 986.08,399.43 988.99,399.48 C988.99,399.5 988.99,399.53 988.99,399.55 C988.62,402.16 988.49,405.78 990.07,408.7 C991.86,412.02 995.58,414.4 998.75,412.86 C1003.52,410.53 1000.57,404.55 1000.57,404.55 C1000.57,404.55 1000.01,411.5 995.5,408.42 C993.21,406.86 995.64,403.37 997.44,399.69 C1001.04,399.81 1004.5,399.96 1007.77,400.12 C1007.4,402.72 1007.27,406.35 1008.85,409.26 C1010.64,412.59 1014.36,414.97 1017.53,413.42 C1022.3,411.1 1019.34,405.12 1019.34,405.12 C1019.34,405.12 1018.79,412.07 1014.28,408.99 C1012.06,407.47 1014.28,404.15 1016.05,400.6 C1018.76,400.78 1021.27,400.96 1023.57,401.14 C1023.56,401.25 1023.58,401.36 1023.56,401.47 C1023.2,404.07 1023.07,407.7 1024.64,410.61 C1026.43,413.94 1030.16,416.32 1033.33,414.77 C1038.09,412.45 1035.14,406.47 1035.14,406.47 C1035.14,406.47 1034.58,413.42 1030.07,410.34 C1027.83,408.81 1030.11,405.44 1031.89,401.85 C1034.33,402.08 1036.13,402.27 1037.19,402.39 C1038.29,408.76 1039.46,415.61 1040.62,422.62 C1037.27,428.26 1020.68,428.62 1020.68,428.62 C1020.68,428.62 1002.8,415.18 993.72,421.48 C984.63,427.78 957.14,432.57 957.14,432.57 C979.16,436.74 992.57,427.56 996.91,426.61 C1001.25,425.66 1011.98,441.14 1011.98,441.14 C1011.98,441.14 1002.19,436.37 996.95,434.53 C991.71,432.69 972.85,442.34 972.85,442.34 C998.34,446.64 1008.61,462.85 1008.61,462.85 C1008.61,462.85 1006.78,447.23 1011.9,446.16 C1017.02,445.09 1022.77,459.73 1022.77,459.73 C1025.48,444.72 1022.84,438.79 1035.35,433.79 C1037.7,432.85 1039.95,430.96 1041.55,428.26 C1047.29,463.39 1052.54,500.64 1049.36,502.74 C1049.36,502.74 1049.36,502.74 1049.36,502.74z M930.01,390.05 C938.13,382.91 946.06,384.05 946.06,384.05 C946.06,384.05 937.36,375.07 908.36,380.67 C890.63,384.09 887.18,379.47 885.21,374.01 C917.22,363.39 963.51,358.59 1029.87,370.14 C1030.39,370.23 1030.93,370.32 1031.48,370.38 C1032.25,374.59 1033.49,381.37 1034.97,389.72 C1019.85,388.19 972.26,384.22 930.01,390.05 C930.01,390.05 930.01,390.05 930.01,390.05z M1027.99,353.81 C1028.89,356.81 1029.57,359.51 1030.1,361.8 C1017.65,358.89 979.82,353.8 938.18,356.45 C879.57,360.19 856.26,376.76 856.26,376.76 C856.26,376.76 893.46,391.9 903.99,430.21 C873.64,383.54 819.35,372.76 785.31,369.82 C785.31,369.82 785.68,369.67 785.68,369.67 C785.68,369.67 810.4,363.81 851.71,372.24 C851.71,372.24 888.1,353.9 943.67,350.32 C974.47,348.33 1013.28,350.5 1027.99,353.81 C1027.99,353.81 1027.99,353.81 1027.99,353.81z M868.73,318.69 C850.36,327.08 834.98,328.94 834.19,336.27 C833.38,343.72 838.26,342.7 835.44,349.12 C832.61,355.54 828.24,359.47 826.7,360.21 C825.16,360.94 838.79,368.53 853.2,362.9 C958.11,321.95 1026.08,348.6 1026.08,348.6 C1026.08,348.6 1025.3,346.07 1023.57,342.03 C1030.5,340.37 1037.35,340.95 1035.23,357.4 C1034.38,363.94 1044.54,369.78 1050.07,367.11 C1058.39,363.02 1053.23,352.61 1053.23,352.61"></path><g opacity="1" transform="matrix(1,0,0,1,828.4439697265625,449.89801025390625)"></g><g opacity="1" transform="matrix(1,0,0,1,889.02001953125,551.2739868164062)"></g><g opacity="1" transform="matrix(1,0,0,1,967.7979736328125,591.906982421875)"></g><g opacity="1" transform="matrix(1,0,0,1,985.948974609375,468.5400085449219)"></g><g opacity="1" transform="matrix(1,0,0,1,960.0880126953125,376.7510070800781)"></g><g opacity="1" transform="matrix(1,0,0,1,907.7039794921875,389.8840026855469)"></g><g opacity="1" transform="matrix(2.2734599113464355,0,0,2.2734599113464355,940.697998046875,327.7959899902344)"></g></g></g></svg>