<svg width="45" height="45" viewBox="0 0 45 45" fill="none" xmlns="http://www.w3.org/2000/svg">
<g clip-path="url(#clip0_140_31435)">
<path d="M22.5009 45C34.9277 45 45.0017 34.9264 45.0017 22.5C45.0017 10.0736 34.9277 0 22.5009 0C10.074 0 0 10.0736 0 22.5C0 34.9264 10.074 45 22.5009 45Z" fill="black"/>
<path d="M17.7597 44.4912C5.63307 41.8781 -2.10576 29.8852 0.507443 17.759C3.12235 5.63286 15.114 -2.10568 27.2407 0.507424C39.3673 3.12053 47.1061 15.1135 44.4929 27.2396C41.8797 39.3658 29.8863 47.1043 17.7597 44.4912ZM27.0869 1.22304C15.3549 -1.30638 3.75259 6.1811 1.22308 17.9144C-1.30643 29.6461 6.18133 41.2479 17.9134 43.7773C29.6455 46.3067 41.2478 38.8192 43.7773 27.0876C46.3068 15.356 38.819 3.75416 27.0869 1.22475V1.22304Z" fill="black"/>
<path fill-rule="evenodd" clip-rule="evenodd" d="M21.2652 1.7832L20.9731 3.94712C20.0969 4.00349 19.2225 4.12987 18.3753 4.31945L18.0713 3.02144C18.14 3.00643 18.2095 2.98933 18.283 2.97125C18.586 2.89673 18.9572 2.8054 19.6238 2.77379L19.6307 3.27079C19.3061 3.27421 18.915 3.34252 18.6691 3.39205L18.7493 3.73534C19.3352 3.62091 19.9347 3.53552 20.5359 3.48428L20.693 2.31607C19.4855 2.40488 18.2489 2.63033 17.0038 2.98728C17.177 3.36945 17.4821 4.11572 17.7265 4.71338L17.7265 4.71343C17.7804 4.84539 17.8314 4.9701 17.8774 5.08205C19.9513 4.52804 22.1476 4.33919 24.3755 4.57397C24.3849 3.85072 24.4112 2.40306 24.4251 1.82788C26.087 1.97305 27.7864 2.34879 29.2587 2.87654V2.87825L28.1638 4.76719C27.3321 4.48539 26.4764 4.26848 25.6207 4.1199L25.8342 2.8031C25.9033 2.81539 25.9738 2.82606 26.0484 2.83734L26.0484 2.83734C26.3574 2.88408 26.7354 2.94125 27.3628 3.16688L27.1783 3.62802C26.876 3.50846 26.49 3.42136 26.2441 3.37354L26.1877 3.72195C26.7736 3.8398 27.3594 3.99009 27.935 4.17113L28.5259 3.15151C27.3765 2.77406 26.145 2.50934 24.8606 2.36587C24.8752 2.79343 24.8725 3.62412 24.8703 4.27607L24.8693 4.63289C25.3445 4.69626 25.8209 4.77903 26.2976 4.88176C28.0239 5.25385 29.6393 5.86319 31.1169 6.66822C31.4025 6.00404 31.9853 4.67478 32.219 4.14893C33.6981 4.9209 35.1225 5.92174 36.2788 6.97381L36.2771 6.97722L34.5401 8.30085C33.8808 7.72016 33.1737 7.19242 32.4393 6.72616L33.143 5.59211C33.2023 5.63006 33.2635 5.66705 33.3282 5.70613L33.3282 5.70615C33.5954 5.86755 33.9218 6.06478 34.4154 6.51438L34.0687 6.86963C33.8364 6.64247 33.5119 6.41361 33.3036 6.27527L33.1174 6.57416C33.6127 6.9072 34.0961 7.27098 34.5589 7.66039L35.4966 6.94648C34.5794 6.15572 33.5461 5.44011 32.4137 4.8133C32.2671 5.20548 31.9557 5.94708 31.7061 6.54164L31.706 6.54195L31.7059 6.54198C31.6503 6.67463 31.5976 6.79995 31.5506 6.91243C33.4646 8.02553 35.134 9.47243 36.4969 11.1576C37.0128 10.654 38.0622 9.6426 38.4806 9.24512C39.5532 10.5226 40.4892 11.9914 41.157 13.4056L41.1553 13.4039L39.0442 13.9658C38.6548 13.1784 38.2039 12.4201 37.7035 11.7096L38.7863 10.9291C38.8265 10.9865 38.8688 11.0437 38.9135 11.1042L38.9136 11.1043C39.0992 11.3554 39.3261 11.6623 39.6096 12.2664L39.1536 12.4628C39.0255 12.1639 38.812 11.8292 38.6719 11.6225L38.385 11.8292C38.7163 12.3262 39.0237 12.8471 39.3039 13.3834L40.4431 13.0811C39.8965 12 39.2133 10.9445 38.4072 9.9334C38.1224 10.2383 37.5557 10.8013 37.0994 11.2546L37.0988 11.2551L37.0987 11.2552C36.9929 11.3603 36.8931 11.4595 36.8041 11.5482C38.139 13.2944 39.1537 15.2783 39.7837 17.4002C40.4557 17.1327 41.8079 16.6037 42.345 16.3978C42.8437 17.9896 43.1443 19.7043 43.2177 21.2653L41.0537 20.9733C40.9974 20.0971 40.871 19.2227 40.6814 18.3755L41.9795 18.0715C41.9945 18.1403 42.0116 18.2098 42.0297 18.2833C42.1042 18.5862 42.1955 18.9575 42.2271 19.624L41.7301 19.6309C41.7267 19.3064 41.6584 18.9152 41.6088 18.6693L41.2655 18.7496C41.38 19.3354 41.4654 19.9349 41.5166 20.536L42.6849 20.6932C42.596 19.4857 42.3706 18.2492 42.0136 17.0041C41.6315 17.1773 40.8852 17.4823 40.2875 17.7267L40.2874 17.7267C40.1553 17.7808 40.0304 17.8318 39.9183 17.8778C40.4723 19.9515 40.6611 22.1475 40.4263 24.3752C41.1492 24.3845 42.5982 24.4109 43.1737 24.4248C43.0285 26.0866 42.6528 27.7859 42.125 29.2582H42.1233L40.2343 28.1634C40.5161 27.3316 40.733 26.476 40.8816 25.6203L42.1984 25.8338C42.1862 25.9025 42.1756 25.9727 42.1644 26.0469L42.1643 26.0473L42.1643 26.0474L42.1642 26.0478L42.1642 26.048C42.1175 26.357 42.0603 26.735 41.8346 27.3624L41.3735 27.1779C41.493 26.8756 41.5802 26.4896 41.628 26.2437L41.2796 26.1873C41.1617 26.7731 41.0114 27.359 40.8304 27.9345L41.85 28.5255C42.2275 27.376 42.4922 26.1446 42.6357 24.8603C42.2081 24.8749 41.3774 24.8721 40.7254 24.87L40.3674 24.8689C40.304 25.3442 40.2213 25.8206 40.1185 26.2972C39.7464 28.0235 39.1371 29.6387 38.3321 31.1162C38.9965 31.4019 40.3251 31.9843 40.8508 32.218C40.0788 33.697 39.0779 35.1214 38.0258 36.2777L38.0224 36.276L36.6987 34.539C37.2794 33.8798 37.8072 33.1727 38.2735 32.4383L39.4076 33.1419C39.3696 33.2012 39.3326 33.2624 39.2935 33.3271C39.1321 33.5943 38.9349 33.9207 38.4853 34.4143L38.13 34.0676C38.3572 33.8354 38.586 33.5109 38.7244 33.3025L38.4255 33.1163C38.0924 33.6116 37.7286 34.095 37.3392 34.5578L38.0532 35.4954C38.8439 34.5783 39.5596 33.545 40.1864 32.4127C39.7943 32.2661 39.0529 31.9548 38.4584 31.7053L38.4577 31.7049L38.4576 31.7049L38.4574 31.7048L38.4534 31.7032L38.4507 31.702L38.4496 31.7016C38.3202 31.6472 38.1979 31.5959 38.0879 31.5499C36.9746 33.4642 35.5273 35.1337 33.8418 36.4967C34.3457 37.0129 35.3563 38.0614 35.7536 38.4795C34.476 39.5521 33.0071 40.4881 31.5929 41.1558L31.5946 41.1541L31.0327 39.0432C31.8201 38.6538 32.5784 38.2029 33.2889 37.7024L34.0695 38.7853C34.0121 38.8254 33.9548 38.8678 33.8943 38.9125C33.6432 39.0981 33.3363 39.325 32.7321 39.6085L32.5357 39.1525C32.8346 39.0244 33.1694 38.8109 33.3761 38.6708L33.1694 38.3839C32.6724 38.7152 32.1514 39.0227 31.6151 39.3028L31.9174 40.4419C32.9986 39.8954 34.0541 39.2122 35.0652 38.4061C34.7602 38.1212 34.1969 37.5542 33.7435 37.0978C33.6387 36.9923 33.5397 36.8927 33.4512 36.8038C31.7051 38.1384 29.7214 39.1529 27.5999 39.7827C27.8673 40.4545 28.3966 41.8074 28.6026 42.3446C27.0108 42.8433 25.296 43.1439 23.7349 43.2174L24.0269 41.0534C24.9031 40.9971 25.7776 40.8707 26.6248 40.6811L26.9288 41.9791C26.8601 41.9941 26.7905 42.0112 26.717 42.0293C26.4141 42.1038 26.0428 42.1952 25.3762 42.2268L25.3694 41.7298C25.6939 41.7263 26.085 41.658 26.331 41.6085L26.2507 41.2652C25.6649 41.3796 25.0654 41.465 24.4642 41.5163L24.307 42.6845C25.5146 42.5957 26.7511 42.3702 27.9963 42.0133C27.8231 41.6311 27.518 40.8848 27.2736 40.2872C27.2195 40.1548 27.1683 40.0297 27.1222 39.9174C25.0479 40.4715 22.8513 40.6603 20.623 40.4253C20.6136 41.1481 20.5873 42.5971 20.5734 43.1726C18.9115 43.0274 17.2121 42.6517 15.7398 42.1239V42.1222L16.8346 40.2333C17.6664 40.5151 18.5221 40.732 19.3778 40.8806L19.1643 42.1974C19.0953 42.1851 19.0248 42.1744 18.9503 42.1632L18.9501 42.1631H18.95C18.641 42.1164 18.263 42.0592 17.6357 41.8336L17.8201 41.3725C18.1224 41.492 18.5084 41.5791 18.7544 41.6269L18.8108 41.2785C18.2249 41.1607 17.6391 41.0104 17.0635 40.8293L16.4725 41.849C17.622 42.2264 18.8535 42.4911 20.1379 42.6346C20.1232 42.2071 20.126 41.3764 20.1282 40.7244L20.1292 40.3663C19.6544 40.303 19.1784 40.2203 18.7022 40.1176C16.9756 39.7455 15.36 39.136 13.8823 38.3308C13.5967 38.9949 13.0138 40.3245 12.7801 40.8504C11.301 40.0784 9.87651 39.0776 8.72021 38.0255L8.72192 38.0221L10.4589 36.6985C11.1182 37.2792 11.8253 37.8069 12.5597 38.2732L11.8561 39.4072C11.7968 39.3693 11.7356 39.3323 11.6708 39.2932C11.4037 39.1318 11.0772 38.9346 10.5836 38.485L10.9303 38.1297C11.1626 38.3569 11.4871 38.5857 11.6955 38.7241L11.8817 38.4252C11.3864 38.0921 10.903 37.7284 10.4401 37.339L9.50247 38.0529C10.4196 38.8436 11.453 39.5592 12.5854 40.186C12.732 39.7938 13.0435 39.052 13.2931 38.4573L13.2932 38.4573C13.3489 38.3245 13.4015 38.1991 13.4486 38.0866C11.5346 36.9735 9.86536 35.5265 8.50252 33.8413C7.98662 34.3449 6.93713 35.3564 6.51868 35.7539C5.44607 34.4763 4.5101 33.0075 3.84229 31.5934L3.84399 31.5951L5.95505 31.0332C6.34447 31.8205 6.79537 32.5789 7.29581 33.2894L6.21295 34.0699C6.1728 34.0125 6.13045 33.9552 6.0857 33.8946C5.90013 33.6436 5.67319 33.3367 5.38971 32.7326L5.84574 32.5362C5.97384 32.835 6.18733 33.1698 6.32739 33.3765L6.61433 33.1698C6.28298 32.6728 5.97554 32.1519 5.69544 31.6156L4.55622 31.9179C5.10277 32.999 5.78596 34.0545 6.59212 35.0656C6.87698 34.7606 7.44392 34.1974 7.90032 33.744L7.90053 33.7438L7.90259 33.7418C8.00768 33.6374 8.10686 33.5388 8.19533 33.4507C6.86071 31.7048 5.84626 29.7213 5.21634 27.5999C4.54466 27.8673 3.1914 28.3967 2.65402 28.6027C2.1553 27.011 1.85469 25.2962 1.78125 23.7352L3.94525 24.0272C4.00162 24.9034 4.12801 25.7778 4.31759 26.625L3.01953 26.929C3.00453 26.8603 2.98744 26.7908 2.96936 26.7173L2.96935 26.7173L2.96935 26.7173L2.96934 26.7172C2.89482 26.4143 2.80349 26.043 2.77188 25.3765L3.2689 25.3697C3.27231 25.6942 3.34063 26.0853 3.39016 26.3312L3.73346 26.2509C3.61903 25.6651 3.53363 25.0656 3.48239 24.4645L2.31414 24.3073C2.40295 25.5148 2.62841 26.7514 2.98537 27.9964C3.36754 27.8233 4.11382 27.5181 4.7115 27.2738L4.71158 27.2738L4.71357 27.2729C4.84536 27.2191 4.96989 27.1682 5.08165 27.1223C4.52749 25.0481 4.33863 22.8515 4.57358 20.6232C3.85055 20.6139 2.40205 20.5875 1.82666 20.5736C1.97184 18.9118 2.34759 17.2125 2.87536 15.7402H2.87706L4.76608 16.835C4.48427 17.6668 4.26736 18.5224 4.11876 19.3781L2.80191 19.1646C2.8142 19.0955 2.82488 19.0249 2.83616 18.9503C2.8829 18.6414 2.94008 18.2634 3.16571 17.636L3.62687 17.8205C3.50731 18.1228 3.4202 18.5088 3.37238 18.7547L3.7208 18.8111C3.83865 18.2252 3.98896 17.6394 4.17 17.0639L3.15034 16.4729C2.77288 17.6224 2.50814 18.8538 2.36467 20.1381C2.79225 20.1235 3.62297 20.1262 4.27495 20.1284L4.63253 20.1295C4.69589 19.6545 4.77862 19.1785 4.88129 18.7022C5.25333 16.9761 5.86256 15.3611 6.66743 13.8838C6.00308 13.5981 4.67421 13.0155 4.14844 12.7819C4.92044 11.3028 5.92132 9.87842 6.97343 8.72217L6.97684 8.72388L8.30052 10.4608C7.71981 11.1201 7.19205 11.8271 6.72577 12.5615L5.59168 11.8579C5.62963 11.7986 5.66662 11.7374 5.7057 11.6727L5.70571 11.6727L5.70572 11.6727C5.86712 11.4056 6.06437 11.0791 6.51398 10.5855L6.86924 10.9322C6.64208 11.1645 6.41321 11.489 6.27487 11.6973L6.57376 11.8835C6.90682 11.3882 7.27061 10.9049 7.66003 10.442L6.9461 9.50439C6.15531 10.4215 5.43967 11.4548 4.81284 12.5872C5.20512 12.7338 5.94701 13.0453 6.54166 13.2949C6.67412 13.3505 6.79927 13.4031 6.91163 13.45C8.02477 11.5359 9.4718 9.86644 11.1571 8.50344C10.6535 7.98752 9.64212 6.9382 9.24463 6.5198C10.5222 5.44723 11.9911 4.5113 13.4053 3.84351L13.4035 3.84521L13.9655 5.95619C13.1781 6.34559 12.4198 6.79648 11.7092 7.2969L10.9287 6.21408C10.9861 6.17394 11.0434 6.1316 11.1039 6.08686L11.1039 6.08684C11.3549 5.90127 11.6619 5.67434 12.266 5.39087L12.4625 5.84688C12.1636 5.97498 11.8288 6.18847 11.6221 6.32851L11.8288 6.61544C12.3258 6.28411 12.8467 5.97668 13.383 5.69659L13.0807 4.55741C11.9996 5.10394 10.9441 5.78711 9.93294 6.59324C10.2379 6.87806 10.8011 7.44489 11.2544 7.90125L11.2545 7.90137L11.2547 7.90148L11.2547 7.90156C11.3598 8.00737 11.459 8.10723 11.5478 8.19625C13.294 6.86135 15.2779 5.84671 17.3997 5.21673C17.1322 4.54458 16.6034 3.19292 16.3975 2.65594C17.9893 2.15724 19.7041 1.85664 21.2652 1.7832ZM26.1439 5.59738C16.8234 3.58888 7.60551 9.53582 5.59693 18.8576C3.58835 28.1777 9.53552 37.3952 18.8576 39.4037C28.1781 41.4122 37.396 35.4653 39.4046 26.1435C41.4132 16.8235 35.466 7.60588 26.1439 5.59738Z" fill="url(#paint0_linear_140_31435)"/>
<path d="M22.47 38.9144C31.536 38.9144 38.8854 31.5653 38.8854 22.4997C38.8854 13.4341 31.536 6.08496 22.47 6.08496C13.4041 6.08496 6.05469 13.4341 6.05469 22.4997C6.05469 31.5653 13.4041 38.9144 22.47 38.9144Z" fill="black"/>
<path d="M21.7942 14.828C22.3988 14.2968 22.9897 14.3805 22.9897 14.3805C22.9897 14.3805 22.3407 13.711 20.1801 14.1278C18.8582 14.3822 18.602 14.0389 18.4551 13.6325C20.8411 12.84 24.2912 12.483 29.2375 13.3438C29.2768 13.3507 29.3161 13.3558 29.3571 13.3609C29.4151 13.6752 29.5057 14.179 29.6167 14.8024C28.4911 14.6879 24.9437 14.3925 21.7942 14.8263V14.828Z" fill="url(#paint1_linear_140_31435)"/>
<path d="M30.6897 23.2259C30.4933 23.3557 30.1858 23.605 29.67 23.4718C29.0569 23.313 28.5598 23.0875 28.5598 23.0875C28.1858 23.2327 27.9091 23.4496 27.5521 23.2566C27.272 23.1063 27.231 22.7357 27.2413 22.4402C27.3608 22.2882 27.4479 22.1772 27.4753 22.1396C27.6034 21.9637 28.2712 22.1277 28.2712 22.1277C27.9262 21.506 27.2344 21.6717 27.132 21.8339C27.0312 21.9979 25.962 24.044 25.962 24.044C25.962 24.044 26.4232 23.4684 26.8382 22.9475C26.956 23.1729 27.1917 23.5709 27.5077 23.8066C27.0876 23.9295 26.6674 24.1686 26.4061 24.6264C25.7161 25.8304 24.4522 25.8321 24.4419 25.8321C24.4419 25.8321 24.4914 24.7954 23.8407 24.0867C23.1883 23.3796 23.0158 22.2507 23.0158 22.2507C22.669 22.7289 22.8757 23.7656 22.8757 23.7656C22.8757 23.7656 21.8577 22.5137 21.4922 20.4659C21.3932 19.9074 21.4547 19.4855 21.5964 19.1662C21.6716 19.2994 21.716 19.4309 21.7006 19.5436C21.6528 19.8869 21.634 20.3668 21.8424 20.7528C22.0798 21.1917 22.5717 21.5077 22.9901 21.3028C23.6204 20.9953 23.2292 20.2046 23.2292 20.2046C23.2292 20.2046 23.1558 21.1234 22.5597 20.7169C22.0063 20.3395 24.032 18.8229 22.915 18.2029H22.9184C21.4 17.4053 21.1865 16.3105 21.166 15.8648C21.3129 15.8375 21.4598 15.8135 21.6101 15.7896C21.6955 15.9109 21.7519 16.0322 21.7382 16.1363C21.7057 16.3703 21.6938 16.6948 21.8355 16.9578C21.9961 17.2567 22.3309 17.4702 22.6161 17.3319C23.0448 17.1235 22.7783 16.5855 22.7783 16.5855C22.7783 16.5855 22.7288 17.2089 22.324 16.9339C22.0166 16.7239 22.6605 16.1261 22.6349 15.6615C22.8296 15.6428 23.0243 15.6257 23.219 15.6103C23.2446 15.6718 23.26 15.7316 23.2515 15.7845C23.2207 16.0048 23.2088 16.3123 23.342 16.5582C23.494 16.84 23.81 17.0415 24.0781 16.91C24.4812 16.7136 24.2318 16.2064 24.2318 16.2064C24.2318 16.2064 24.184 16.7956 23.8031 16.5343C23.5606 16.3686 23.9449 15.9468 24.0644 15.5591C24.3121 15.5488 24.5581 15.5403 24.8006 15.5352C24.8228 15.5864 24.833 15.6376 24.8262 15.682C24.7989 15.8767 24.7886 16.1466 24.9065 16.3635C25.0397 16.6111 25.3181 16.7888 25.5538 16.6743C25.9091 16.5018 25.6887 16.0561 25.6887 16.0561C25.6887 16.0561 25.6477 16.5736 25.3113 16.3447C25.1063 16.2047 25.4086 15.8597 25.5265 15.5283C25.7519 15.5283 25.974 15.53 26.1909 15.5334C26.1909 15.5352 26.1909 15.5369 26.1909 15.5386C26.1635 15.7333 26.1533 16.0031 26.2712 16.22C26.4044 16.4677 26.6828 16.6453 26.9185 16.5309C27.2737 16.3584 27.0534 15.9126 27.0534 15.9126C27.0534 15.9126 27.0124 16.4301 26.6759 16.2012C26.5051 16.0851 26.6862 15.8255 26.8211 15.5505C27.0893 15.5591 27.3472 15.571 27.5914 15.583C27.5641 15.7777 27.5538 16.0475 27.6717 16.2644C27.8049 16.5121 28.0833 16.6897 28.319 16.5753C28.6743 16.4028 28.4539 15.957 28.4539 15.957C28.4539 15.957 28.4129 16.4745 28.0765 16.2456C27.9108 16.1329 28.0765 15.8853 28.208 15.6205C28.4095 15.6342 28.5974 15.6479 28.7682 15.6598C28.7682 15.6684 28.7682 15.6769 28.7682 15.6854C28.7409 15.8801 28.7306 16.15 28.8485 16.3669C28.9817 16.6146 29.2601 16.7922 29.4958 16.6777C29.8511 16.5052 29.6307 16.0595 29.6307 16.0595C29.6307 16.0595 29.5897 16.577 29.2533 16.3481C29.0859 16.2337 29.2567 15.9826 29.3882 15.7162C29.5692 15.7333 29.7042 15.7469 29.7827 15.7555C29.8647 16.2303 29.9518 16.7409 30.0389 17.2636C29.7896 17.6837 28.553 17.711 28.553 17.711C28.553 17.711 27.2208 16.7085 26.5427 17.1782C25.8664 17.6478 23.8168 18.0048 23.8168 18.0048C25.4582 18.3156 26.4573 17.6308 26.7801 17.5607C27.1029 17.4907 27.904 18.6435 27.904 18.6435C27.904 18.6435 27.1747 18.2883 26.7835 18.15C26.3924 18.0133 24.9868 18.7324 24.9868 18.7324C26.886 19.0534 27.6529 20.2609 27.6529 20.2609C27.6529 20.2609 27.5163 19.0961 27.8989 19.0176C28.2814 18.9373 28.7084 20.0287 28.7084 20.0287C28.91 18.91 28.7136 18.4676 29.6461 18.0953C29.822 18.0253 29.9894 17.8835 30.109 17.682C30.5377 20.3002 30.9288 23.0773 30.6914 23.2327L30.6897 23.2259Z" fill="url(#paint2_linear_140_31435)"/>
<path d="M29.0953 12.1273C29.1619 12.351 29.2131 12.5525 29.2524 12.7233C28.325 12.5064 25.5051 12.1273 22.4017 12.3254C18.0327 12.6038 16.2957 13.8386 16.2957 13.8386C16.2957 13.8386 19.0677 14.9675 19.8534 17.8231C17.5921 14.3441 13.5442 13.5414 11.0078 13.3228L11.0351 13.3108C11.0351 13.3108 12.8763 12.8753 15.9558 13.5021C15.9558 13.5021 18.6681 12.1358 22.8099 11.8694C25.1054 11.7208 27.9987 11.883 29.0953 12.129V12.1273Z" fill="url(#paint3_linear_140_31435)"/>
<path d="M30.7634 13.1217C30.3484 13.3232 29.5849 12.8843 29.6481 12.3924C29.9316 10.1977 28.087 11.7639 27.8633 11.354C27.988 11.284 27.8325 10.3617 28.0085 10.2985C31.6294 8.70503 29.7865 12.1635 30.3364 12.541C30.9274 12.9458 31.0008 12.0337 31.0008 12.0337C31.0008 12.0337 31.3885 12.816 30.7634 13.1234V13.1217Z" fill="url(#paint4_linear_140_31435)"/>
<path d="M30.7613 35.6751C30.0183 32.0356 28.7049 28.8828 29.3129 26.5634C29.3676 26.3533 29.5469 26.2116 29.7023 25.788C29.8578 25.3628 29.4769 24.9802 29.2651 24.753C29.055 24.5259 29.2788 24.075 29.2805 24.0699C26.8227 24.0596 27.4376 26.0852 24.1036 27.1492C27.3385 26.5993 27.5947 25.6497 28.4811 24.9665C28.7407 24.7667 28.9081 24.9204 29.2224 25.4242C29.5367 25.9281 28.8022 26.3038 28.6605 26.5976C27.8987 28.1893 28.8415 33.6529 28.8415 33.6529C27.2821 33.1884 26.2334 33.296 25.1028 33.0381C22.4656 32.4386 22.8414 30.0766 22.8414 30.0766C22.3751 30.8366 22.0233 33.5317 22.0233 33.5317C20.2436 32.647 18.5612 30.7034 18.457 30.5821C20.0164 32.6692 22.44 34.3993 22.8875 34.5598C22.4896 33.8528 22.7475 33.0449 22.7475 33.0449C23.4921 34.4608 24.8961 35.395 26.9576 35.4736C28.8364 35.5453 30.7579 35.6751 30.7579 35.6751H30.7613Z" fill="url(#paint5_linear_140_31435)"/>
<path d="M15.0039 25.5773C15.0039 25.5773 17.5812 26.2075 19.3695 27.5346C19.3695 27.5346 18.8964 26.3783 18.6607 26.129C18.6607 26.129 20.7444 26.8599 22.4729 28.6447C22.4729 28.6447 20.3447 25.7652 17.5215 25.041C17.5215 25.041 17.8186 25.7805 18.0595 26.2348C18.0595 26.2348 17.4583 25.5824 15.0056 25.5773H15.0039Z" fill="black"/>
<path d="M14.9179 14.8281C14.7795 14.9665 13.0886 15.2004 13.6403 17.4993C14.192 19.7998 14.6275 22.6572 13.5293 23.7485C13.5293 23.7485 15.5396 22.5615 14.4858 18.0732C13.8333 15.2893 14.9162 14.8281 14.9162 14.8281H14.9179Z" fill="url(#paint6_linear_140_31435)"/>
<path d="M15.9732 12.8042C23.8538 9.72822 28.9606 11.7299 28.9606 11.7299C28.9606 11.7299 27.9922 8.56684 25.0579 7.42767C23.7718 6.92896 21.4506 7.29103 21.5087 7.29103C21.5668 7.29103 23.5156 7.67702 22.1458 7.96737C20.776 8.25771 18.8255 8.06472 17.8417 8.60442C16.8579 9.14412 18.6137 8.79741 17.2046 9.45325C15.7955 10.1091 14.6034 10.244 14.5436 10.8042C14.4838 11.3644 14.8493 11.2875 14.6375 11.7692C14.4257 12.2525 14.0978 12.548 13.9817 12.6026C13.8655 12.6573 14.8903 13.2277 15.9732 12.8059V12.8042Z" fill="url(#paint7_linear_140_31435)"/>
</g>
<defs>
<linearGradient id="paint0_linear_140_31435" x1="43.2177" y1="22.9607" x2="1.78125" y2="22.9607" gradientUnits="userSpaceOnUse">
<stop stop-color="#E6814A"/>
<stop offset="1" stop-color="#F1D286"/>
</linearGradient>
<linearGradient id="paint1_linear_140_31435" x1="29.685" y1="3.50626" x2="11.7267" y2="37.5506" gradientUnits="userSpaceOnUse">
<stop stop-color="#E9D094"/>
<stop offset="0.34" stop-color="#FFD670"/>
<stop offset="0.66" stop-color="#BC5C2C"/>
<stop offset="1" stop-color="#DFAA4C"/>
</linearGradient>
<linearGradient id="paint2_linear_140_31435" x1="33.3678" y1="5.44824" x2="15.4095" y2="39.4926" gradientUnits="userSpaceOnUse">
<stop stop-color="#E9D094"/>
<stop offset="0.34" stop-color="#FFD670"/>
<stop offset="0.66" stop-color="#BC5C2C"/>
<stop offset="1" stop-color="#DFAA4C"/>
</linearGradient>
<linearGradient id="paint3_linear_140_31435" x1="26.137" y1="1.63387" x2="8.17876" y2="35.6782" gradientUnits="userSpaceOnUse">
<stop stop-color="#E9D094"/>
<stop offset="0.34" stop-color="#FFD670"/>
<stop offset="0.66" stop-color="#BC5C2C"/>
<stop offset="1" stop-color="#DFAA4C"/>
</linearGradient>
<linearGradient id="paint4_linear_140_31435" x1="32.8847" y1="5.19357" x2="14.9264" y2="39.2379" gradientUnits="userSpaceOnUse">
<stop stop-color="#E9D094"/>
<stop offset="0.34" stop-color="#FFD670"/>
<stop offset="0.66" stop-color="#BC5C2C"/>
<stop offset="1" stop-color="#DFAA4C"/>
</linearGradient>
<linearGradient id="paint5_linear_140_31435" x1="37.9399" y1="7.86009" x2="19.9816" y2="41.9044" gradientUnits="userSpaceOnUse">
<stop stop-color="#E9D094"/>
<stop offset="0.34" stop-color="#FFD670"/>
<stop offset="0.66" stop-color="#BC5C2C"/>
<stop offset="1" stop-color="#DFAA4C"/>
</linearGradient>
<linearGradient id="paint6_linear_140_31435" x1="23.9343" y1="0.473144" x2="5.97771" y2="34.5175" gradientUnits="userSpaceOnUse">
<stop stop-color="#E9D094"/>
<stop offset="0.34" stop-color="#FFD670"/>
<stop offset="0.66" stop-color="#BC5C2C"/>
<stop offset="1" stop-color="#DFAA4C"/>
</linearGradient>
<linearGradient id="paint7_linear_140_31435" x1="26.6702" y1="1.91624" x2="8.71193" y2="35.9606" gradientUnits="userSpaceOnUse">
<stop stop-color="#E9D094"/>
<stop offset="0.34" stop-color="#FFD670"/>
<stop offset="0.66" stop-color="#BC5C2C"/>
<stop offset="1" stop-color="#DFAA4C"/>
</linearGradient>
<clipPath id="clip0_140_31435">
<rect width="45" height="45" fill="white"/>
</clipPath>
</defs>
</svg>
